{"glyphs":{"0":{"ha":872,"x_min":40,"x_max":832,"o":"m 569 -8 l 303 -8 q 135 47 206 -8 q 46 188 65 101 l 46 188 q 43 203 44 194 q 41 222 42 213 q 40 236 40 231 l 40 236 l 40 238 q 40 249 40 247 q 40 259 40 251 q 40 290 40 267 l 40 290 l 40 361 q 40 391 40 385 q 40 400 40 397 q 40 411 40 403 l 40 411 l 40 413 q 40 424 40 422 q 40 434 40 426 q 40 464 40 442 l 40 464 l 40 744 q 74 878 40 819 q 168 969 108 936 q 303 1003 228 1003 l 303 1003 l 569 1003 q 705 969 646 1003 q 798 878 764 936 q 832 744 832 819 l 832 744 l 832 464 q 832 434 832 442 q 832 424 832 426 q 832 413 832 422 l 832 413 l 832 411 q 832 400 832 403 q 832 391 832 397 q 832 361 832 385 l 832 361 l 832 290 q 832 260 832 268 q 832 251 832 253 q 832 239 832 249 l 832 239 l 832 238 q 831 219 832 229 q 829 202 831 210 q 826 188 828 194 l 826 188 q 737 47 807 101 q 569 -8 667 -8 l 569 -8 z m 328 622 l 328 622 q 365 687 335 661 q 436 713 396 713 l 436 713 q 507 687 476 713 q 544 622 538 661 l 544 622 q 569 694 569 643 l 569 694 l 569 790 q 549 858 569 832 q 476 883 529 883 l 476 883 l 396 883 q 324 858 344 883 q 303 790 303 832 l 303 790 l 303 694 q 328 622 303 643 z "},"1":{"ha":722,"x_min":40,"x_max":682,"o":"m 682 0 l 40 0 l 40 188 q 40 217 40 211 q 40 226 40 224 q 40 238 40 229 l 40 238 l 40 239 q 40 251 40 249 q 40 260 40 253 q 40 290 40 268 l 40 290 l 40 361 q 40 391 40 385 q 40 400 40 397 q 40 411 40 403 l 40 411 l 40 413 q 40 424 40 422 q 40 434 40 426 q 40 464 40 442 l 40 464 l 40 603 l 153 603 q 226 628 206 603 q 246 694 246 653 l 246 694 l 246 779 l 106 779 l 106 876 q 177 895 146 876 q 227 942 208 914 q 246 994 246 969 l 246 994 l 494 994 l 494 694 q 515 628 494 653 q 588 603 536 603 l 588 603 l 682 603 l 682 464 q 682 434 682 442 q 682 424 682 426 q 682 413 682 422 l 682 413 l 682 411 q 682 400 682 403 q 682 391 682 397 q 682 361 682 385 l 682 361 l 682 290 q 682 260 682 268 q 682 251 682 253 q 682 239 682 249 l 682 239 l 682 238 q 682 226 682 229 q 682 217 682 224 q 682 188 682 211 l 682 188 l 682 0 z "},"2":{"ha":838,"x_min":39,"x_max":810,"o":"m 810 0 l 39 0 l 39 188 q 39 217 39 211 q 39 226 39 224 q 39 238 39 229 l 39 238 l 39 239 q 39 251 39 249 q 39 260 39 253 q 39 290 39 268 l 39 290 l 39 361 q 39 391 39 385 q 39 400 39 397 q 39 411 39 403 l 39 411 l 39 413 q 39 424 39 422 q 39 434 39 426 q 39 464 39 442 l 39 464 l 39 497 q 68 649 39 596 q 152 725 97 701 q 286 760 207 749 l 286 760 l 465 785 q 544 843 544 796 l 544 843 q 524 879 544 868 q 458 890 504 890 l 458 890 l 413 890 q 344 872 368 890 q 319 807 319 853 l 319 807 l 64 807 q 126 950 64 899 q 296 1001 188 1001 l 296 1001 l 525 1001 q 732 963 671 1001 q 793 851 793 925 l 793 851 q 759 753 793 799 q 639 696 725 707 l 639 696 l 406 665 q 318 610 318 653 l 318 610 l 810 610 l 810 464 q 810 434 810 442 q 810 424 810 426 q 810 413 810 422 l 810 413 l 810 411 q 810 400 810 403 q 810 391 810 397 q 810 361 810 385 l 810 361 l 810 290 q 810 260 810 268 q 810 251 810 253 q 810 239 810 249 l 810 239 l 810 238 q 810 226 810 229 q 810 217 810 224 q 810 188 810 211 l 810 188 l 810 0 z "},"3":{"ha":876,"x_min":44,"x_max":840,"o":"m 578 -8 l 307 -8 q 140 47 210 -8 q 50 188 69 101 l 50 188 q 47 203 49 194 q 45 222 46 213 q 44 236 44 231 l 44 236 l 44 238 q 44 249 44 247 q 44 259 44 251 q 44 290 44 267 l 44 290 l 44 361 q 44 391 44 385 q 44 400 44 397 q 44 411 44 403 l 44 411 l 44 413 q 44 424 44 422 q 44 434 44 426 q 44 464 44 442 l 44 464 l 44 681 l 300 681 l 300 657 q 315 622 300 633 q 357 610 331 610 l 357 610 l 507 610 q 549 622 533 610 q 564 657 564 633 l 564 657 q 550 691 564 678 q 507 704 536 704 l 507 704 l 401 704 l 401 793 l 472 793 q 514 805 499 793 q 529 839 529 817 l 529 839 q 515 871 529 858 q 472 883 501 883 l 472 883 l 394 883 q 343 865 357 883 q 329 821 329 846 l 329 821 l 329 785 l 78 785 l 78 821 q 140 950 78 897 q 311 1003 203 1003 l 311 1003 l 592 1003 q 737 969 690 1003 q 783 874 783 935 l 783 874 q 750 787 783 819 q 660 754 717 754 l 660 754 l 593 754 l 593 740 q 781 685 721 740 q 840 514 840 631 l 840 514 l 840 464 q 840 434 840 442 q 840 424 840 426 q 840 413 840 422 l 840 413 l 840 411 q 840 400 840 403 q 840 391 840 397 q 840 361 840 385 l 840 361 l 840 290 q 840 260 840 268 q 840 251 840 253 q 840 239 840 249 l 840 239 l 840 238 q 840 219 840 229 q 838 202 839 210 q 835 188 836 194 l 835 188 q 745 47 815 101 q 578 -8 675 -8 l 578 -8 z "},"4":{"ha":803,"x_min":0,"x_max":786,"o":"m 765 0 l 61 0 l 61 188 q 61 217 61 211 q 61 226 61 224 q 61 238 61 229 l 61 238 l 61 239 q 61 251 61 249 q 61 260 61 253 q 61 290 61 268 l 61 290 l 61 361 q 61 391 61 385 q 61 400 61 397 q 61 411 61 403 l 61 411 l 61 413 q 61 424 61 422 q 61 434 61 426 q 61 464 61 442 l 61 464 l 61 601 l 275 601 q 383 624 356 601 q 410 683 410 646 l 410 683 l 0 683 l 0 767 l 350 993 l 672 993 l 672 781 l 786 781 l 786 683 l 672 683 q 694 624 672 646 q 765 601 717 601 l 765 601 l 765 464 q 765 434 765 442 q 765 424 765 426 q 765 413 765 422 l 765 413 l 765 411 q 765 400 765 403 q 765 391 765 397 q 765 361 765 385 l 765 361 l 765 290 q 765 260 765 268 q 765 251 765 253 q 765 239 765 249 l 765 239 l 765 238 q 765 226 765 229 q 765 217 765 224 q 765 188 765 211 l 765 188 l 765 0 z m 410 893 l 229 781 l 410 781 l 410 893 z "},"5":{"ha":856,"x_min":44,"x_max":819,"o":"m 557 -8 l 307 -8 q 140 47 210 -8 q 50 188 69 101 l 50 188 q 47 203 49 194 q 45 222 46 213 q 44 236 44 231 l 44 236 l 44 238 q 44 249 44 247 q 44 259 44 251 q 44 290 44 267 l 44 290 l 44 361 q 44 391 44 385 q 44 400 44 397 q 44 411 44 403 l 44 411 l 44 413 q 44 424 44 422 q 44 434 44 426 q 44 464 44 442 l 44 464 l 44 650 l 301 650 q 318 621 304 632 q 358 610 332 610 l 358 610 l 482 610 q 526 625 513 610 q 540 663 540 640 l 540 663 q 481 715 540 715 l 481 715 l 360 715 q 310 696 325 715 l 310 696 l 56 724 l 94 994 l 729 994 l 729 878 l 301 878 l 289 790 l 294 789 q 337 811 306 804 q 397 818 368 818 l 397 818 l 535 818 q 706 789 643 818 q 794 704 768 760 q 819 571 819 649 l 819 571 l 819 464 q 819 434 819 442 q 819 424 819 426 q 819 413 819 422 l 819 413 l 819 411 q 819 400 819 403 q 819 391 819 397 q 819 361 819 385 l 819 361 l 819 290 q 819 260 819 268 q 819 251 819 253 q 819 239 819 249 l 819 239 l 819 238 q 819 219 819 229 q 817 202 818 210 q 814 188 815 194 l 814 188 q 724 47 794 101 q 557 -8 654 -8 l 557 -8 z "},"6":{"ha":856,"x_min":40,"x_max":815,"o":"m 553 -8 l 303 -8 q 135 47 206 -8 q 46 188 65 101 l 46 188 q 43 203 44 194 q 41 222 42 213 q 40 236 40 231 l 40 236 l 40 238 q 40 249 40 247 q 40 259 40 251 q 40 290 40 267 l 40 290 l 40 361 q 40 391 40 385 q 40 400 40 397 q 40 411 40 403 l 40 411 l 40 413 q 40 424 40 422 q 40 434 40 426 q 40 464 40 442 l 40 464 l 40 683 q 74 860 40 789 q 183 967 107 931 q 388 1003 260 1003 l 388 1003 l 526 1003 q 653 981 597 1003 q 741 919 708 958 q 774 826 774 879 l 774 826 l 533 826 q 447 890 533 890 l 447 890 l 404 890 q 331 874 361 890 q 300 808 300 857 l 300 808 l 300 767 l 306 765 q 331 785 314 776 q 383 793 349 793 l 383 793 l 544 793 q 749 734 682 793 q 815 546 815 675 l 815 546 l 815 464 q 815 434 815 442 q 815 424 815 426 q 815 413 815 422 l 815 413 l 815 411 q 815 400 815 403 q 815 391 815 397 q 815 361 815 385 l 815 361 l 815 290 q 815 260 815 268 q 815 251 815 253 q 815 239 815 249 l 815 239 l 815 238 q 815 219 815 229 q 813 202 814 210 q 810 188 811 194 l 810 188 q 720 47 790 101 q 553 -8 650 -8 l 553 -8 z m 358 610 l 358 610 l 478 610 q 521 624 507 610 q 535 657 535 638 l 535 657 q 476 704 535 704 l 476 704 l 360 704 q 301 657 301 704 l 301 657 q 315 624 301 638 q 358 610 329 610 z "},"7":{"ha":732,"x_min":14,"x_max":718,"o":"m 679 0 l 46 0 l 46 188 q 46 217 46 211 q 46 226 46 224 q 46 238 46 229 l 46 238 l 46 239 q 46 251 46 249 q 46 260 46 253 q 46 290 46 268 l 46 290 l 46 361 q 46 391 46 385 q 46 400 46 397 q 46 411 46 403 l 46 411 l 46 413 q 46 424 46 422 q 46 434 46 426 q 46 464 46 442 l 46 464 l 46 603 l 124 603 q 192 614 163 603 q 253 655 222 625 q 324 739 283 685 l 324 739 l 431 883 l 240 883 q 165 858 186 883 q 144 790 144 832 l 144 790 l 14 790 l 14 994 l 718 994 l 718 883 l 550 658 q 535 624 535 639 l 535 624 q 569 603 535 603 l 569 603 l 679 603 l 679 464 q 679 434 679 442 q 679 424 679 426 q 679 413 679 422 l 679 413 l 679 411 q 679 400 679 403 q 679 391 679 397 q 679 361 679 385 l 679 361 l 679 290 q 679 260 679 268 q 679 251 679 253 q 679 239 679 249 l 679 239 l 679 238 q 679 226 679 229 q 679 217 679 224 q 679 188 679 211 l 679 188 l 679 0 z "},"8":{"ha":886,"x_min":36,"x_max":850,"o":"m 590 -8 l 299 -8 q 131 47 201 -8 q 42 188 61 101 l 42 188 q 39 203 40 194 q 37 222 38 213 q 36 236 36 231 l 36 236 l 36 238 q 36 249 36 247 q 36 259 36 251 q 36 290 36 267 l 36 290 l 36 361 q 36 391 36 385 q 36 400 36 397 q 36 411 36 403 l 36 411 l 36 413 q 36 424 36 422 q 36 434 36 426 q 36 464 36 442 l 36 464 l 36 514 q 92 681 36 621 q 256 740 149 740 l 256 740 l 256 754 l 203 754 q 113 788 147 754 q 79 876 79 821 l 79 876 q 126 970 79 938 q 271 1003 174 1003 l 271 1003 l 615 1003 q 760 969 714 1003 q 807 874 807 935 l 807 874 q 774 787 807 819 q 683 754 740 754 l 683 754 l 631 754 l 631 740 q 794 685 738 740 q 850 514 850 631 l 850 514 l 850 464 q 850 434 850 442 q 850 424 850 426 q 850 413 850 422 l 850 413 l 850 411 q 850 400 850 403 q 850 391 850 397 q 850 361 850 385 l 850 361 l 850 290 q 850 260 850 268 q 850 251 850 253 q 850 239 850 249 l 850 239 l 850 238 q 849 219 850 229 q 847 202 849 210 q 844 188 846 194 l 844 188 q 755 47 825 101 q 590 -8 685 -8 l 590 -8 z m 367 610 l 367 610 l 519 610 q 561 622 546 610 q 576 657 576 633 l 576 657 q 563 691 576 678 q 519 704 549 704 l 519 704 l 367 704 q 324 691 338 704 q 310 657 310 678 l 310 657 q 325 622 310 633 q 367 610 340 610 z m 404 793 l 404 793 l 485 793 q 526 805 511 793 q 542 839 542 817 l 542 839 q 528 871 542 858 q 485 883 514 883 l 485 883 l 404 883 q 360 871 374 883 q 346 839 346 858 l 346 839 q 404 793 346 793 z "},"9":{"ha":856,"x_min":40,"x_max":815,"o":"m 553 -8 l 303 -8 q 135 47 206 -8 q 46 188 65 101 l 46 188 q 43 203 44 194 q 41 222 42 213 q 40 236 40 231 l 40 236 l 40 238 q 40 249 40 247 q 40 259 40 251 q 40 290 40 267 l 40 290 l 40 361 q 40 391 40 385 q 40 400 40 397 q 40 411 40 403 l 40 411 l 40 413 q 40 424 40 422 q 40 434 40 426 q 40 464 40 442 l 40 464 l 40 650 l 296 650 q 320 617 306 624 q 382 610 335 610 l 382 610 l 501 610 q 553 624 533 610 q 574 663 574 639 l 574 663 l 574 717 l 568 718 q 542 699 560 708 q 490 690 525 690 l 490 690 l 231 690 q 165 703 204 690 q 95 747 125 715 q 65 833 65 778 l 65 833 q 105 943 65 907 q 207 991 144 979 q 335 1003 269 1003 l 335 1003 l 547 1003 q 815 683 815 1003 l 815 683 l 815 464 q 815 434 815 442 q 815 424 815 426 q 815 413 815 422 l 815 413 l 815 411 q 815 400 815 403 q 815 391 815 397 q 815 361 815 385 l 815 361 l 815 290 q 815 260 815 268 q 815 251 815 253 q 815 239 815 249 l 815 239 l 815 238 q 815 219 815 229 q 813 202 814 210 q 810 188 811 194 l 810 188 q 720 47 790 101 q 553 -8 650 -8 l 553 -8 z m 382 782 l 382 782 l 497 782 q 556 833 556 782 l 556 833 q 542 869 556 854 q 499 883 528 883 l 499 883 l 381 883 q 338 869 351 883 q 324 833 324 854 l 324 833 q 382 782 324 782 z "},"A":{"ha":972,"x_min":40,"x_max":932,"o":"m 397 0 l 40 0 l 40 188 q 40 217 40 211 q 40 226 40 224 q 40 238 40 229 l 40 238 l 40 239 q 40 251 40 249 q 40 260 40 253 q 40 290 40 268 l 40 290 l 40 361 q 40 391 40 385 q 40 400 40 397 q 40 411 40 403 l 40 411 l 40 413 q 40 424 40 422 q 40 434 40 426 q 40 464 40 442 l 40 464 l 40 603 q 97 610 74 603 q 140 642 119 618 q 190 714 161 667 l 190 714 l 358 994 l 628 994 l 783 718 q 827 647 810 672 q 867 613 844 622 q 932 603 890 603 l 932 603 l 932 0 l 478 0 l 478 188 q 478 217 478 211 q 478 226 478 224 q 478 238 478 229 l 478 238 l 478 239 q 478 251 478 249 q 478 260 478 253 q 478 290 478 268 l 478 290 l 478 361 q 478 391 478 385 q 478 400 478 397 q 478 411 478 403 l 478 411 l 478 413 q 478 424 478 422 q 478 434 478 426 q 478 464 478 442 l 478 464 l 478 610 l 500 610 q 535 623 522 610 q 547 657 547 636 l 547 657 q 535 689 547 676 q 500 701 522 701 l 500 701 l 361 701 q 325 687 336 701 q 314 656 314 672 l 314 656 q 328 622 314 633 q 361 610 343 610 l 361 610 l 397 610 l 397 0 z m 429 899 l 361 783 l 496 783 l 429 899 z "},"Á":{"ha":972,"x_min":40,"x_max":932,"o":"m 397 0 l 40 0 l 40 188 q 40 217 40 211 q 40 226 40 224 q 40 238 40 229 l 40 238 l 40 239 q 40 251 40 249 q 40 260 40 253 q 40 290 40 268 l 40 290 l 40 361 q 40 391 40 385 q 40 400 40 397 q 40 411 40 403 l 40 411 l 40 413 q 40 424 40 422 q 40 434 40 426 q 40 464 40 442 l 40 464 l 40 603 q 97 610 74 603 q 140 642 119 618 q 190 714 161 667 l 190 714 l 358 994 l 628 994 l 783 718 q 827 647 810 672 q 867 613 844 622 q 932 603 890 603 l 932 603 l 932 0 l 478 0 l 478 188 q 478 217 478 211 q 478 226 478 224 q 478 238 478 229 l 478 238 l 478 239 q 478 251 478 249 q 478 260 478 253 q 478 290 478 268 l 478 290 l 478 361 q 478 391 478 385 q 478 400 478 397 q 478 411 478 403 l 478 411 l 478 413 q 478 424 478 422 q 478 434 478 426 q 478 464 478 442 l 478 464 l 478 610 l 500 610 q 535 623 522 610 q 547 657 547 636 l 547 657 q 535 689 547 676 q 500 701 522 701 l 500 701 l 361 701 q 325 687 336 701 q 314 656 314 672 l 314 656 q 328 622 314 633 q 361 610 343 610 l 361 610 l 397 610 l 397 0 z m 429 899 l 361 783 l 496 783 l 429 899 z m 542 1051 l 410 1051 l 515 1213 l 690 1213 l 542 1051 z "},"Ă":{"ha":972,"x_min":40,"x_max":932,"o":"m 397 0 l 40 0 l 40 188 q 40 217 40 211 q 40 226 40 224 q 40 238 40 229 l 40 238 l 40 239 q 40 251 40 249 q 40 260 40 253 q 40 290 40 268 l 40 290 l 40 361 q 40 391 40 385 q 40 400 40 397 q 40 411 40 403 l 40 411 l 40 413 q 40 424 40 422 q 40 434 40 426 q 40 464 40 442 l 40 464 l 40 603 q 97 610 74 603 q 140 642 119 618 q 190 714 161 667 l 190 714 l 358 994 l 628 994 l 783 718 q 827 647 810 672 q 867 613 844 622 q 932 603 890 603 l 932 603 l 932 0 l 478 0 l 478 188 q 478 217 478 211 q 478 226 478 224 q 478 238 478 229 l 478 238 l 478 239 q 478 251 478 249 q 478 260 478 253 q 478 290 478 268 l 478 290 l 478 361 q 478 391 478 385 q 478 400 478 397 q 478 411 478 403 l 478 411 l 478 413 q 478 424 478 422 q 478 434 478 426 q 478 464 478 442 l 478 464 l 478 610 l 500 610 q 535 623 522 610 q 547 657 547 636 l 547 657 q 535 689 547 676 q 500 701 522 701 l 500 701 l 361 701 q 325 687 336 701 q 314 656 314 672 l 314 656 q 328 622 314 633 q 361 610 343 610 l 361 610 l 397 610 l 397 0 z m 429 899 l 361 783 l 496 783 l 429 899 z m 479 1035 l 479 1035 q 360 1081 404 1035 q 314 1210 317 1128 l 314 1210 l 404 1210 q 479 1136 426 1136 l 479 1136 q 557 1210 535 1136 l 557 1210 l 650 1210 q 603 1083 650 1131 q 479 1035 557 1035 z "},"Ắ":{"ha":972,"x_min":40,"x_max":932,"o":"m 397 0 l 40 0 l 40 188 q 40 217 40 211 q 40 226 40 224 q 40 238 40 229 l 40 238 l 40 239 q 40 251 40 249 q 40 260 40 253 q 40 290 40 268 l 40 290 l 40 361 q 40 391 40 385 q 40 400 40 397 q 40 411 40 403 l 40 411 l 40 413 q 40 424 40 422 q 40 434 40 426 q 40 464 40 442 l 40 464 l 40 603 q 97 610 74 603 q 140 642 119 618 q 190 714 161 667 l 190 714 l 358 994 l 628 994 l 783 718 q 827 647 810 672 q 867 613 844 622 q 932 603 890 603 l 932 603 l 932 0 l 478 0 l 478 188 q 478 217 478 211 q 478 226 478 224 q 478 238 478 229 l 478 238 l 478 239 q 478 251 478 249 q 478 260 478 253 q 478 290 478 268 l 478 290 l 478 361 q 478 391 478 385 q 478 400 478 397 q 478 411 478 403 l 478 411 l 478 413 q 478 424 478 422 q 478 434 478 426 q 478 464 478 442 l 478 464 l 478 610 l 500 610 q 535 623 522 610 q 547 657 547 636 l 547 657 q 535 689 547 676 q 500 701 522 701 l 500 701 l 361 701 q 325 687 336 701 q 314 656 314 672 l 314 656 q 328 622 314 633 q 361 610 343 610 l 361 610 l 397 610 l 397 0 z m 429 899 l 361 783 l 496 783 l 429 899 z m 479 1035 l 479 1035 q 360 1081 404 1035 q 314 1210 317 1128 l 314 1210 l 404 1210 q 479 1136 426 1136 l 479 1136 q 557 1210 535 1136 l 557 1210 l 650 1210 q 603 1083 650 1131 q 479 1035 557 1035 z m 522 1229 l 428 1229 l 503 1367 l 628 1367 l 522 1229 z "},"Ặ":{"ha":972,"x_min":40,"x_max":932,"o":"m 397 0 l 40 0 l 40 188 q 40 217 40 211 q 40 226 40 224 q 40 238 40 229 l 40 238 l 40 239 q 40 251 40 249 q 40 260 40 253 q 40 290 40 268 l 40 290 l 40 361 q 40 391 40 385 q 40 400 40 397 q 40 411 40 403 l 40 411 l 40 413 q 40 424 40 422 q 40 434 40 426 q 40 464 40 442 l 40 464 l 40 603 q 97 610 74 603 q 140 642 119 618 q 190 714 161 667 l 190 714 l 358 994 l 628 994 l 783 718 q 827 647 810 672 q 867 613 844 622 q 932 603 890 603 l 932 603 l 932 0 l 478 0 l 478 188 q 478 217 478 211 q 478 226 478 224 q 478 238 478 229 l 478 238 l 478 239 q 478 251 478 249 q 478 260 478 253 q 478 290 478 268 l 478 290 l 478 361 q 478 391 478 385 q 478 400 478 397 q 478 411 478 403 l 478 411 l 478 413 q 478 424 478 422 q 478 434 478 426 q 478 464 478 442 l 478 464 l 478 610 l 500 610 q 535 623 522 610 q 547 657 547 636 l 547 657 q 535 689 547 676 q 500 701 522 701 l 500 701 l 361 701 q 325 687 336 701 q 314 656 314 672 l 314 656 q 328 622 314 633 q 361 610 343 610 l 361 610 l 397 610 l 397 0 z m 429 899 l 361 783 l 496 783 l 429 899 z m 438 -211 l 438 -211 q 376 -186 399 -211 q 354 -126 354 -161 l 354 -126 q 378 -68 354 -93 q 439 -43 403 -43 l 439 -43 q 497 -69 472 -43 q 522 -126 522 -94 l 522 -126 q 508 -173 522 -154 q 473 -201 493 -192 q 438 -211 453 -211 z m 479 1035 l 479 1035 q 360 1081 404 1035 q 314 1210 317 1128 l 314 1210 l 404 1210 q 479 1136 426 1136 l 479 1136 q 557 1210 535 1136 l 557 1210 l 650 1210 q 603 1083 650 1131 q 479 1035 557 1035 z "},"Ằ":{"ha":972,"x_min":40,"x_max":932,"o":"m 397 0 l 40 0 l 40 188 q 40 217 40 211 q 40 226 40 224 q 40 238 40 229 l 40 238 l 40 239 q 40 251 40 249 q 40 260 40 253 q 40 290 40 268 l 40 290 l 40 361 q 40 391 40 385 q 40 400 40 397 q 40 411 40 403 l 40 411 l 40 413 q 40 424 40 422 q 40 434 40 426 q 40 464 40 442 l 40 464 l 40 603 q 97 610 74 603 q 140 642 119 618 q 190 714 161 667 l 190 714 l 358 994 l 628 994 l 783 718 q 827 647 810 672 q 867 613 844 622 q 932 603 890 603 l 932 603 l 932 0 l 478 0 l 478 188 q 478 217 478 211 q 478 226 478 224 q 478 238 478 229 l 478 238 l 478 239 q 478 251 478 249 q 478 260 478 253 q 478 290 478 268 l 478 290 l 478 361 q 478 391 478 385 q 478 400 478 397 q 478 411 478 403 l 478 411 l 478 413 q 478 424 478 422 q 478 434 478 426 q 478 464 478 442 l 478 464 l 478 610 l 500 610 q 535 623 522 610 q 547 657 547 636 l 547 657 q 535 689 547 676 q 500 701 522 701 l 500 701 l 361 701 q 325 687 336 701 q 314 656 314 672 l 314 656 q 328 622 314 633 q 361 610 343 610 l 361 610 l 397 610 l 397 0 z m 429 899 l 361 783 l 496 783 l 429 899 z m 479 1035 l 479 1035 q 360 1081 404 1035 q 314 1210 317 1128 l 314 1210 l 404 1210 q 479 1136 426 1136 l 479 1136 q 557 1210 535 1136 l 557 1210 l 650 1210 q 603 1083 650 1131 q 479 1035 557 1035 z m 533 1229 l 433 1229 l 328 1367 l 460 1364 l 533 1229 z "},"Ẳ":{"ha":972,"x_min":40,"x_max":932,"o":"m 397 0 l 40 0 l 40 188 q 40 217 40 211 q 40 226 40 224 q 40 238 40 229 l 40 238 l 40 239 q 40 251 40 249 q 40 260 40 253 q 40 290 40 268 l 40 290 l 40 361 q 40 391 40 385 q 40 400 40 397 q 40 411 40 403 l 40 411 l 40 413 q 40 424 40 422 q 40 434 40 426 q 40 464 40 442 l 40 464 l 40 603 q 97 610 74 603 q 140 642 119 618 q 190 714 161 667 l 190 714 l 358 994 l 628 994 l 783 718 q 827 647 810 672 q 867 613 844 622 q 932 603 890 603 l 932 603 l 932 0 l 478 0 l 478 188 q 478 217 478 211 q 478 226 478 224 q 478 238 478 229 l 478 238 l 478 239 q 478 251 478 249 q 478 260 478 253 q 478 290 478 268 l 478 290 l 478 361 q 478 391 478 385 q 478 400 478 397 q 478 411 478 403 l 478 411 l 478 413 q 478 424 478 422 q 478 434 478 426 q 478 464 478 442 l 478 464 l 478 610 l 500 610 q 535 623 522 610 q 547 657 547 636 l 547 657 q 535 689 547 676 q 500 701 522 701 l 500 701 l 361 701 q 325 687 336 701 q 314 656 314 672 l 314 656 q 328 622 314 633 q 361 610 343 610 l 361 610 l 397 610 l 397 0 z m 429 899 l 361 783 l 496 783 l 429 899 z m 479 1035 l 479 1035 q 360 1081 404 1035 q 314 1210 317 1128 l 314 1210 l 404 1210 q 479 1136 426 1136 l 479 1136 q 557 1210 535 1136 l 557 1210 l 650 1210 q 603 1083 650 1131 q 479 1035 557 1035 z m 521 1232 l 433 1232 q 474 1272 456 1247 q 493 1317 493 1296 l 493 1317 q 475 1350 493 1343 q 443 1357 457 1357 l 443 1357 q 363 1314 399 1357 l 363 1314 l 363 1406 q 413 1433 385 1422 q 481 1443 440 1443 l 481 1443 q 562 1417 529 1443 q 594 1342 594 1390 l 594 1342 q 574 1276 594 1306 q 521 1232 553 1247 l 521 1232 z "},"Ẵ":{"ha":972,"x_min":40,"x_max":932,"o":"m 397 0 l 40 0 l 40 188 q 40 217 40 211 q 40 226 40 224 q 40 238 40 229 l 40 238 l 40 239 q 40 251 40 249 q 40 260 40 253 q 40 290 40 268 l 40 290 l 40 361 q 40 391 40 385 q 40 400 40 397 q 40 411 40 403 l 40 411 l 40 413 q 40 424 40 422 q 40 434 40 426 q 40 464 40 442 l 40 464 l 40 603 q 97 610 74 603 q 140 642 119 618 q 190 714 161 667 l 190 714 l 358 994 l 628 994 l 783 718 q 827 647 810 672 q 867 613 844 622 q 932 603 890 603 l 932 603 l 932 0 l 478 0 l 478 188 q 478 217 478 211 q 478 226 478 224 q 478 238 478 229 l 478 238 l 478 239 q 478 251 478 249 q 478 260 478 253 q 478 290 478 268 l 478 290 l 478 361 q 478 391 478 385 q 478 400 478 397 q 478 411 478 403 l 478 411 l 478 413 q 478 424 478 422 q 478 434 478 426 q 478 464 478 442 l 478 464 l 478 610 l 500 610 q 535 623 522 610 q 547 657 547 636 l 547 657 q 535 689 547 676 q 500 701 522 701 l 500 701 l 361 701 q 325 687 336 701 q 314 656 314 672 l 314 656 q 328 622 314 633 q 361 610 343 610 l 361 610 l 397 610 l 397 0 z m 429 899 l 361 783 l 496 783 l 429 899 z m 479 1035 l 479 1035 q 360 1081 404 1035 q 314 1210 317 1128 l 314 1210 l 404 1210 q 479 1136 426 1136 l 479 1136 q 557 1210 535 1136 l 557 1210 l 650 1210 q 603 1083 650 1131 q 479 1035 557 1035 z m 550 1242 l 550 1242 q 490 1257 514 1242 l 490 1257 q 450 1283 468 1272 q 424 1294 432 1294 l 424 1294 q 407 1283 411 1294 q 400 1253 403 1271 l 400 1253 l 319 1253 q 342 1364 319 1328 l 342 1364 q 372 1390 353 1382 q 408 1399 390 1399 l 408 1399 q 453 1389 435 1399 q 483 1369 471 1379 l 483 1369 q 510 1351 496 1360 q 535 1342 524 1342 l 535 1342 q 567 1360 560 1342 q 578 1397 575 1379 l 578 1397 l 658 1397 q 649 1323 658 1353 q 626 1274 640 1293 l 626 1274 q 594 1249 615 1257 q 550 1242 572 1242 z "},"Ǎ":{"ha":972,"x_min":40,"x_max":932,"o":"m 397 0 l 40 0 l 40 188 q 40 217 40 211 q 40 226 40 224 q 40 238 40 229 l 40 238 l 40 239 q 40 251 40 249 q 40 260 40 253 q 40 290 40 268 l 40 290 l 40 361 q 40 391 40 385 q 40 400 40 397 q 40 411 40 403 l 40 411 l 40 413 q 40 424 40 422 q 40 434 40 426 q 40 464 40 442 l 40 464 l 40 603 q 97 610 74 603 q 140 642 119 618 q 190 714 161 667 l 190 714 l 358 994 l 628 994 l 783 718 q 827 647 810 672 q 867 613 844 622 q 932 603 890 603 l 932 603 l 932 0 l 478 0 l 478 188 q 478 217 478 211 q 478 226 478 224 q 478 238 478 229 l 478 238 l 478 239 q 478 251 478 249 q 478 260 478 253 q 478 290 478 268 l 478 290 l 478 361 q 478 391 478 385 q 478 400 478 397 q 478 411 478 403 l 478 411 l 478 413 q 478 424 478 422 q 478 434 478 426 q 478 464 478 442 l 478 464 l 478 610 l 500 610 q 535 623 522 610 q 547 657 547 636 l 547 657 q 535 689 547 676 q 500 701 522 701 l 500 701 l 361 701 q 325 687 336 701 q 314 656 314 672 l 314 656 q 328 622 314 633 q 361 610 343 610 l 361 610 l 397 610 l 397 0 z m 429 899 l 361 783 l 496 783 l 429 899 z m 569 1051 l 385 1051 l 292 1225 l 403 1225 l 479 1132 l 560 1231 l 668 1231 l 569 1051 z "},"Â":{"ha":972,"x_min":40,"x_max":932,"o":"m 397 0 l 40 0 l 40 188 q 40 217 40 211 q 40 226 40 224 q 40 238 40 229 l 40 238 l 40 239 q 40 251 40 249 q 40 260 40 253 q 40 290 40 268 l 40 290 l 40 361 q 40 391 40 385 q 40 400 40 397 q 40 411 40 403 l 40 411 l 40 413 q 40 424 40 422 q 40 434 40 426 q 40 464 40 442 l 40 464 l 40 603 q 97 610 74 603 q 140 642 119 618 q 190 714 161 667 l 190 714 l 358 994 l 628 994 l 783 718 q 827 647 810 672 q 867 613 844 622 q 932 603 890 603 l 932 603 l 932 0 l 478 0 l 478 188 q 478 217 478 211 q 478 226 478 224 q 478 238 478 229 l 478 238 l 478 239 q 478 251 478 249 q 478 260 478 253 q 478 290 478 268 l 478 290 l 478 361 q 478 391 478 385 q 478 400 478 397 q 478 411 478 403 l 478 411 l 478 413 q 478 424 478 422 q 478 434 478 426 q 478 464 478 442 l 478 464 l 478 610 l 500 610 q 535 623 522 610 q 547 657 547 636 l 547 657 q 535 689 547 676 q 500 701 522 701 l 500 701 l 361 701 q 325 687 336 701 q 314 656 314 672 l 314 656 q 328 622 314 633 q 361 610 343 610 l 361 610 l 397 610 l 397 0 z m 429 899 l 361 783 l 496 783 l 429 899 z m 401 1051 l 288 1051 l 390 1228 l 571 1228 l 679 1051 l 568 1051 l 479 1139 l 401 1051 z "},"Ấ":{"ha":972,"x_min":40,"x_max":932,"o":"m 397 0 l 40 0 l 40 188 q 40 217 40 211 q 40 226 40 224 q 40 238 40 229 l 40 238 l 40 239 q 40 251 40 249 q 40 260 40 253 q 40 290 40 268 l 40 290 l 40 361 q 40 391 40 385 q 40 400 40 397 q 40 411 40 403 l 40 411 l 40 413 q 40 424 40 422 q 40 434 40 426 q 40 464 40 442 l 40 464 l 40 603 q 97 610 74 603 q 140 642 119 618 q 190 714 161 667 l 190 714 l 358 994 l 628 994 l 783 718 q 827 647 810 672 q 867 613 844 622 q 932 603 890 603 l 932 603 l 932 0 l 478 0 l 478 188 q 478 217 478 211 q 478 226 478 224 q 478 238 478 229 l 478 238 l 478 239 q 478 251 478 249 q 478 260 478 253 q 478 290 478 268 l 478 290 l 478 361 q 478 391 478 385 q 478 400 478 397 q 478 411 478 403 l 478 411 l 478 413 q 478 424 478 422 q 478 434 478 426 q 478 464 478 442 l 478 464 l 478 610 l 500 610 q 535 623 522 610 q 547 657 547 636 l 547 657 q 535 689 547 676 q 500 701 522 701 l 500 701 l 361 701 q 325 687 336 701 q 314 656 314 672 l 314 656 q 328 622 314 633 q 361 610 343 610 l 361 610 l 397 610 l 397 0 z m 429 899 l 361 783 l 496 783 l 429 899 z m 401 1051 l 288 1051 l 390 1228 l 571 1228 l 679 1051 l 568 1051 l 479 1139 l 401 1051 z m 296 1196 l 185 1196 l 274 1331 l 419 1331 l 296 1196 z "},"Ậ":{"ha":972,"x_min":40,"x_max":932,"o":"m 397 0 l 40 0 l 40 188 q 40 217 40 211 q 40 226 40 224 q 40 238 40 229 l 40 238 l 40 239 q 40 251 40 249 q 40 260 40 253 q 40 290 40 268 l 40 290 l 40 361 q 40 391 40 385 q 40 400 40 397 q 40 411 40 403 l 40 411 l 40 413 q 40 424 40 422 q 40 434 40 426 q 40 464 40 442 l 40 464 l 40 603 q 97 610 74 603 q 140 642 119 618 q 190 714 161 667 l 190 714 l 358 994 l 628 994 l 783 718 q 827 647 810 672 q 867 613 844 622 q 932 603 890 603 l 932 603 l 932 0 l 478 0 l 478 188 q 478 217 478 211 q 478 226 478 224 q 478 238 478 229 l 478 238 l 478 239 q 478 251 478 249 q 478 260 478 253 q 478 290 478 268 l 478 290 l 478 361 q 478 391 478 385 q 478 400 478 397 q 478 411 478 403 l 478 411 l 478 413 q 478 424 478 422 q 478 434 478 426 q 478 464 478 442 l 478 464 l 478 610 l 500 610 q 535 623 522 610 q 547 657 547 636 l 547 657 q 535 689 547 676 q 500 701 522 701 l 500 701 l 361 701 q 325 687 336 701 q 314 656 314 672 l 314 656 q 328 622 314 633 q 361 610 343 610 l 361 610 l 397 610 l 397 0 z m 429 899 l 361 783 l 496 783 l 429 899 z m 401 1051 l 288 1051 l 390 1228 l 571 1228 l 679 1051 l 568 1051 l 479 1139 l 401 1051 z m 438 -211 l 438 -211 q 376 -186 399 -211 q 354 -126 354 -161 l 354 -126 q 378 -68 354 -93 q 439 -43 403 -43 l 439 -43 q 497 -69 472 -43 q 522 -126 522 -94 l 522 -126 q 508 -173 522 -154 q 473 -201 493 -192 q 438 -211 453 -211 z "},"Ầ":{"ha":972,"x_min":40,"x_max":932,"o":"m 397 0 l 40 0 l 40 188 q 40 217 40 211 q 40 226 40 224 q 40 238 40 229 l 40 238 l 40 239 q 40 251 40 249 q 40 260 40 253 q 40 290 40 268 l 40 290 l 40 361 q 40 391 40 385 q 40 400 40 397 q 40 411 40 403 l 40 411 l 40 413 q 40 424 40 422 q 40 434 40 426 q 40 464 40 442 l 40 464 l 40 603 q 97 610 74 603 q 140 642 119 618 q 190 714 161 667 l 190 714 l 358 994 l 628 994 l 783 718 q 827 647 810 672 q 867 613 844 622 q 932 603 890 603 l 932 603 l 932 0 l 478 0 l 478 188 q 478 217 478 211 q 478 226 478 224 q 478 238 478 229 l 478 238 l 478 239 q 478 251 478 249 q 478 260 478 253 q 478 290 478 268 l 478 290 l 478 361 q 478 391 478 385 q 478 400 478 397 q 478 411 478 403 l 478 411 l 478 413 q 478 424 478 422 q 478 434 478 426 q 478 464 478 442 l 478 464 l 478 610 l 500 610 q 535 623 522 610 q 547 657 547 636 l 547 657 q 535 689 547 676 q 500 701 522 701 l 500 701 l 361 701 q 325 687 336 701 q 314 656 314 672 l 314 656 q 328 622 314 633 q 361 610 343 610 l 361 610 l 397 610 l 397 0 z m 429 899 l 361 783 l 496 783 l 429 899 z m 401 1051 l 288 1051 l 390 1228 l 571 1228 l 679 1051 l 568 1051 l 479 1139 l 401 1051 z m 779 1197 l 671 1197 l 549 1331 l 693 1331 l 779 1197 z "},"Ẩ":{"ha":972,"x_min":40,"x_max":932,"o":"m 397 0 l 40 0 l 40 188 q 40 217 40 211 q 40 226 40 224 q 40 238 40 229 l 40 238 l 40 239 q 40 251 40 249 q 40 260 40 253 q 40 290 40 268 l 40 290 l 40 361 q 40 391 40 385 q 40 400 40 397 q 40 411 40 403 l 40 411 l 40 413 q 40 424 40 422 q 40 434 40 426 q 40 464 40 442 l 40 464 l 40 603 q 97 610 74 603 q 140 642 119 618 q 190 714 161 667 l 190 714 l 358 994 l 628 994 l 783 718 q 827 647 810 672 q 867 613 844 622 q 932 603 890 603 l 932 603 l 932 0 l 478 0 l 478 188 q 478 217 478 211 q 478 226 478 224 q 478 238 478 229 l 478 238 l 478 239 q 478 251 478 249 q 478 260 478 253 q 478 290 478 268 l 478 290 l 478 361 q 478 391 478 385 q 478 400 478 397 q 478 411 478 403 l 478 411 l 478 413 q 478 424 478 422 q 478 434 478 426 q 478 464 478 442 l 478 464 l 478 610 l 500 610 q 535 623 522 610 q 547 657 547 636 l 547 657 q 535 689 547 676 q 500 701 522 701 l 500 701 l 361 701 q 325 687 336 701 q 314 656 314 672 l 314 656 q 328 622 314 633 q 361 610 343 610 l 361 610 l 397 610 l 397 0 z m 429 899 l 361 783 l 496 783 l 429 899 z m 389 1051 l 275 1051 l 378 1228 l 558 1228 l 667 1051 l 556 1051 l 467 1139 l 389 1051 z m 715 1196 l 622 1196 q 665 1238 644 1213 q 686 1286 686 1264 l 686 1286 q 666 1322 686 1314 q 632 1329 646 1329 l 632 1329 q 547 1283 586 1329 l 547 1283 l 547 1381 q 599 1409 569 1397 q 671 1421 629 1421 l 671 1421 q 758 1392 724 1421 q 793 1313 793 1364 l 793 1313 q 771 1243 793 1274 q 715 1196 749 1213 l 715 1196 z "},"Ẫ":{"ha":972,"x_min":40,"x_max":932,"o":"m 397 0 l 40 0 l 40 188 q 40 217 40 211 q 40 226 40 224 q 40 238 40 229 l 40 238 l 40 239 q 40 251 40 249 q 40 260 40 253 q 40 290 40 268 l 40 290 l 40 361 q 40 391 40 385 q 40 400 40 397 q 40 411 40 403 l 40 411 l 40 413 q 40 424 40 422 q 40 434 40 426 q 40 464 40 442 l 40 464 l 40 603 q 97 610 74 603 q 140 642 119 618 q 190 714 161 667 l 190 714 l 358 994 l 628 994 l 783 718 q 827 647 810 672 q 867 613 844 622 q 932 603 890 603 l 932 603 l 932 0 l 478 0 l 478 188 q 478 217 478 211 q 478 226 478 224 q 478 238 478 229 l 478 238 l 478 239 q 478 251 478 249 q 478 260 478 253 q 478 290 478 268 l 478 290 l 478 361 q 478 391 478 385 q 478 400 478 397 q 478 411 478 403 l 478 411 l 478 413 q 478 424 478 422 q 478 434 478 426 q 478 464 478 442 l 478 464 l 478 610 l 500 610 q 535 623 522 610 q 547 657 547 636 l 547 657 q 535 689 547 676 q 500 701 522 701 l 500 701 l 361 701 q 325 687 336 701 q 314 656 314 672 l 314 656 q 328 622 314 633 q 361 610 343 610 l 361 610 l 397 610 l 397 0 z m 429 899 l 361 783 l 496 783 l 429 899 z m 401 1051 l 288 1051 l 390 1228 l 571 1228 l 679 1051 l 568 1051 l 479 1139 l 401 1051 z m 543 1268 l 543 1268 q 483 1283 507 1268 l 483 1283 q 442 1310 460 1299 q 415 1321 425 1321 l 415 1321 q 399 1309 404 1321 q 392 1279 394 1297 l 392 1279 l 313 1279 q 335 1390 313 1354 l 335 1390 q 364 1417 346 1408 q 401 1425 382 1425 l 401 1425 q 445 1415 428 1425 q 476 1396 463 1406 l 476 1396 q 502 1377 488 1386 q 528 1368 517 1368 l 528 1368 q 560 1387 551 1368 q 571 1422 568 1406 l 571 1422 l 650 1422 q 641 1349 650 1379 q 618 1300 632 1319 l 618 1300 q 585 1276 607 1283 q 543 1268 564 1268 z "},"Ȁ":{"ha":972,"x_min":40,"x_max":932,"o":"m 397 0 l 40 0 l 40 188 q 40 217 40 211 q 40 226 40 224 q 40 238 40 229 l 40 238 l 40 239 q 40 251 40 249 q 40 260 40 253 q 40 290 40 268 l 40 290 l 40 361 q 40 391 40 385 q 40 400 40 397 q 40 411 40 403 l 40 411 l 40 413 q 40 424 40 422 q 40 434 40 426 q 40 464 40 442 l 40 464 l 40 603 q 97 610 74 603 q 140 642 119 618 q 190 714 161 667 l 190 714 l 358 994 l 628 994 l 783 718 q 827 647 810 672 q 867 613 844 622 q 932 603 890 603 l 932 603 l 932 0 l 478 0 l 478 188 q 478 217 478 211 q 478 226 478 224 q 478 238 478 229 l 478 238 l 478 239 q 478 251 478 249 q 478 260 478 253 q 478 290 478 268 l 478 290 l 478 361 q 478 391 478 385 q 478 400 478 397 q 478 411 478 403 l 478 411 l 478 413 q 478 424 478 422 q 478 434 478 426 q 478 464 478 442 l 478 464 l 478 610 l 500 610 q 535 623 522 610 q 547 657 547 636 l 547 657 q 535 689 547 676 q 500 701 522 701 l 500 701 l 361 701 q 325 687 336 701 q 314 656 314 672 l 314 656 q 328 622 314 633 q 361 610 343 610 l 361 610 l 397 610 l 397 0 z m 429 899 l 361 783 l 496 783 l 429 899 z m 440 1051 l 339 1051 l 210 1215 l 365 1213 l 440 1051 z m 625 1051 l 525 1051 l 396 1213 l 551 1210 l 625 1051 z "},"Ä":{"ha":972,"x_min":40,"x_max":932,"o":"m 397 0 l 40 0 l 40 188 q 40 217 40 211 q 40 226 40 224 q 40 238 40 229 l 40 238 l 40 239 q 40 251 40 249 q 40 260 40 253 q 40 290 40 268 l 40 290 l 40 361 q 40 391 40 385 q 40 400 40 397 q 40 411 40 403 l 40 411 l 40 413 q 40 424 40 422 q 40 434 40 426 q 40 464 40 442 l 40 464 l 40 603 q 97 610 74 603 q 140 642 119 618 q 190 714 161 667 l 190 714 l 358 994 l 628 994 l 783 718 q 827 647 810 672 q 867 613 844 622 q 932 603 890 603 l 932 603 l 932 0 l 478 0 l 478 188 q 478 217 478 211 q 478 226 478 224 q 478 238 478 229 l 478 238 l 478 239 q 478 251 478 249 q 478 260 478 253 q 478 290 478 268 l 478 290 l 478 361 q 478 391 478 385 q 478 400 478 397 q 478 411 478 403 l 478 411 l 478 413 q 478 424 478 422 q 478 434 478 426 q 478 464 478 442 l 478 464 l 478 610 l 500 610 q 535 623 522 610 q 547 657 547 636 l 547 657 q 535 689 547 676 q 500 701 522 701 l 500 701 l 361 701 q 325 687 336 701 q 314 656 314 672 l 314 656 q 328 622 314 633 q 361 610 343 610 l 361 610 l 397 610 l 397 0 z m 429 899 l 361 783 l 496 783 l 429 899 z m 578 1043 l 578 1043 q 519 1069 544 1043 q 494 1126 494 1096 l 494 1126 q 509 1173 494 1154 q 544 1201 524 1192 q 579 1211 564 1211 l 579 1211 q 641 1186 619 1211 q 663 1126 663 1161 l 663 1126 q 638 1068 663 1093 q 578 1043 614 1043 z m 379 1043 l 379 1043 q 318 1068 340 1043 q 296 1128 296 1093 l 296 1128 q 320 1186 296 1161 q 381 1211 344 1211 l 381 1211 q 439 1185 414 1211 q 464 1128 464 1160 l 464 1128 q 449 1081 464 1100 q 415 1053 435 1063 q 379 1043 394 1043 z "},"Ǟ":{"ha":972,"x_min":40,"x_max":932,"o":"m 397 0 l 40 0 l 40 188 q 40 217 40 211 q 40 226 40 224 q 40 238 40 229 l 40 238 l 40 239 q 40 251 40 249 q 40 260 40 253 q 40 290 40 268 l 40 290 l 40 361 q 40 391 40 385 q 40 400 40 397 q 40 411 40 403 l 40 411 l 40 413 q 40 424 40 422 q 40 434 40 426 q 40 464 40 442 l 40 464 l 40 603 q 97 610 74 603 q 140 642 119 618 q 190 714 161 667 l 190 714 l 358 994 l 628 994 l 783 718 q 827 647 810 672 q 867 613 844 622 q 932 603 890 603 l 932 603 l 932 0 l 478 0 l 478 188 q 478 217 478 211 q 478 226 478 224 q 478 238 478 229 l 478 238 l 478 239 q 478 251 478 249 q 478 260 478 253 q 478 290 478 268 l 478 290 l 478 361 q 478 391 478 385 q 478 400 478 397 q 478 411 478 403 l 478 411 l 478 413 q 478 424 478 422 q 478 434 478 426 q 478 464 478 442 l 478 464 l 478 610 l 500 610 q 535 623 522 610 q 547 657 547 636 l 547 657 q 535 689 547 676 q 500 701 522 701 l 500 701 l 361 701 q 325 687 336 701 q 314 656 314 672 l 314 656 q 328 622 314 633 q 361 610 343 610 l 361 610 l 397 610 l 397 0 z m 429 899 l 361 783 l 496 783 l 429 899 z m 578 1043 l 578 1043 q 519 1069 544 1043 q 494 1126 494 1096 l 494 1126 q 509 1173 494 1154 q 544 1201 524 1192 q 579 1211 564 1211 l 579 1211 q 641 1186 619 1211 q 663 1126 663 1161 l 663 1126 q 638 1068 663 1093 q 578 1043 614 1043 z m 379 1043 l 379 1043 q 318 1068 340 1043 q 296 1128 296 1093 l 296 1128 q 320 1186 296 1161 q 381 1211 344 1211 l 381 1211 q 439 1185 414 1211 q 464 1128 464 1160 l 464 1128 q 449 1081 464 1100 q 415 1053 435 1063 q 379 1043 394 1043 z m 678 1257 l 275 1257 l 275 1361 l 678 1361 l 678 1257 z "},"Ȧ":{"ha":972,"x_min":40,"x_max":932,"o":"m 397 0 l 40 0 l 40 188 q 40 217 40 211 q 40 226 40 224 q 40 238 40 229 l 40 238 l 40 239 q 40 251 40 249 q 40 260 40 253 q 40 290 40 268 l 40 290 l 40 361 q 40 391 40 385 q 40 400 40 397 q 40 411 40 403 l 40 411 l 40 413 q 40 424 40 422 q 40 434 40 426 q 40 464 40 442 l 40 464 l 40 603 q 97 610 74 603 q 140 642 119 618 q 190 714 161 667 l 190 714 l 358 994 l 628 994 l 783 718 q 827 647 810 672 q 867 613 844 622 q 932 603 890 603 l 932 603 l 932 0 l 478 0 l 478 188 q 478 217 478 211 q 478 226 478 224 q 478 238 478 229 l 478 238 l 478 239 q 478 251 478 249 q 478 260 478 253 q 478 290 478 268 l 478 290 l 478 361 q 478 391 478 385 q 478 400 478 397 q 478 411 478 403 l 478 411 l 478 413 q 478 424 478 422 q 478 434 478 426 q 478 464 478 442 l 478 464 l 478 610 l 500 610 q 535 623 522 610 q 547 657 547 636 l 547 657 q 535 689 547 676 q 500 701 522 701 l 500 701 l 361 701 q 325 687 336 701 q 314 656 314 672 l 314 656 q 328 622 314 633 q 361 610 343 610 l 361 610 l 397 610 l 397 0 z m 429 899 l 361 783 l 496 783 l 429 899 z m 479 1043 l 479 1043 q 418 1068 440 1043 q 396 1128 396 1093 l 396 1128 q 420 1186 396 1161 q 481 1211 444 1211 l 481 1211 q 539 1185 514 1211 q 564 1128 564 1160 l 564 1128 q 549 1081 564 1100 q 515 1053 535 1063 q 479 1043 494 1043 z "},"Ạ":{"ha":972,"x_min":40,"x_max":932,"o":"m 397 0 l 40 0 l 40 188 q 40 217 40 211 q 40 226 40 224 q 40 238 40 229 l 40 238 l 40 239 q 40 251 40 249 q 40 260 40 253 q 40 290 40 268 l 40 290 l 40 361 q 40 391 40 385 q 40 400 40 397 q 40 411 40 403 l 40 411 l 40 413 q 40 424 40 422 q 40 434 40 426 q 40 464 40 442 l 40 464 l 40 603 q 97 610 74 603 q 140 642 119 618 q 190 714 161 667 l 190 714 l 358 994 l 628 994 l 783 718 q 827 647 810 672 q 867 613 844 622 q 932 603 890 603 l 932 603 l 932 0 l 478 0 l 478 188 q 478 217 478 211 q 478 226 478 224 q 478 238 478 229 l 478 238 l 478 239 q 478 251 478 249 q 478 260 478 253 q 478 290 478 268 l 478 290 l 478 361 q 478 391 478 385 q 478 400 478 397 q 478 411 478 403 l 478 411 l 478 413 q 478 424 478 422 q 478 434 478 426 q 478 464 478 442 l 478 464 l 478 610 l 500 610 q 535 623 522 610 q 547 657 547 636 l 547 657 q 535 689 547 676 q 500 701 522 701 l 500 701 l 361 701 q 325 687 336 701 q 314 656 314 672 l 314 656 q 328 622 314 633 q 361 610 343 610 l 361 610 l 397 610 l 397 0 z m 429 899 l 361 783 l 496 783 l 429 899 z m 438 -211 l 438 -211 q 376 -186 399 -211 q 354 -126 354 -161 l 354 -126 q 378 -68 354 -93 q 439 -43 403 -43 l 439 -43 q 497 -69 472 -43 q 522 -126 522 -94 l 522 -126 q 508 -173 522 -154 q 473 -201 493 -192 q 438 -211 453 -211 z "},"Ǡ":{"ha":972,"x_min":40,"x_max":932,"o":"m 397 0 l 40 0 l 40 188 q 40 217 40 211 q 40 226 40 224 q 40 238 40 229 l 40 238 l 40 239 q 40 251 40 249 q 40 260 40 253 q 40 290 40 268 l 40 290 l 40 361 q 40 391 40 385 q 40 400 40 397 q 40 411 40 403 l 40 411 l 40 413 q 40 424 40 422 q 40 434 40 426 q 40 464 40 442 l 40 464 l 40 603 q 97 610 74 603 q 140 642 119 618 q 190 714 161 667 l 190 714 l 358 994 l 628 994 l 783 718 q 827 647 810 672 q 867 613 844 622 q 932 603 890 603 l 932 603 l 932 0 l 478 0 l 478 188 q 478 217 478 211 q 478 226 478 224 q 478 238 478 229 l 478 238 l 478 239 q 478 251 478 249 q 478 260 478 253 q 478 290 478 268 l 478 290 l 478 361 q 478 391 478 385 q 478 400 478 397 q 478 411 478 403 l 478 411 l 478 413 q 478 424 478 422 q 478 434 478 426 q 478 464 478 442 l 478 464 l 478 610 l 500 610 q 535 623 522 610 q 547 657 547 636 l 547 657 q 535 689 547 676 q 500 701 522 701 l 500 701 l 361 701 q 325 687 336 701 q 314 656 314 672 l 314 656 q 328 622 314 633 q 361 610 343 610 l 361 610 l 397 610 l 397 0 z m 429 899 l 361 783 l 496 783 l 429 899 z m 479 1043 l 479 1043 q 418 1068 440 1043 q 396 1128 396 1093 l 396 1128 q 420 1186 396 1161 q 481 1211 444 1211 l 481 1211 q 539 1185 514 1211 q 564 1128 564 1160 l 564 1128 q 549 1081 564 1100 q 515 1053 535 1063 q 479 1043 494 1043 z m 676 1253 l 274 1253 l 274 1357 l 676 1357 l 676 1253 z "},"À":{"ha":972,"x_min":40,"x_max":932,"o":"m 397 0 l 40 0 l 40 188 q 40 217 40 211 q 40 226 40 224 q 40 238 40 229 l 40 238 l 40 239 q 40 251 40 249 q 40 260 40 253 q 40 290 40 268 l 40 290 l 40 361 q 40 391 40 385 q 40 400 40 397 q 40 411 40 403 l 40 411 l 40 413 q 40 424 40 422 q 40 434 40 426 q 40 464 40 442 l 40 464 l 40 603 q 97 610 74 603 q 140 642 119 618 q 190 714 161 667 l 190 714 l 358 994 l 628 994 l 783 718 q 827 647 810 672 q 867 613 844 622 q 932 603 890 603 l 932 603 l 932 0 l 478 0 l 478 188 q 478 217 478 211 q 478 226 478 224 q 478 238 478 229 l 478 238 l 478 239 q 478 251 478 249 q 478 260 478 253 q 478 290 478 268 l 478 290 l 478 361 q 478 391 478 385 q 478 400 478 397 q 478 411 478 403 l 478 411 l 478 413 q 478 424 478 422 q 478 434 478 426 q 478 464 478 442 l 478 464 l 478 610 l 500 610 q 535 623 522 610 q 547 657 547 636 l 547 657 q 535 689 547 676 q 500 701 522 701 l 500 701 l 361 701 q 325 687 336 701 q 314 656 314 672 l 314 656 q 328 622 314 633 q 361 610 343 610 l 361 610 l 397 610 l 397 0 z m 429 899 l 361 783 l 496 783 l 429 899 z m 553 1051 l 415 1051 l 271 1213 l 451 1210 l 553 1051 z "},"Ả":{"ha":972,"x_min":40,"x_max":932,"o":"m 397 0 l 40 0 l 40 188 q 40 217 40 211 q 40 226 40 224 q 40 238 40 229 l 40 238 l 40 239 q 40 251 40 249 q 40 260 40 253 q 40 290 40 268 l 40 290 l 40 361 q 40 391 40 385 q 40 400 40 397 q 40 411 40 403 l 40 411 l 40 413 q 40 424 40 422 q 40 434 40 426 q 40 464 40 442 l 40 464 l 40 603 q 97 610 74 603 q 140 642 119 618 q 190 714 161 667 l 190 714 l 358 994 l 628 994 l 783 718 q 827 647 810 672 q 867 613 844 622 q 932 603 890 603 l 932 603 l 932 0 l 478 0 l 478 188 q 478 217 478 211 q 478 226 478 224 q 478 238 478 229 l 478 238 l 478 239 q 478 251 478 249 q 478 260 478 253 q 478 290 478 268 l 478 290 l 478 361 q 478 391 478 385 q 478 400 478 397 q 478 411 478 403 l 478 411 l 478 413 q 478 424 478 422 q 478 434 478 426 q 478 464 478 442 l 478 464 l 478 610 l 500 610 q 535 623 522 610 q 547 657 547 636 l 547 657 q 535 689 547 676 q 500 701 522 701 l 500 701 l 361 701 q 325 687 336 701 q 314 656 314 672 l 314 656 q 328 622 314 633 q 361 610 343 610 l 361 610 l 397 610 l 397 0 z m 429 899 l 361 783 l 496 783 l 429 899 z m 522 1051 l 425 1051 q 470 1097 449 1069 q 492 1146 492 1124 l 492 1146 q 471 1183 492 1175 q 435 1190 450 1190 l 435 1190 q 346 1143 386 1190 l 346 1143 l 346 1244 q 401 1274 369 1263 q 476 1286 433 1286 l 476 1286 q 567 1256 531 1286 q 604 1174 604 1226 l 604 1174 q 581 1101 604 1133 q 522 1051 558 1068 l 522 1051 z "},"Ȃ":{"ha":972,"x_min":40,"x_max":932,"o":"m 397 0 l 40 0 l 40 188 q 40 217 40 211 q 40 226 40 224 q 40 238 40 229 l 40 238 l 40 239 q 40 251 40 249 q 40 260 40 253 q 40 290 40 268 l 40 290 l 40 361 q 40 391 40 385 q 40 400 40 397 q 40 411 40 403 l 40 411 l 40 413 q 40 424 40 422 q 40 434 40 426 q 40 464 40 442 l 40 464 l 40 603 q 97 610 74 603 q 140 642 119 618 q 190 714 161 667 l 190 714 l 358 994 l 628 994 l 783 718 q 827 647 810 672 q 867 613 844 622 q 932 603 890 603 l 932 603 l 932 0 l 478 0 l 478 188 q 478 217 478 211 q 478 226 478 224 q 478 238 478 229 l 478 238 l 478 239 q 478 251 478 249 q 478 260 478 253 q 478 290 478 268 l 478 290 l 478 361 q 478 391 478 385 q 478 400 478 397 q 478 411 478 403 l 478 411 l 478 413 q 478 424 478 422 q 478 434 478 426 q 478 464 478 442 l 478 464 l 478 610 l 500 610 q 535 623 522 610 q 547 657 547 636 l 547 657 q 535 689 547 676 q 500 701 522 701 l 500 701 l 361 701 q 325 687 336 701 q 314 656 314 672 l 314 656 q 328 622 314 633 q 361 610 343 610 l 361 610 l 397 610 l 397 0 z m 429 899 l 361 783 l 496 783 l 429 899 z m 476 1226 l 476 1226 q 601 1178 554 1226 q 647 1051 647 1131 l 647 1051 l 554 1051 q 476 1125 532 1125 l 476 1125 q 401 1051 424 1125 l 401 1051 l 311 1051 q 358 1180 314 1133 q 476 1226 401 1226 z "},"Ɑ":{"ha":910,"x_min":40,"x_max":869,"o":"m 424 -8 l 303 -8 q 135 47 206 -8 q 46 188 65 101 l 46 188 q 43 202 44 194 q 41 219 42 210 q 40 236 40 228 l 40 236 l 40 238 q 40 249 40 247 q 40 259 40 251 q 40 290 40 267 l 40 290 l 40 361 q 40 391 40 385 q 40 400 40 397 q 40 411 40 403 l 40 411 l 40 413 q 40 424 40 422 q 40 434 40 426 q 40 464 40 442 l 40 464 l 40 744 q 111 925 40 856 q 310 994 182 994 l 310 994 l 869 994 l 869 883 q 797 854 818 883 q 776 783 776 825 l 776 783 l 776 694 q 797 628 776 653 q 869 603 818 603 l 869 603 l 869 464 q 869 434 869 442 q 869 424 869 426 q 869 413 869 422 l 869 413 l 869 411 q 869 400 869 403 q 869 391 869 397 q 869 361 869 385 l 869 361 l 869 0 l 753 0 l 726 160 q 701 223 719 204 q 644 242 682 242 l 644 242 l 644 196 q 592 40 644 89 q 424 -8 540 -8 l 424 -8 z m 356 610 l 356 610 l 493 610 q 526 625 508 610 q 544 683 544 640 l 544 683 l 544 790 q 529 858 544 832 q 451 883 514 883 l 451 883 l 399 883 q 327 858 347 883 q 307 790 307 832 l 307 790 l 307 683 q 324 625 307 640 q 356 610 342 610 z "},"Ā":{"ha":972,"x_min":40,"x_max":932,"o":"m 397 0 l 40 0 l 40 188 q 40 217 40 211 q 40 226 40 224 q 40 238 40 229 l 40 238 l 40 239 q 40 251 40 249 q 40 260 40 253 q 40 290 40 268 l 40 290 l 40 361 q 40 391 40 385 q 40 400 40 397 q 40 411 40 403 l 40 411 l 40 413 q 40 424 40 422 q 40 434 40 426 q 40 464 40 442 l 40 464 l 40 603 q 97 610 74 603 q 140 642 119 618 q 190 714 161 667 l 190 714 l 358 994 l 628 994 l 783 718 q 827 647 810 672 q 867 613 844 622 q 932 603 890 603 l 932 603 l 932 0 l 478 0 l 478 188 q 478 217 478 211 q 478 226 478 224 q 478 238 478 229 l 478 238 l 478 239 q 478 251 478 249 q 478 260 478 253 q 478 290 478 268 l 478 290 l 478 361 q 478 391 478 385 q 478 400 478 397 q 478 411 478 403 l 478 411 l 478 413 q 478 424 478 422 q 478 434 478 426 q 478 464 478 442 l 478 464 l 478 610 l 500 610 q 535 623 522 610 q 547 657 547 636 l 547 657 q 535 689 547 676 q 500 701 522 701 l 500 701 l 361 701 q 325 687 336 701 q 314 656 314 672 l 314 656 q 328 622 314 633 q 361 610 343 610 l 361 610 l 397 610 l 397 0 z m 429 899 l 361 783 l 496 783 l 429 899 z m 681 1058 l 278 1058 l 278 1163 l 681 1163 l 681 1058 z "},"Ą":{"ha":972,"x_min":40,"x_max":964,"o":"m 397 0 l 40 0 l 40 188 q 40 217 40 211 q 40 226 40 224 q 40 238 40 229 l 40 238 l 40 239 q 40 251 40 249 q 40 260 40 253 q 40 290 40 268 l 40 290 l 40 361 q 40 391 40 385 q 40 400 40 397 q 40 411 40 403 l 40 411 l 40 413 q 40 424 40 422 q 40 434 40 426 q 40 464 40 442 l 40 464 l 40 603 q 97 610 74 603 q 140 642 119 618 q 190 714 161 667 l 190 714 l 358 994 l 628 994 l 783 718 q 827 647 810 672 q 867 613 844 622 q 932 603 890 603 l 932 603 l 932 0 l 478 0 l 478 188 q 478 217 478 211 q 478 226 478 224 q 478 238 478 229 l 478 238 l 478 239 q 478 251 478 249 q 478 260 478 253 q 478 290 478 268 l 478 290 l 478 361 q 478 391 478 385 q 478 400 478 397 q 478 411 478 403 l 478 411 l 478 413 q 478 424 478 422 q 478 434 478 426 q 478 464 478 442 l 478 464 l 478 610 l 500 610 q 535 623 522 610 q 547 657 547 636 l 547 657 q 535 689 547 676 q 500 701 522 701 l 500 701 l 361 701 q 325 687 336 701 q 314 656 314 672 l 314 656 q 328 622 314 633 q 361 610 343 610 l 361 610 l 397 610 l 397 0 z m 429 899 l 361 783 l 496 783 l 429 899 z m 846 -233 l 846 -233 q 742 -200 786 -233 q 699 -107 699 -167 l 699 -107 q 716 -44 699 -71 q 756 0 733 -17 l 756 0 l 932 0 q 863 -16 888 0 q 828 -52 838 -32 q 818 -87 818 -72 l 818 -87 q 840 -130 818 -117 q 889 -143 861 -143 l 889 -143 q 928 -134 910 -143 q 964 -111 947 -125 l 964 -111 l 964 -192 q 911 -222 944 -210 q 846 -233 878 -233 z "},"Å":{"ha":972,"x_min":40,"x_max":932,"o":"m 397 0 l 40 0 l 40 188 q 40 217 40 211 q 40 226 40 224 q 40 238 40 229 l 40 238 l 40 239 q 40 251 40 249 q 40 260 40 253 q 40 290 40 268 l 40 290 l 40 361 q 40 391 40 385 q 40 400 40 397 q 40 411 40 403 l 40 411 l 40 413 q 40 424 40 422 q 40 434 40 426 q 40 464 40 442 l 40 464 l 40 603 q 97 610 74 603 q 140 642 119 618 q 190 714 161 667 l 190 714 l 358 994 l 628 994 l 783 718 q 827 647 810 672 q 867 613 844 622 q 932 603 890 603 l 932 603 l 932 0 l 478 0 l 478 188 q 478 217 478 211 q 478 226 478 224 q 478 238 478 229 l 478 238 l 478 239 q 478 251 478 249 q 478 260 478 253 q 478 290 478 268 l 478 290 l 478 361 q 478 391 478 385 q 478 400 478 397 q 478 411 478 403 l 478 411 l 478 413 q 478 424 478 422 q 478 434 478 426 q 478 464 478 442 l 478 464 l 478 610 l 500 610 q 535 623 522 610 q 547 657 547 636 l 547 657 q 535 689 547 676 q 500 701 522 701 l 500 701 l 361 701 q 325 687 336 701 q 314 656 314 672 l 314 656 q 328 622 314 633 q 361 610 343 610 l 361 610 l 397 610 l 397 0 z m 429 899 l 361 783 l 496 783 l 429 899 z m 575 1043 l 386 1043 q 333 1061 351 1043 q 315 1108 315 1079 l 315 1108 l 315 1160 q 333 1226 315 1207 q 383 1244 350 1244 l 383 1244 l 575 1244 q 625 1225 607 1244 q 643 1182 643 1206 l 643 1182 l 643 1113 q 627 1060 643 1078 q 575 1043 611 1043 l 575 1043 z m 432 1126 l 432 1126 l 532 1126 q 556 1144 556 1126 l 556 1144 l 556 1156 q 533 1174 556 1174 l 533 1174 l 432 1174 q 407 1154 407 1174 l 407 1154 l 407 1146 q 432 1126 407 1126 z "},"Ḁ":{"ha":972,"x_min":40,"x_max":932,"o":"m 397 0 l 40 0 l 40 188 q 40 217 40 211 q 40 226 40 224 q 40 238 40 229 l 40 238 l 40 239 q 40 251 40 249 q 40 260 40 253 q 40 290 40 268 l 40 290 l 40 361 q 40 391 40 385 q 40 400 40 397 q 40 411 40 403 l 40 411 l 40 413 q 40 424 40 422 q 40 434 40 426 q 40 464 40 442 l 40 464 l 40 603 q 97 610 74 603 q 140 642 119 618 q 190 714 161 667 l 190 714 l 358 994 l 628 994 l 783 718 q 827 647 810 672 q 867 613 844 622 q 932 603 890 603 l 932 603 l 932 0 l 478 0 l 478 188 q 478 217 478 211 q 478 226 478 224 q 478 238 478 229 l 478 238 l 478 239 q 478 251 478 249 q 478 260 478 253 q 478 290 478 268 l 478 290 l 478 361 q 478 391 478 385 q 478 400 478 397 q 478 411 478 403 l 478 411 l 478 413 q 478 424 478 422 q 478 434 478 426 q 478 464 478 442 l 478 464 l 478 610 l 500 610 q 535 623 522 610 q 547 657 547 636 l 547 657 q 535 689 547 676 q 500 701 522 701 l 500 701 l 361 701 q 325 687 336 701 q 314 656 314 672 l 314 656 q 328 622 314 633 q 361 610 343 610 l 361 610 l 397 610 l 397 0 z m 429 899 l 361 783 l 496 783 l 429 899 z m 533 -258 l 344 -258 q 292 -240 310 -258 q 274 -193 274 -222 l 274 -193 l 274 -142 q 291 -76 274 -94 q 342 -57 308 -57 l 342 -57 l 533 -57 q 583 -76 565 -57 q 601 -119 601 -96 l 601 -119 l 601 -189 q 585 -241 601 -224 q 533 -258 569 -258 l 533 -258 z m 390 -175 l 390 -175 l 490 -175 q 514 -157 514 -175 l 514 -157 l 514 -146 q 492 -128 514 -128 l 492 -128 l 390 -128 q 365 -147 365 -128 l 365 -147 l 365 -156 q 390 -175 365 -175 z "},"Ⱥ":{"ha":972,"x_min":-26,"x_max":932,"o":"m 649 871 l 553 933 l 660 1100 l 785 1100 l 649 871 z m 99 -83 l -26 -83 l 96 190 l 179 79 l 99 -83 z m 397 0 l 40 0 l 40 188 q 40 217 40 211 q 40 226 40 224 q 40 238 40 229 l 40 238 l 40 239 q 40 251 40 249 q 40 260 40 253 q 40 290 40 268 l 40 290 l 40 361 q 40 391 40 385 q 40 400 40 397 q 40 411 40 403 l 40 411 l 40 413 q 40 424 40 422 q 40 434 40 426 q 40 464 40 442 l 40 464 l 40 603 q 97 610 74 603 q 140 642 119 618 q 190 714 161 667 l 190 714 l 358 994 l 628 994 l 783 718 q 827 647 810 672 q 867 613 844 622 q 932 603 890 603 l 932 603 l 932 0 l 478 0 l 478 188 q 478 217 478 211 q 478 226 478 224 q 478 238 478 229 l 478 238 l 478 239 q 478 251 478 249 q 478 260 478 253 q 478 290 478 268 l 478 290 l 478 361 q 478 391 478 385 q 478 400 478 397 q 478 411 478 403 l 478 411 l 478 413 q 478 424 478 422 q 478 434 478 426 q 478 464 478 442 l 478 464 l 478 610 l 500 610 q 535 623 522 610 q 547 657 547 636 l 547 657 q 535 689 547 676 q 500 701 522 701 l 500 701 l 361 701 q 325 687 336 701 q 314 656 314 672 l 314 656 q 328 622 314 633 q 361 610 343 610 l 361 610 l 397 610 l 397 0 z m 429 899 l 361 783 l 496 783 l 429 899 z "},"Ã":{"ha":972,"x_min":40,"x_max":932,"o":"m 397 0 l 40 0 l 40 188 q 40 217 40 211 q 40 226 40 224 q 40 238 40 229 l 40 238 l 40 239 q 40 251 40 249 q 40 260 40 253 q 40 290 40 268 l 40 290 l 40 361 q 40 391 40 385 q 40 400 40 397 q 40 411 40 403 l 40 411 l 40 413 q 40 424 40 422 q 40 434 40 426 q 40 464 40 442 l 40 464 l 40 603 q 97 610 74 603 q 140 642 119 618 q 190 714 161 667 l 190 714 l 358 994 l 628 994 l 783 718 q 827 647 810 672 q 867 613 844 622 q 932 603 890 603 l 932 603 l 932 0 l 478 0 l 478 188 q 478 217 478 211 q 478 226 478 224 q 478 238 478 229 l 478 238 l 478 239 q 478 251 478 249 q 478 260 478 253 q 478 290 478 268 l 478 290 l 478 361 q 478 391 478 385 q 478 400 478 397 q 478 411 478 403 l 478 411 l 478 413 q 478 424 478 422 q 478 434 478 426 q 478 464 478 442 l 478 464 l 478 610 l 500 610 q 535 623 522 610 q 547 657 547 636 l 547 657 q 535 689 547 676 q 500 701 522 701 l 500 701 l 361 701 q 325 687 336 701 q 314 656 314 672 l 314 656 q 328 622 314 633 q 361 610 343 610 l 361 610 l 397 610 l 397 0 z m 429 899 l 361 783 l 496 783 l 429 899 z m 554 1039 l 554 1039 q 488 1057 514 1039 l 488 1057 q 442 1087 461 1075 q 411 1099 422 1099 l 411 1099 q 392 1085 397 1099 q 385 1051 388 1072 l 385 1051 l 294 1051 q 319 1178 294 1136 l 319 1178 q 353 1207 332 1197 q 394 1217 374 1217 l 394 1217 q 445 1206 425 1217 q 479 1183 465 1194 l 479 1183 q 509 1163 493 1174 q 538 1153 525 1153 l 538 1153 q 574 1174 565 1153 q 586 1214 583 1194 l 586 1214 l 676 1214 q 666 1132 676 1165 q 640 1075 656 1099 l 640 1075 q 603 1048 628 1057 q 554 1039 579 1039 z "},"Æ":{"ha":1236,"x_min":40,"x_max":1196,"o":"m 428 0 l 40 0 l 40 188 q 40 217 40 211 q 40 226 40 224 q 40 238 40 229 l 40 238 l 40 239 q 40 251 40 249 q 40 260 40 253 q 40 290 40 268 l 40 290 l 40 361 q 40 391 40 385 q 40 400 40 397 q 40 411 40 403 l 40 411 l 40 413 q 40 424 40 422 q 40 434 40 426 q 40 464 40 442 l 40 464 l 40 603 q 128 631 88 603 q 232 714 169 658 l 232 714 l 553 994 l 1188 994 l 1188 790 l 1063 790 q 1042 858 1063 832 q 969 883 1022 883 l 969 883 l 801 883 l 801 799 l 964 799 l 964 701 l 801 701 l 801 610 l 978 610 q 1051 631 1031 610 q 1071 694 1071 653 l 1071 694 l 1196 694 l 1196 464 q 1196 434 1196 442 q 1196 424 1196 426 q 1196 413 1196 422 l 1196 413 l 1196 411 q 1196 400 1196 403 q 1196 391 1196 397 q 1196 361 1196 385 l 1196 361 l 1196 290 q 1196 260 1196 268 q 1196 251 1196 253 q 1196 239 1196 249 l 1196 239 l 1196 238 q 1196 226 1196 229 q 1196 217 1196 224 q 1196 188 1196 211 l 1196 188 l 1196 0 l 508 0 l 508 188 q 508 217 508 211 q 508 226 508 224 q 508 238 508 229 l 508 238 l 508 239 q 508 251 508 249 q 508 260 508 253 q 508 290 508 268 l 508 290 l 508 361 q 508 391 508 385 q 508 400 508 397 q 508 411 508 403 l 508 411 l 508 413 q 508 425 508 422 q 508 435 508 428 q 508 464 508 442 l 508 464 l 508 610 l 524 610 q 558 623 546 610 q 571 657 571 636 l 571 657 q 558 689 571 676 q 524 701 546 701 l 524 701 l 411 701 q 375 687 386 701 q 364 656 364 672 l 364 656 q 378 622 364 633 q 411 610 393 610 l 411 610 l 428 610 l 428 0 z m 571 878 l 464 783 l 571 783 l 571 878 z "},"Ǣ":{"ha":1236,"x_min":40,"x_max":1196,"o":"m 428 0 l 40 0 l 40 188 q 40 217 40 211 q 40 226 40 224 q 40 238 40 229 l 40 238 l 40 239 q 40 251 40 249 q 40 260 40 253 q 40 290 40 268 l 40 290 l 40 361 q 40 391 40 385 q 40 400 40 397 q 40 411 40 403 l 40 411 l 40 413 q 40 424 40 422 q 40 434 40 426 q 40 464 40 442 l 40 464 l 40 603 q 128 631 88 603 q 232 714 169 658 l 232 714 l 553 994 l 1188 994 l 1188 790 l 1063 790 q 1042 858 1063 832 q 969 883 1022 883 l 969 883 l 801 883 l 801 799 l 964 799 l 964 701 l 801 701 l 801 610 l 978 610 q 1051 631 1031 610 q 1071 694 1071 653 l 1071 694 l 1196 694 l 1196 464 q 1196 434 1196 442 q 1196 424 1196 426 q 1196 413 1196 422 l 1196 413 l 1196 411 q 1196 400 1196 403 q 1196 391 1196 397 q 1196 361 1196 385 l 1196 361 l 1196 290 q 1196 260 1196 268 q 1196 251 1196 253 q 1196 239 1196 249 l 1196 239 l 1196 238 q 1196 226 1196 229 q 1196 217 1196 224 q 1196 188 1196 211 l 1196 188 l 1196 0 l 508 0 l 508 188 q 508 217 508 211 q 508 226 508 224 q 508 238 508 229 l 508 238 l 508 239 q 508 251 508 249 q 508 260 508 253 q 508 290 508 268 l 508 290 l 508 361 q 508 391 508 385 q 508 400 508 397 q 508 411 508 403 l 508 411 l 508 413 q 508 425 508 422 q 508 435 508 428 q 508 464 508 442 l 508 464 l 508 610 l 524 610 q 558 623 546 610 q 571 657 571 636 l 571 657 q 558 689 571 676 q 524 701 546 701 l 524 701 l 411 701 q 375 687 386 701 q 364 656 364 672 l 364 656 q 378 622 364 633 q 411 610 393 610 l 411 610 l 428 610 l 428 0 z m 571 878 l 464 783 l 571 783 l 571 878 z m 953 1058 l 550 1058 l 550 1163 l 953 1163 l 953 1058 z "},"B":{"ha":888,"x_min":40,"x_max":853,"o":"m 590 0 l 40 0 l 40 188 q 40 217 40 211 q 40 226 40 224 q 40 238 40 229 l 40 238 l 40 239 q 40 251 40 249 q 40 260 40 253 q 40 290 40 268 l 40 290 l 40 361 q 40 391 40 385 q 40 400 40 397 q 40 411 40 403 l 40 411 l 40 413 q 40 424 40 422 q 40 434 40 426 q 40 464 40 442 l 40 464 l 40 603 q 113 624 93 603 q 133 688 133 646 l 133 688 l 133 790 q 113 858 133 832 q 40 883 93 883 l 40 883 l 40 994 l 639 994 q 690 992 660 994 q 749 977 719 989 q 799 941 779 965 q 818 872 818 917 l 818 872 q 789 801 818 825 q 722 767 760 776 q 658 758 685 758 l 658 758 l 633 758 l 633 746 q 708 738 669 746 q 779 708 746 731 q 833 640 813 685 q 853 521 853 596 l 853 521 l 853 464 q 853 434 853 442 q 853 424 853 426 q 853 413 853 422 l 853 413 l 853 411 q 853 400 853 403 q 853 391 853 397 q 853 361 853 385 l 853 361 l 853 290 q 853 260 853 268 q 853 251 853 253 q 853 239 853 249 l 853 239 l 853 238 q 852 219 853 229 q 850 202 851 210 q 847 188 849 194 l 847 188 q 758 51 828 101 q 590 0 688 0 l 590 0 z m 367 701 l 367 610 l 525 610 q 583 656 583 610 l 583 656 q 526 701 583 701 l 526 701 l 367 701 z m 367 883 l 367 799 l 497 799 q 556 839 556 799 l 556 839 q 542 871 556 858 q 499 883 528 883 l 499 883 l 367 883 z "},"Ḃ":{"ha":888,"x_min":40,"x_max":853,"o":"m 590 0 l 40 0 l 40 188 q 40 217 40 211 q 40 226 40 224 q 40 238 40 229 l 40 238 l 40 239 q 40 251 40 249 q 40 260 40 253 q 40 290 40 268 l 40 290 l 40 361 q 40 391 40 385 q 40 400 40 397 q 40 411 40 403 l 40 411 l 40 413 q 40 424 40 422 q 40 434 40 426 q 40 464 40 442 l 40 464 l 40 603 q 113 624 93 603 q 133 688 133 646 l 133 688 l 133 790 q 113 858 133 832 q 40 883 93 883 l 40 883 l 40 994 l 639 994 q 690 992 660 994 q 749 977 719 989 q 799 941 779 965 q 818 872 818 917 l 818 872 q 789 801 818 825 q 722 767 760 776 q 658 758 685 758 l 658 758 l 633 758 l 633 746 q 708 738 669 746 q 779 708 746 731 q 833 640 813 685 q 853 521 853 596 l 853 521 l 853 464 q 853 434 853 442 q 853 424 853 426 q 853 413 853 422 l 853 413 l 853 411 q 853 400 853 403 q 853 391 853 397 q 853 361 853 385 l 853 361 l 853 290 q 853 260 853 268 q 853 251 853 253 q 853 239 853 249 l 853 239 l 853 238 q 852 219 853 229 q 850 202 851 210 q 847 188 849 194 l 847 188 q 758 51 828 101 q 590 0 688 0 l 590 0 z m 367 701 l 367 610 l 525 610 q 583 656 583 610 l 583 656 q 526 701 583 701 l 526 701 l 367 701 z m 367 883 l 367 799 l 497 799 q 556 839 556 799 l 556 839 q 542 871 556 858 q 499 883 528 883 l 499 883 l 367 883 z m 447 1043 l 447 1043 q 386 1068 408 1043 q 364 1128 364 1093 l 364 1128 q 388 1186 364 1161 q 449 1211 413 1211 l 449 1211 q 507 1185 482 1211 q 532 1128 532 1160 l 532 1128 q 517 1081 532 1100 q 483 1053 503 1063 q 447 1043 463 1043 z "},"Ḅ":{"ha":888,"x_min":40,"x_max":853,"o":"m 590 0 l 40 0 l 40 188 q 40 217 40 211 q 40 226 40 224 q 40 238 40 229 l 40 238 l 40 239 q 40 251 40 249 q 40 260 40 253 q 40 290 40 268 l 40 290 l 40 361 q 40 391 40 385 q 40 400 40 397 q 40 411 40 403 l 40 411 l 40 413 q 40 424 40 422 q 40 434 40 426 q 40 464 40 442 l 40 464 l 40 603 q 113 624 93 603 q 133 688 133 646 l 133 688 l 133 790 q 113 858 133 832 q 40 883 93 883 l 40 883 l 40 994 l 639 994 q 690 992 660 994 q 749 977 719 989 q 799 941 779 965 q 818 872 818 917 l 818 872 q 789 801 818 825 q 722 767 760 776 q 658 758 685 758 l 658 758 l 633 758 l 633 746 q 708 738 669 746 q 779 708 746 731 q 833 640 813 685 q 853 521 853 596 l 853 521 l 853 464 q 853 434 853 442 q 853 424 853 426 q 853 413 853 422 l 853 413 l 853 411 q 853 400 853 403 q 853 391 853 397 q 853 361 853 385 l 853 361 l 853 290 q 853 260 853 268 q 853 251 853 253 q 853 239 853 249 l 853 239 l 853 238 q 852 219 853 229 q 850 202 851 210 q 847 188 849 194 l 847 188 q 758 51 828 101 q 590 0 688 0 l 590 0 z m 367 701 l 367 610 l 525 610 q 583 656 583 610 l 583 656 q 526 701 583 701 l 526 701 l 367 701 z m 367 883 l 367 799 l 497 799 q 556 839 556 799 l 556 839 q 542 871 556 858 q 499 883 528 883 l 499 883 l 367 883 z m 440 -211 l 440 -211 q 379 -186 401 -211 q 357 -126 357 -161 l 357 -126 q 381 -68 357 -93 q 442 -43 406 -43 l 442 -43 q 500 -69 475 -43 q 525 -126 525 -94 l 525 -126 q 510 -173 525 -154 q 476 -201 496 -192 q 440 -211 456 -211 z "},"Ꞵ":{"ha":888,"x_min":-53,"x_max":853,"o":"m 590 0 l 40 0 l 40 188 q 40 217 40 211 q 40 226 40 224 q 40 238 40 229 l 40 238 l 40 239 q 40 251 40 249 q 40 260 40 253 q 40 290 40 268 l 40 290 l 40 361 q 40 391 40 385 q 40 400 40 397 q 40 411 40 403 l 40 411 l 40 413 q 40 424 40 422 q 40 434 40 426 q 40 464 40 442 l 40 464 l 40 603 q 113 624 93 603 q 133 688 133 646 l 133 688 l 133 790 q 113 858 133 832 q 40 883 93 883 l 40 883 l 40 994 l 639 994 q 690 992 660 994 q 749 977 719 989 q 799 941 779 965 q 818 872 818 917 l 818 872 q 789 801 818 825 q 722 767 760 776 q 658 758 685 758 l 658 758 l 633 758 l 633 746 q 708 738 669 746 q 779 708 746 731 q 833 640 813 685 q 853 521 853 596 l 853 521 l 853 464 q 853 434 853 442 q 853 424 853 426 q 853 413 853 422 l 853 413 l 853 411 q 853 400 853 403 q 853 391 853 397 q 853 361 853 385 l 853 361 l 853 290 q 853 260 853 268 q 853 251 853 253 q 853 239 853 249 l 853 239 l 853 238 q 852 219 853 229 q 850 202 851 210 q 847 188 849 194 l 847 188 q 758 51 828 101 q 590 0 688 0 l 590 0 z m 353 -175 l -53 -175 l -53 -64 q 20 -38 0 -64 q 40 29 40 -12 l 40 29 l 40 188 l 268 182 l 260 182 l 260 36 q 281 -35 260 -6 q 353 -64 301 -64 l 353 -64 l 353 -175 z m 367 701 l 367 610 l 525 610 q 583 656 583 610 l 583 656 q 526 701 583 701 l 526 701 l 367 701 z m 367 883 l 367 799 l 497 799 q 556 839 556 799 l 556 839 q 542 871 556 858 q 499 883 528 883 l 499 883 l 367 883 z "},"Ɓ":{"ha":1008,"x_min":0,"x_max":974,"o":"m 711 0 l 161 0 l 161 188 q 161 217 161 211 q 161 226 161 224 q 161 238 161 229 l 161 238 l 161 239 q 161 251 161 249 q 161 260 161 253 q 161 290 161 268 l 161 290 l 161 361 q 161 391 161 385 q 161 400 161 397 q 161 411 161 403 l 161 411 l 161 413 q 161 424 161 422 q 161 434 161 426 q 161 464 161 442 l 161 464 l 161 603 q 234 624 214 603 q 254 688 254 646 l 254 688 l 254 890 q 171 865 194 890 q 147 800 147 839 l 147 800 q 162 727 147 765 q 194 661 176 689 l 194 661 l 18 661 q 5 713 10 679 q 0 782 0 747 l 0 782 q 11 852 0 815 q 50 922 22 889 q 127 974 78 954 q 254 994 176 994 l 254 994 l 760 994 q 810 992 781 994 q 870 977 840 989 q 919 941 900 965 q 939 872 939 917 l 939 872 q 910 801 939 825 q 843 767 881 776 q 779 758 806 758 l 779 758 l 754 758 l 754 746 q 828 738 790 746 q 900 708 867 731 q 953 640 933 685 q 974 521 974 596 l 974 521 l 974 464 q 974 434 974 442 q 974 424 974 426 q 974 413 974 422 l 974 413 l 974 411 q 974 400 974 403 q 974 391 974 397 q 974 361 974 385 l 974 361 l 974 290 q 974 260 974 268 q 974 251 974 253 q 974 239 974 249 l 974 239 l 974 238 q 973 219 974 229 q 971 202 972 210 q 968 188 969 194 l 968 188 q 878 51 949 101 q 711 0 808 0 l 711 0 z m 488 701 l 488 610 l 646 610 q 704 656 704 610 l 704 656 q 647 701 704 701 l 647 701 l 488 701 z m 488 883 l 488 799 l 618 799 q 676 839 676 799 l 676 839 q 663 871 676 858 q 619 883 649 883 l 619 883 l 488 883 z "},"Ḇ":{"ha":888,"x_min":40,"x_max":853,"o":"m 590 0 l 40 0 l 40 188 q 40 217 40 211 q 40 226 40 224 q 40 238 40 229 l 40 238 l 40 239 q 40 251 40 249 q 40 260 40 253 q 40 290 40 268 l 40 290 l 40 361 q 40 391 40 385 q 40 400 40 397 q 40 411 40 403 l 40 411 l 40 413 q 40 424 40 422 q 40 434 40 426 q 40 464 40 442 l 40 464 l 40 603 q 113 624 93 603 q 133 688 133 646 l 133 688 l 133 790 q 113 858 133 832 q 40 883 93 883 l 40 883 l 40 994 l 639 994 q 690 992 660 994 q 749 977 719 989 q 799 941 779 965 q 818 872 818 917 l 818 872 q 789 801 818 825 q 722 767 760 776 q 658 758 685 758 l 658 758 l 633 758 l 633 746 q 708 738 669 746 q 779 708 746 731 q 833 640 813 685 q 853 521 853 596 l 853 521 l 853 464 q 853 434 853 442 q 853 424 853 426 q 853 413 853 422 l 853 413 l 853 411 q 853 400 853 403 q 853 391 853 397 q 853 361 853 385 l 853 361 l 853 290 q 853 260 853 268 q 853 251 853 253 q 853 239 853 249 l 853 239 l 853 238 q 852 219 853 229 q 850 202 851 210 q 847 188 849 194 l 847 188 q 758 51 828 101 q 590 0 688 0 l 590 0 z m 367 701 l 367 610 l 525 610 q 583 656 583 610 l 583 656 q 526 701 583 701 l 526 701 l 367 701 z m 367 883 l 367 799 l 497 799 q 556 839 556 799 l 556 839 q 542 871 556 858 q 499 883 528 883 l 499 883 l 367 883 z m 646 -167 l 243 -167 l 243 -62 l 646 -62 l 646 -167 z "},"Ƀ":{"ha":888,"x_min":40,"x_max":853,"o":"m 590 0 l 40 0 l 40 188 q 40 217 40 211 q 40 226 40 224 q 40 238 40 229 l 40 238 l 40 239 q 40 251 40 249 q 40 260 40 253 q 40 290 40 268 l 40 290 l 40 361 q 40 391 40 385 q 40 400 40 397 q 40 411 40 403 l 40 411 l 40 413 q 40 424 40 422 q 40 434 40 426 q 40 464 40 442 l 40 464 l 40 603 q 113 624 93 603 q 133 688 133 646 l 133 688 l 133 790 q 113 858 133 832 q 40 883 93 883 l 40 883 l 40 994 l 639 994 q 690 992 660 994 q 749 977 719 989 q 799 941 779 965 q 818 872 818 917 l 818 872 q 789 801 818 825 q 722 767 760 776 q 658 758 685 758 l 658 758 l 633 758 l 633 746 q 708 738 669 746 q 779 708 746 731 q 833 640 813 685 q 853 521 853 596 l 853 521 l 853 464 q 853 434 853 442 q 853 424 853 426 q 853 413 853 422 l 853 413 l 853 411 q 853 400 853 403 q 853 391 853 397 q 853 361 853 385 l 853 361 l 853 290 q 853 260 853 268 q 853 251 853 253 q 853 239 853 249 l 853 239 l 853 238 q 852 219 853 229 q 850 202 851 210 q 847 188 849 194 l 847 188 q 758 51 828 101 q 590 0 688 0 l 590 0 z m 200 665 l 40 665 l 200 665 z m 200 665 l 40 665 l 40 754 l 200 754 l 200 665 z m 367 701 l 367 610 l 525 610 q 583 656 583 610 l 583 656 q 526 701 583 701 l 526 701 l 367 701 z m 367 883 l 367 799 l 497 799 q 556 839 556 799 l 556 839 q 542 871 556 858 q 499 883 528 883 l 499 883 l 367 883 z "},"C":{"ha":856,"x_min":40,"x_max":815,"o":"m 553 -8 l 303 -8 q 135 47 206 -8 q 46 188 65 101 l 46 188 q 43 202 44 194 q 41 219 42 210 q 40 236 40 228 l 40 236 l 40 238 q 40 249 40 247 q 40 259 40 251 q 40 290 40 267 l 40 290 l 40 361 q 40 391 40 385 q 40 400 40 397 q 40 411 40 403 l 40 411 l 40 413 q 40 424 40 422 q 40 434 40 426 q 40 464 40 442 l 40 464 l 40 744 q 75 878 40 819 q 169 969 110 936 q 303 1003 228 1003 l 303 1003 l 592 1003 q 706 974 656 1003 q 785 894 756 944 q 815 783 815 844 l 815 783 l 588 783 q 493 883 588 883 l 493 883 l 415 883 q 321 790 321 883 l 321 790 l 321 683 q 385 610 321 610 l 385 610 q 426 625 407 610 q 449 696 444 640 l 449 696 l 458 696 q 482 625 463 640 q 524 610 501 610 l 524 610 q 588 694 588 610 l 588 694 l 815 694 l 815 464 q 815 434 815 442 q 815 424 815 426 q 815 413 815 422 l 815 413 l 815 411 q 815 400 815 403 q 815 391 815 397 q 815 361 815 385 l 815 361 l 815 290 q 815 260 815 268 q 815 251 815 253 q 815 239 815 249 l 815 239 l 815 238 q 815 219 815 229 q 813 202 814 210 q 810 188 811 194 l 810 188 q 720 47 790 101 q 553 -8 650 -8 l 553 -8 z "},"Ć":{"ha":856,"x_min":40,"x_max":815,"o":"m 553 -8 l 303 -8 q 135 47 206 -8 q 46 188 65 101 l 46 188 q 43 202 44 194 q 41 219 42 210 q 40 236 40 228 l 40 236 l 40 238 q 40 249 40 247 q 40 259 40 251 q 40 290 40 267 l 40 290 l 40 361 q 40 391 40 385 q 40 400 40 397 q 40 411 40 403 l 40 411 l 40 413 q 40 424 40 422 q 40 434 40 426 q 40 464 40 442 l 40 464 l 40 744 q 75 878 40 819 q 169 969 110 936 q 303 1003 228 1003 l 303 1003 l 592 1003 q 706 974 656 1003 q 785 894 756 944 q 815 783 815 844 l 815 783 l 588 783 q 493 883 588 883 l 493 883 l 415 883 q 321 790 321 883 l 321 790 l 321 683 q 385 610 321 610 l 385 610 q 426 625 407 610 q 449 696 444 640 l 449 696 l 458 696 q 482 625 463 640 q 524 610 501 610 l 524 610 q 588 694 588 610 l 588 694 l 815 694 l 815 464 q 815 434 815 442 q 815 424 815 426 q 815 413 815 422 l 815 413 l 815 411 q 815 400 815 403 q 815 391 815 397 q 815 361 815 385 l 815 361 l 815 290 q 815 260 815 268 q 815 251 815 253 q 815 239 815 249 l 815 239 l 815 238 q 815 219 815 229 q 813 202 814 210 q 810 188 811 194 l 810 188 q 720 47 790 101 q 553 -8 650 -8 l 553 -8 z m 504 1051 l 372 1051 l 478 1213 l 653 1213 l 504 1051 z "},"Č":{"ha":856,"x_min":40,"x_max":815,"o":"m 553 -8 l 303 -8 q 135 47 206 -8 q 46 188 65 101 l 46 188 q 43 202 44 194 q 41 219 42 210 q 40 236 40 228 l 40 236 l 40 238 q 40 249 40 247 q 40 259 40 251 q 40 290 40 267 l 40 290 l 40 361 q 40 391 40 385 q 40 400 40 397 q 40 411 40 403 l 40 411 l 40 413 q 40 424 40 422 q 40 434 40 426 q 40 464 40 442 l 40 464 l 40 744 q 75 878 40 819 q 169 969 110 936 q 303 1003 228 1003 l 303 1003 l 592 1003 q 706 974 656 1003 q 785 894 756 944 q 815 783 815 844 l 815 783 l 588 783 q 493 883 588 883 l 493 883 l 415 883 q 321 790 321 883 l 321 790 l 321 683 q 385 610 321 610 l 385 610 q 426 625 407 610 q 449 696 444 640 l 449 696 l 458 696 q 482 625 463 640 q 524 610 501 610 l 524 610 q 588 694 588 610 l 588 694 l 815 694 l 815 464 q 815 434 815 442 q 815 424 815 426 q 815 413 815 422 l 815 413 l 815 411 q 815 400 815 403 q 815 391 815 397 q 815 361 815 385 l 815 361 l 815 290 q 815 260 815 268 q 815 251 815 253 q 815 239 815 249 l 815 239 l 815 238 q 815 219 815 229 q 813 202 814 210 q 810 188 811 194 l 810 188 q 720 47 790 101 q 553 -8 650 -8 l 553 -8 z m 532 1051 l 347 1051 l 254 1225 l 365 1225 l 442 1132 l 522 1231 l 631 1231 l 532 1051 z "},"Ç":{"ha":856,"x_min":40,"x_max":815,"o":"m 553 -8 l 303 -8 q 135 47 206 -8 q 46 188 65 101 l 46 188 q 43 202 44 194 q 41 219 42 210 q 40 236 40 228 l 40 236 l 40 238 q 40 249 40 247 q 40 259 40 251 q 40 290 40 267 l 40 290 l 40 361 q 40 391 40 385 q 40 400 40 397 q 40 411 40 403 l 40 411 l 40 413 q 40 424 40 422 q 40 434 40 426 q 40 464 40 442 l 40 464 l 40 744 q 75 878 40 819 q 169 969 110 936 q 303 1003 228 1003 l 303 1003 l 592 1003 q 706 974 656 1003 q 785 894 756 944 q 815 783 815 844 l 815 783 l 588 783 q 493 883 588 883 l 493 883 l 415 883 q 321 790 321 883 l 321 790 l 321 683 q 385 610 321 610 l 385 610 q 426 625 407 610 q 449 696 444 640 l 449 696 l 458 696 q 482 625 463 640 q 524 610 501 610 l 524 610 q 588 694 588 610 l 588 694 l 815 694 l 815 464 q 815 434 815 442 q 815 424 815 426 q 815 413 815 422 l 815 413 l 815 411 q 815 400 815 403 q 815 391 815 397 q 815 361 815 385 l 815 361 l 815 290 q 815 260 815 268 q 815 251 815 253 q 815 239 815 249 l 815 239 l 815 238 q 815 219 815 229 q 813 202 814 210 q 810 188 811 194 l 810 188 q 720 47 790 101 q 553 -8 650 -8 l 553 -8 z m 440 -290 l 440 -290 q 375 -278 408 -290 q 322 -247 342 -265 l 322 -247 l 322 -149 q 363 -188 339 -174 q 410 -203 388 -203 l 410 -203 q 450 -191 433 -203 q 467 -157 467 -179 l 467 -157 q 433 -106 467 -126 q 349 -86 399 -86 l 349 -86 l 407 0 l 532 0 l 492 -43 q 565 -87 542 -54 q 588 -157 588 -119 l 588 -157 q 544 -253 588 -215 q 440 -290 500 -290 z "},"Ḉ":{"ha":856,"x_min":40,"x_max":815,"o":"m 553 -8 l 303 -8 q 135 47 206 -8 q 46 188 65 101 l 46 188 q 43 202 44 194 q 41 219 42 210 q 40 236 40 228 l 40 236 l 40 238 q 40 249 40 247 q 40 259 40 251 q 40 290 40 267 l 40 290 l 40 361 q 40 391 40 385 q 40 400 40 397 q 40 411 40 403 l 40 411 l 40 413 q 40 424 40 422 q 40 434 40 426 q 40 464 40 442 l 40 464 l 40 744 q 75 878 40 819 q 169 969 110 936 q 303 1003 228 1003 l 303 1003 l 592 1003 q 706 974 656 1003 q 785 894 756 944 q 815 783 815 844 l 815 783 l 588 783 q 493 883 588 883 l 493 883 l 415 883 q 321 790 321 883 l 321 790 l 321 683 q 385 610 321 610 l 385 610 q 426 625 407 610 q 449 696 444 640 l 449 696 l 458 696 q 482 625 463 640 q 524 610 501 610 l 524 610 q 588 694 588 610 l 588 694 l 815 694 l 815 464 q 815 434 815 442 q 815 424 815 426 q 815 413 815 422 l 815 413 l 815 411 q 815 400 815 403 q 815 391 815 397 q 815 361 815 385 l 815 361 l 815 290 q 815 260 815 268 q 815 251 815 253 q 815 239 815 249 l 815 239 l 815 238 q 815 219 815 229 q 813 202 814 210 q 810 188 811 194 l 810 188 q 720 47 790 101 q 553 -8 650 -8 l 553 -8 z m 504 1051 l 372 1051 l 478 1213 l 653 1213 l 504 1051 z m 440 -290 l 440 -290 q 375 -278 408 -290 q 322 -247 342 -265 l 322 -247 l 322 -149 q 363 -188 339 -174 q 410 -203 388 -203 l 410 -203 q 450 -191 433 -203 q 467 -157 467 -179 l 467 -157 q 433 -106 467 -126 q 349 -86 399 -86 l 349 -86 l 407 0 l 532 0 l 492 -43 q 565 -87 542 -54 q 588 -157 588 -119 l 588 -157 q 544 -253 588 -215 q 440 -290 500 -290 z "},"Ĉ":{"ha":856,"x_min":40,"x_max":815,"o":"m 553 -8 l 303 -8 q 135 47 206 -8 q 46 188 65 101 l 46 188 q 43 202 44 194 q 41 219 42 210 q 40 236 40 228 l 40 236 l 40 238 q 40 249 40 247 q 40 259 40 251 q 40 290 40 267 l 40 290 l 40 361 q 40 391 40 385 q 40 400 40 397 q 40 411 40 403 l 40 411 l 40 413 q 40 424 40 422 q 40 434 40 426 q 40 464 40 442 l 40 464 l 40 744 q 75 878 40 819 q 169 969 110 936 q 303 1003 228 1003 l 303 1003 l 592 1003 q 706 974 656 1003 q 785 894 756 944 q 815 783 815 844 l 815 783 l 588 783 q 493 883 588 883 l 493 883 l 415 883 q 321 790 321 883 l 321 790 l 321 683 q 385 610 321 610 l 385 610 q 426 625 407 610 q 449 696 444 640 l 449 696 l 458 696 q 482 625 463 640 q 524 610 501 610 l 524 610 q 588 694 588 610 l 588 694 l 815 694 l 815 464 q 815 434 815 442 q 815 424 815 426 q 815 413 815 422 l 815 413 l 815 411 q 815 400 815 403 q 815 391 815 397 q 815 361 815 385 l 815 361 l 815 290 q 815 260 815 268 q 815 251 815 253 q 815 239 815 249 l 815 239 l 815 238 q 815 219 815 229 q 813 202 814 210 q 810 188 811 194 l 810 188 q 720 47 790 101 q 553 -8 650 -8 l 553 -8 z m 364 1051 l 250 1051 l 353 1228 l 533 1228 l 642 1051 l 531 1051 l 442 1139 l 364 1051 z "},"Ċ":{"ha":856,"x_min":40,"x_max":815,"o":"m 553 -8 l 303 -8 q 135 47 206 -8 q 46 188 65 101 l 46 188 q 43 202 44 194 q 41 219 42 210 q 40 236 40 228 l 40 236 l 40 238 q 40 249 40 247 q 40 259 40 251 q 40 290 40 267 l 40 290 l 40 361 q 40 391 40 385 q 40 400 40 397 q 40 411 40 403 l 40 411 l 40 413 q 40 424 40 422 q 40 434 40 426 q 40 464 40 442 l 40 464 l 40 744 q 75 878 40 819 q 169 969 110 936 q 303 1003 228 1003 l 303 1003 l 592 1003 q 706 974 656 1003 q 785 894 756 944 q 815 783 815 844 l 815 783 l 588 783 q 493 883 588 883 l 493 883 l 415 883 q 321 790 321 883 l 321 790 l 321 683 q 385 610 321 610 l 385 610 q 426 625 407 610 q 449 696 444 640 l 449 696 l 458 696 q 482 625 463 640 q 524 610 501 610 l 524 610 q 588 694 588 610 l 588 694 l 815 694 l 815 464 q 815 434 815 442 q 815 424 815 426 q 815 413 815 422 l 815 413 l 815 411 q 815 400 815 403 q 815 391 815 397 q 815 361 815 385 l 815 361 l 815 290 q 815 260 815 268 q 815 251 815 253 q 815 239 815 249 l 815 239 l 815 238 q 815 219 815 229 q 813 202 814 210 q 810 188 811 194 l 810 188 q 720 47 790 101 q 553 -8 650 -8 l 553 -8 z m 442 1043 l 442 1043 q 381 1068 403 1043 q 358 1128 358 1093 l 358 1128 q 383 1186 358 1161 q 443 1211 407 1211 l 443 1211 q 501 1185 476 1211 q 526 1128 526 1160 l 526 1128 q 512 1081 526 1100 q 477 1053 497 1063 q 442 1043 457 1043 z "},"Ꭓ":{"ha":963,"x_min":38,"x_max":925,"o":"m 749 -8 l 749 -8 q 609 14 657 -8 q 544 76 561 36 q 526 165 526 115 l 526 165 l 526 188 q 526 217 526 211 q 526 226 526 224 q 526 238 526 229 l 526 238 l 526 239 q 526 251 526 249 q 526 260 526 253 q 526 290 526 268 l 526 290 l 526 361 q 526 391 526 385 q 526 400 526 397 q 526 411 526 403 l 526 411 l 526 413 q 526 423 526 419 q 526 435 526 426 q 526 464 526 444 l 526 464 l 526 569 q 522 605 526 594 q 500 626 518 615 l 500 626 l 424 675 l 357 636 q 347 622 347 631 l 347 622 q 364 610 347 610 l 364 610 l 408 610 l 408 0 l 38 0 l 38 188 q 38 217 38 211 q 38 226 38 224 q 38 238 38 229 l 38 238 l 38 239 q 38 251 38 249 q 38 260 38 253 q 38 290 38 268 l 38 290 l 38 361 q 38 391 38 385 q 38 400 38 397 q 38 411 38 403 l 38 411 l 38 413 q 38 424 38 422 q 38 434 38 426 q 38 464 38 442 l 38 464 l 38 603 q 108 607 82 603 q 150 621 133 611 l 150 621 l 335 732 l 335 735 l 158 844 q 101 875 124 867 q 60 883 79 883 l 60 883 l 38 883 l 38 994 l 468 994 l 468 876 l 440 876 q 428 867 428 876 l 428 867 q 442 850 428 860 l 442 850 l 504 807 l 575 846 q 588 861 588 853 l 588 861 q 564 876 588 876 l 564 876 l 544 876 l 544 994 l 901 994 l 901 883 l 882 883 q 790 860 833 883 l 790 860 l 607 756 l 607 753 l 822 626 q 863 610 842 617 q 899 603 883 603 l 899 603 l 925 603 l 925 0 q 870 -5 903 -3 q 804 -8 838 -7 q 749 -8 771 -8 z "},"Ƈ":{"ha":856,"x_min":40,"x_max":989,"o":"m 553 -8 l 303 -8 q 135 47 206 -8 q 46 188 65 101 l 46 188 q 43 202 44 194 q 41 219 42 210 q 40 236 40 228 l 40 236 l 40 238 q 40 249 40 247 q 40 259 40 251 q 40 290 40 267 l 40 290 l 40 361 q 40 391 40 385 q 40 400 40 397 q 40 411 40 403 l 40 411 l 40 413 q 40 424 40 422 q 40 434 40 426 q 40 464 40 442 l 40 464 l 40 744 q 75 878 40 819 q 169 969 110 936 q 303 1003 228 1003 l 303 1003 l 592 1003 q 706 974 656 1003 q 785 894 756 944 q 815 783 815 844 l 815 783 l 588 783 q 493 883 588 883 l 493 883 l 415 883 q 321 790 321 883 l 321 790 l 321 683 q 385 610 321 610 l 385 610 q 426 625 407 610 q 449 696 444 640 l 449 696 l 458 696 q 482 625 463 640 q 524 610 501 610 l 524 610 q 588 694 588 610 l 588 694 l 815 694 l 815 464 q 815 434 815 442 q 815 424 815 426 q 815 413 815 422 l 815 413 l 815 411 q 815 400 815 403 q 815 391 815 397 q 815 361 815 385 l 815 361 l 815 290 q 815 260 815 268 q 815 251 815 253 q 815 239 815 249 l 815 239 l 815 238 q 815 219 815 229 q 813 202 814 210 q 810 188 811 194 l 810 188 q 720 47 790 101 q 553 -8 650 -8 l 553 -8 z m 815 783 l 700 783 l 700 972 q 756 1160 700 1100 q 906 1221 811 1221 l 906 1221 q 989 1203 950 1221 l 989 1203 l 989 1040 q 944 1061 969 1053 q 896 1069 919 1069 l 896 1069 q 838 1047 860 1069 q 815 972 815 1024 l 815 972 l 815 783 z "},"Ȼ":{"ha":856,"x_min":40,"x_max":815,"o":"m 664 932 l 532 933 l 639 1100 l 764 1099 l 664 932 z m 217 -83 l 92 -82 l 165 82 l 297 79 l 217 -83 z m 553 -8 l 303 -8 q 135 47 206 -8 q 46 188 65 101 l 46 188 q 43 202 44 194 q 41 219 42 210 q 40 236 40 228 l 40 236 l 40 238 q 40 249 40 247 q 40 259 40 251 q 40 290 40 267 l 40 290 l 40 361 q 40 391 40 385 q 40 400 40 397 q 40 411 40 403 l 40 411 l 40 413 q 40 424 40 422 q 40 434 40 426 q 40 464 40 442 l 40 464 l 40 744 q 75 878 40 819 q 169 969 110 936 q 303 1003 228 1003 l 303 1003 l 592 1003 q 706 974 656 1003 q 785 894 756 944 q 815 783 815 844 l 815 783 l 588 783 q 493 883 588 883 l 493 883 l 415 883 q 321 790 321 883 l 321 790 l 321 683 q 385 610 321 610 l 385 610 q 426 625 407 610 q 449 696 444 640 l 449 696 l 458 696 q 482 625 463 640 q 524 610 501 610 l 524 610 q 588 694 588 610 l 588 694 l 815 694 l 815 464 q 815 434 815 442 q 815 424 815 426 q 815 413 815 422 l 815 413 l 815 411 q 815 400 815 403 q 815 391 815 397 q 815 361 815 385 l 815 361 l 815 290 q 815 260 815 268 q 815 251 815 253 q 815 239 815 249 l 815 239 l 815 238 q 815 219 815 229 q 813 202 814 210 q 810 188 811 194 l 810 188 q 720 47 790 101 q 553 -8 650 -8 l 553 -8 z "},"D":{"ha":865,"x_min":40,"x_max":825,"o":"m 563 0 l 40 0 l 40 188 q 40 217 40 211 q 40 226 40 224 q 40 238 40 229 l 40 238 l 40 239 q 40 251 40 249 q 40 260 40 253 q 40 290 40 268 l 40 290 l 40 361 q 40 391 40 385 q 40 400 40 397 q 40 411 40 403 l 40 411 l 40 413 q 40 424 40 422 q 40 434 40 426 q 40 464 40 442 l 40 464 l 40 603 q 113 624 93 603 q 133 688 133 646 l 133 688 l 133 790 q 113 858 133 832 q 40 883 93 883 l 40 883 l 40 994 l 563 994 q 698 961 639 994 q 791 869 757 928 q 825 736 825 811 l 825 736 l 825 464 q 825 434 825 442 q 825 424 825 426 q 825 413 825 422 l 825 413 l 825 411 q 825 400 825 403 q 825 391 825 397 q 825 361 825 385 l 825 361 l 825 290 q 825 260 825 268 q 825 251 825 253 q 825 239 825 249 l 825 239 l 825 238 q 824 219 825 229 q 822 202 824 210 q 819 188 821 194 l 819 188 q 730 51 800 101 q 563 0 660 0 l 563 0 z m 367 883 l 367 610 l 464 610 q 538 631 517 610 q 558 703 558 651 l 558 703 l 558 790 q 538 863 558 843 q 464 883 517 883 l 464 883 l 367 883 z "},"Ď":{"ha":865,"x_min":40,"x_max":825,"o":"m 563 0 l 40 0 l 40 188 q 40 217 40 211 q 40 226 40 224 q 40 238 40 229 l 40 238 l 40 239 q 40 251 40 249 q 40 260 40 253 q 40 290 40 268 l 40 290 l 40 361 q 40 391 40 385 q 40 400 40 397 q 40 411 40 403 l 40 411 l 40 413 q 40 424 40 422 q 40 434 40 426 q 40 464 40 442 l 40 464 l 40 603 q 113 624 93 603 q 133 688 133 646 l 133 688 l 133 790 q 113 858 133 832 q 40 883 93 883 l 40 883 l 40 994 l 563 994 q 698 961 639 994 q 791 869 757 928 q 825 736 825 811 l 825 736 l 825 464 q 825 434 825 442 q 825 424 825 426 q 825 413 825 422 l 825 413 l 825 411 q 825 400 825 403 q 825 391 825 397 q 825 361 825 385 l 825 361 l 825 290 q 825 260 825 268 q 825 251 825 253 q 825 239 825 249 l 825 239 l 825 238 q 824 219 825 229 q 822 202 824 210 q 819 188 821 194 l 819 188 q 730 51 800 101 q 563 0 660 0 l 563 0 z m 367 883 l 367 610 l 464 610 q 538 631 517 610 q 558 703 558 651 l 558 703 l 558 790 q 538 863 558 843 q 464 883 517 883 l 464 883 l 367 883 z m 538 1051 l 353 1051 l 260 1225 l 371 1225 l 447 1132 l 528 1231 l 636 1231 l 538 1051 z "},"Ḑ":{"ha":865,"x_min":40,"x_max":825,"o":"m 563 0 l 40 0 l 40 188 q 40 217 40 211 q 40 226 40 224 q 40 238 40 229 l 40 238 l 40 239 q 40 251 40 249 q 40 260 40 253 q 40 290 40 268 l 40 290 l 40 361 q 40 391 40 385 q 40 400 40 397 q 40 411 40 403 l 40 411 l 40 413 q 40 424 40 422 q 40 434 40 426 q 40 464 40 442 l 40 464 l 40 603 q 113 624 93 603 q 133 688 133 646 l 133 688 l 133 790 q 113 858 133 832 q 40 883 93 883 l 40 883 l 40 994 l 563 994 q 698 961 639 994 q 791 869 757 928 q 825 736 825 811 l 825 736 l 825 464 q 825 434 825 442 q 825 424 825 426 q 825 413 825 422 l 825 413 l 825 411 q 825 400 825 403 q 825 391 825 397 q 825 361 825 385 l 825 361 l 825 290 q 825 260 825 268 q 825 251 825 253 q 825 239 825 249 l 825 239 l 825 238 q 824 219 825 229 q 822 202 824 210 q 819 188 821 194 l 819 188 q 730 51 800 101 q 563 0 660 0 l 563 0 z m 367 883 l 367 610 l 464 610 q 538 631 517 610 q 558 703 558 651 l 558 703 l 558 790 q 538 863 558 843 q 464 883 517 883 l 464 883 l 367 883 z m 372 -304 l 372 -304 l 364 -292 q 406 -249 396 -274 q 415 -212 415 -224 l 415 -212 q 360 -191 383 -212 q 336 -132 336 -169 l 336 -132 q 362 -67 336 -92 q 421 -43 388 -43 l 421 -43 q 461 -51 439 -43 q 500 -81 483 -58 q 517 -144 517 -103 l 517 -144 q 503 -205 517 -169 q 459 -269 490 -240 q 372 -304 428 -297 z "},"Ḓ":{"ha":865,"x_min":40,"x_max":825,"o":"m 563 0 l 40 0 l 40 188 q 40 217 40 211 q 40 226 40 224 q 40 238 40 229 l 40 238 l 40 239 q 40 251 40 249 q 40 260 40 253 q 40 290 40 268 l 40 290 l 40 361 q 40 391 40 385 q 40 400 40 397 q 40 411 40 403 l 40 411 l 40 413 q 40 424 40 422 q 40 434 40 426 q 40 464 40 442 l 40 464 l 40 603 q 113 624 93 603 q 133 688 133 646 l 133 688 l 133 790 q 113 858 133 832 q 40 883 93 883 l 40 883 l 40 994 l 563 994 q 698 961 639 994 q 791 869 757 928 q 825 736 825 811 l 825 736 l 825 464 q 825 434 825 442 q 825 424 825 426 q 825 413 825 422 l 825 413 l 825 411 q 825 400 825 403 q 825 391 825 397 q 825 361 825 385 l 825 361 l 825 290 q 825 260 825 268 q 825 251 825 253 q 825 239 825 249 l 825 239 l 825 238 q 824 219 825 229 q 822 202 824 210 q 819 188 821 194 l 819 188 q 730 51 800 101 q 563 0 660 0 l 563 0 z m 367 883 l 367 610 l 464 610 q 538 631 517 610 q 558 703 558 651 l 558 703 l 558 790 q 538 863 558 843 q 464 883 517 883 l 464 883 l 367 883 z m 613 -237 l 501 -239 l 414 -135 l 340 -237 l 228 -235 l 328 -56 l 506 -56 l 613 -237 z "},"Đ":{"ha":865,"x_min":40,"x_max":825,"o":"m 563 0 l 40 0 l 40 188 q 40 217 40 211 q 40 226 40 224 q 40 238 40 229 l 40 238 l 40 239 q 40 251 40 249 q 40 260 40 253 q 40 290 40 268 l 40 290 l 40 361 q 40 391 40 385 q 40 400 40 397 q 40 411 40 403 l 40 411 l 40 413 q 40 424 40 422 q 40 434 40 426 q 40 464 40 442 l 40 464 l 40 603 q 113 624 93 603 q 133 688 133 646 l 133 688 l 133 790 q 113 858 133 832 q 40 883 93 883 l 40 883 l 40 994 l 563 994 q 698 961 639 994 q 791 869 757 928 q 825 736 825 811 l 825 736 l 825 464 q 825 434 825 442 q 825 424 825 426 q 825 413 825 422 l 825 413 l 825 411 q 825 400 825 403 q 825 391 825 397 q 825 361 825 385 l 825 361 l 825 290 q 825 260 825 268 q 825 251 825 253 q 825 239 825 249 l 825 239 l 825 238 q 824 219 825 229 q 822 202 824 210 q 819 188 821 194 l 819 188 q 730 51 800 101 q 563 0 660 0 l 563 0 z m 449 696 l 43 696 l 43 793 l 449 793 l 449 696 z m 367 883 l 367 610 l 464 610 q 538 631 517 610 q 558 703 558 651 l 558 703 l 558 790 q 538 863 558 843 q 464 883 517 883 l 464 883 l 367 883 z "},"Ḋ":{"ha":865,"x_min":40,"x_max":825,"o":"m 563 0 l 40 0 l 40 188 q 40 217 40 211 q 40 226 40 224 q 40 238 40 229 l 40 238 l 40 239 q 40 251 40 249 q 40 260 40 253 q 40 290 40 268 l 40 290 l 40 361 q 40 391 40 385 q 40 400 40 397 q 40 411 40 403 l 40 411 l 40 413 q 40 424 40 422 q 40 434 40 426 q 40 464 40 442 l 40 464 l 40 603 q 113 624 93 603 q 133 688 133 646 l 133 688 l 133 790 q 113 858 133 832 q 40 883 93 883 l 40 883 l 40 994 l 563 994 q 698 961 639 994 q 791 869 757 928 q 825 736 825 811 l 825 736 l 825 464 q 825 434 825 442 q 825 424 825 426 q 825 413 825 422 l 825 413 l 825 411 q 825 400 825 403 q 825 391 825 397 q 825 361 825 385 l 825 361 l 825 290 q 825 260 825 268 q 825 251 825 253 q 825 239 825 249 l 825 239 l 825 238 q 824 219 825 229 q 822 202 824 210 q 819 188 821 194 l 819 188 q 730 51 800 101 q 563 0 660 0 l 563 0 z m 367 883 l 367 610 l 464 610 q 538 631 517 610 q 558 703 558 651 l 558 703 l 558 790 q 538 863 558 843 q 464 883 517 883 l 464 883 l 367 883 z m 447 1043 l 447 1043 q 386 1068 408 1043 q 364 1128 364 1093 l 364 1128 q 388 1186 364 1161 q 449 1211 413 1211 l 449 1211 q 507 1185 482 1211 q 532 1128 532 1160 l 532 1128 q 517 1081 532 1100 q 483 1053 503 1063 q 447 1043 463 1043 z "},"Ḍ":{"ha":865,"x_min":40,"x_max":825,"o":"m 563 0 l 40 0 l 40 188 q 40 217 40 211 q 40 226 40 224 q 40 238 40 229 l 40 238 l 40 239 q 40 251 40 249 q 40 260 40 253 q 40 290 40 268 l 40 290 l 40 361 q 40 391 40 385 q 40 400 40 397 q 40 411 40 403 l 40 411 l 40 413 q 40 424 40 422 q 40 434 40 426 q 40 464 40 442 l 40 464 l 40 603 q 113 624 93 603 q 133 688 133 646 l 133 688 l 133 790 q 113 858 133 832 q 40 883 93 883 l 40 883 l 40 994 l 563 994 q 698 961 639 994 q 791 869 757 928 q 825 736 825 811 l 825 736 l 825 464 q 825 434 825 442 q 825 424 825 426 q 825 413 825 422 l 825 413 l 825 411 q 825 400 825 403 q 825 391 825 397 q 825 361 825 385 l 825 361 l 825 290 q 825 260 825 268 q 825 251 825 253 q 825 239 825 249 l 825 239 l 825 238 q 824 219 825 229 q 822 202 824 210 q 819 188 821 194 l 819 188 q 730 51 800 101 q 563 0 660 0 l 563 0 z m 367 883 l 367 610 l 464 610 q 538 631 517 610 q 558 703 558 651 l 558 703 l 558 790 q 538 863 558 843 q 464 883 517 883 l 464 883 l 367 883 z m 421 -211 l 421 -211 q 360 -186 382 -211 q 338 -126 338 -161 l 338 -126 q 362 -68 338 -93 q 422 -43 386 -43 l 422 -43 q 481 -69 456 -43 q 506 -126 506 -94 l 506 -126 q 491 -173 506 -154 q 456 -201 476 -192 q 421 -211 436 -211 z "},"Ɗ":{"ha":975,"x_min":-11,"x_max":935,"o":"m 672 0 l 150 0 l 150 188 q 150 217 150 211 q 150 226 150 224 q 150 238 150 229 l 150 238 l 150 239 q 150 251 150 249 q 150 260 150 253 q 150 290 150 268 l 150 290 l 150 361 q 150 391 150 385 q 150 400 150 397 q 150 411 150 403 l 150 411 l 150 413 q 150 424 150 422 q 150 434 150 426 q 150 464 150 442 l 150 464 l 150 603 q 223 624 203 603 q 243 688 243 646 l 243 688 l 243 890 q 160 865 183 890 q 136 800 136 839 l 136 800 q 151 727 136 765 q 183 661 165 689 l 183 661 l 7 661 q -6 713 -1 679 q -11 782 -11 747 l -11 782 q 0 852 -11 815 q 39 922 11 889 q 116 974 67 954 q 243 994 165 994 l 243 994 l 672 994 q 808 961 749 994 q 901 869 867 928 q 935 736 935 811 l 935 736 l 935 464 q 935 434 935 442 q 935 424 935 426 q 935 413 935 422 l 935 413 l 935 411 q 935 400 935 403 q 935 391 935 397 q 935 361 935 385 l 935 361 l 935 290 q 935 260 935 268 q 935 251 935 253 q 935 239 935 249 l 935 239 l 935 238 q 934 219 935 229 q 932 202 933 210 q 929 188 931 194 l 929 188 q 840 51 910 101 q 672 0 769 0 l 672 0 z m 476 883 l 476 610 l 574 610 q 647 631 626 610 q 668 703 668 651 l 668 703 l 668 790 q 647 863 668 843 q 574 883 626 883 l 574 883 l 476 883 z "},"Ḏ":{"ha":865,"x_min":40,"x_max":825,"o":"m 563 0 l 40 0 l 40 188 q 40 217 40 211 q 40 226 40 224 q 40 238 40 229 l 40 238 l 40 239 q 40 251 40 249 q 40 260 40 253 q 40 290 40 268 l 40 290 l 40 361 q 40 391 40 385 q 40 400 40 397 q 40 411 40 403 l 40 411 l 40 413 q 40 424 40 422 q 40 434 40 426 q 40 464 40 442 l 40 464 l 40 603 q 113 624 93 603 q 133 688 133 646 l 133 688 l 133 790 q 113 858 133 832 q 40 883 93 883 l 40 883 l 40 994 l 563 994 q 698 961 639 994 q 791 869 757 928 q 825 736 825 811 l 825 736 l 825 464 q 825 434 825 442 q 825 424 825 426 q 825 413 825 422 l 825 413 l 825 411 q 825 400 825 403 q 825 391 825 397 q 825 361 825 385 l 825 361 l 825 290 q 825 260 825 268 q 825 251 825 253 q 825 239 825 249 l 825 239 l 825 238 q 824 219 825 229 q 822 202 824 210 q 819 188 821 194 l 819 188 q 730 51 800 101 q 563 0 660 0 l 563 0 z m 367 883 l 367 610 l 464 610 q 538 631 517 610 q 558 703 558 651 l 558 703 l 558 790 q 538 863 558 843 q 464 883 517 883 l 464 883 l 367 883 z m 626 -167 l 224 -167 l 224 -62 l 626 -62 l 626 -167 z "},"Ɖ":{"ha":865,"x_min":40,"x_max":825,"o":"m 563 0 l 40 0 l 40 188 q 40 217 40 211 q 40 226 40 224 q 40 238 40 229 l 40 238 l 40 239 q 40 251 40 249 q 40 260 40 253 q 40 290 40 268 l 40 290 l 40 361 q 40 391 40 385 q 40 400 40 397 q 40 411 40 403 l 40 411 l 40 413 q 40 424 40 422 q 40 434 40 426 q 40 464 40 442 l 40 464 l 40 603 q 113 624 93 603 q 133 688 133 646 l 133 688 l 133 790 q 113 858 133 832 q 40 883 93 883 l 40 883 l 40 994 l 563 994 q 698 961 639 994 q 791 869 757 928 q 825 736 825 811 l 825 736 l 825 464 q 825 434 825 442 q 825 424 825 426 q 825 413 825 422 l 825 413 l 825 411 q 825 400 825 403 q 825 391 825 397 q 825 361 825 385 l 825 361 l 825 290 q 825 260 825 268 q 825 251 825 253 q 825 239 825 249 l 825 239 l 825 238 q 824 219 825 229 q 822 202 824 210 q 819 188 821 194 l 819 188 q 730 51 800 101 q 563 0 660 0 l 563 0 z m 449 696 l 43 696 l 43 793 l 449 793 l 449 696 z m 367 883 l 367 610 l 464 610 q 538 631 517 610 q 558 703 558 651 l 558 703 l 558 790 q 538 863 558 843 q 464 883 517 883 l 464 883 l 367 883 z "},"Ð":{"ha":865,"x_min":40,"x_max":825,"o":"m 563 0 l 40 0 l 40 188 q 40 217 40 211 q 40 226 40 224 q 40 238 40 229 l 40 238 l 40 239 q 40 251 40 249 q 40 260 40 253 q 40 290 40 268 l 40 290 l 40 361 q 40 391 40 385 q 40 400 40 397 q 40 411 40 403 l 40 411 l 40 413 q 40 424 40 422 q 40 434 40 426 q 40 464 40 442 l 40 464 l 40 603 q 113 624 93 603 q 133 688 133 646 l 133 688 l 133 790 q 113 858 133 832 q 40 883 93 883 l 40 883 l 40 994 l 563 994 q 698 961 639 994 q 791 869 757 928 q 825 736 825 811 l 825 736 l 825 464 q 825 434 825 442 q 825 424 825 426 q 825 413 825 422 l 825 413 l 825 411 q 825 400 825 403 q 825 391 825 397 q 825 361 825 385 l 825 361 l 825 290 q 825 260 825 268 q 825 251 825 253 q 825 239 825 249 l 825 239 l 825 238 q 824 219 825 229 q 822 202 824 210 q 819 188 821 194 l 819 188 q 730 51 800 101 q 563 0 660 0 l 563 0 z m 449 696 l 43 696 l 43 793 l 449 793 l 449 696 z m 367 883 l 367 610 l 464 610 q 538 631 517 610 q 558 703 558 651 l 558 703 l 558 790 q 538 863 558 843 q 464 883 517 883 l 464 883 l 367 883 z "},"E":{"ha":800,"x_min":40,"x_max":760,"o":"m 760 0 l 42 0 l 42 188 q 42 217 42 211 q 42 226 42 224 q 42 238 42 229 l 42 238 l 42 239 q 42 251 42 249 q 42 260 42 253 q 42 290 42 268 l 42 290 l 42 361 q 42 391 42 385 q 42 400 42 397 q 42 411 42 403 l 42 411 l 42 413 q 42 425 42 422 q 42 435 42 428 q 42 464 42 442 l 42 464 l 42 603 q 115 628 94 603 q 135 694 135 653 l 135 694 l 135 783 q 114 854 135 825 q 40 883 93 883 l 40 883 l 40 994 l 751 994 l 751 790 l 626 790 q 606 858 626 832 q 533 883 586 883 l 533 883 l 365 883 l 365 799 l 528 799 l 528 701 l 365 701 l 365 610 l 542 610 q 615 631 594 610 q 635 694 635 653 l 635 694 l 760 694 l 760 464 q 760 434 760 442 q 760 424 760 426 q 760 413 760 422 l 760 413 l 760 411 q 760 400 760 403 q 760 391 760 397 q 760 361 760 385 l 760 361 l 760 290 q 760 260 760 268 q 760 251 760 253 q 760 239 760 249 l 760 239 l 760 238 q 760 226 760 229 q 760 217 760 224 q 760 188 760 211 l 760 188 l 760 0 z "},"É":{"ha":800,"x_min":40,"x_max":760,"o":"m 760 0 l 42 0 l 42 188 q 42 217 42 211 q 42 226 42 224 q 42 238 42 229 l 42 238 l 42 239 q 42 251 42 249 q 42 260 42 253 q 42 290 42 268 l 42 290 l 42 361 q 42 391 42 385 q 42 400 42 397 q 42 411 42 403 l 42 411 l 42 413 q 42 425 42 422 q 42 435 42 428 q 42 464 42 442 l 42 464 l 42 603 q 115 628 94 603 q 135 694 135 653 l 135 694 l 135 783 q 114 854 135 825 q 40 883 93 883 l 40 883 l 40 994 l 751 994 l 751 790 l 626 790 q 606 858 626 832 q 533 883 586 883 l 533 883 l 365 883 l 365 799 l 528 799 l 528 701 l 365 701 l 365 610 l 542 610 q 615 631 594 610 q 635 694 635 653 l 635 694 l 760 694 l 760 464 q 760 434 760 442 q 760 424 760 426 q 760 413 760 422 l 760 413 l 760 411 q 760 400 760 403 q 760 391 760 397 q 760 361 760 385 l 760 361 l 760 290 q 760 260 760 268 q 760 251 760 253 q 760 239 760 249 l 760 239 l 760 238 q 760 226 760 229 q 760 217 760 224 q 760 188 760 211 l 760 188 l 760 0 z m 476 1051 l 344 1051 l 450 1213 l 625 1213 l 476 1051 z "},"Ě":{"ha":800,"x_min":40,"x_max":760,"o":"m 760 0 l 42 0 l 42 188 q 42 217 42 211 q 42 226 42 224 q 42 238 42 229 l 42 238 l 42 239 q 42 251 42 249 q 42 260 42 253 q 42 290 42 268 l 42 290 l 42 361 q 42 391 42 385 q 42 400 42 397 q 42 411 42 403 l 42 411 l 42 413 q 42 425 42 422 q 42 435 42 428 q 42 464 42 442 l 42 464 l 42 603 q 115 628 94 603 q 135 694 135 653 l 135 694 l 135 783 q 114 854 135 825 q 40 883 93 883 l 40 883 l 40 994 l 751 994 l 751 790 l 626 790 q 606 858 626 832 q 533 883 586 883 l 533 883 l 365 883 l 365 799 l 528 799 l 528 701 l 365 701 l 365 610 l 542 610 q 615 631 594 610 q 635 694 635 653 l 635 694 l 760 694 l 760 464 q 760 434 760 442 q 760 424 760 426 q 760 413 760 422 l 760 413 l 760 411 q 760 400 760 403 q 760 391 760 397 q 760 361 760 385 l 760 361 l 760 290 q 760 260 760 268 q 760 251 760 253 q 760 239 760 249 l 760 239 l 760 238 q 760 226 760 229 q 760 217 760 224 q 760 188 760 211 l 760 188 l 760 0 z m 504 1051 l 319 1051 l 226 1225 l 338 1225 l 414 1132 l 494 1231 l 603 1231 l 504 1051 z "},"Ȩ":{"ha":800,"x_min":40,"x_max":760,"o":"m 760 0 l 42 0 l 42 188 q 42 217 42 211 q 42 226 42 224 q 42 238 42 229 l 42 238 l 42 239 q 42 251 42 249 q 42 260 42 253 q 42 290 42 268 l 42 290 l 42 361 q 42 391 42 385 q 42 400 42 397 q 42 411 42 403 l 42 411 l 42 413 q 42 425 42 422 q 42 435 42 428 q 42 464 42 442 l 42 464 l 42 603 q 115 628 94 603 q 135 694 135 653 l 135 694 l 135 783 q 114 854 135 825 q 40 883 93 883 l 40 883 l 40 994 l 751 994 l 751 790 l 626 790 q 606 858 626 832 q 533 883 586 883 l 533 883 l 365 883 l 365 799 l 528 799 l 528 701 l 365 701 l 365 610 l 542 610 q 615 631 594 610 q 635 694 635 653 l 635 694 l 760 694 l 760 464 q 760 434 760 442 q 760 424 760 426 q 760 413 760 422 l 760 413 l 760 411 q 760 400 760 403 q 760 391 760 397 q 760 361 760 385 l 760 361 l 760 290 q 760 260 760 268 q 760 251 760 253 q 760 239 760 249 l 760 239 l 760 238 q 760 226 760 229 q 760 217 760 224 q 760 188 760 211 l 760 188 l 760 0 z m 410 -290 l 410 -290 q 344 -278 378 -290 q 292 -247 311 -265 l 292 -247 l 292 -149 q 333 -188 308 -174 q 379 -203 357 -203 l 379 -203 q 419 -191 403 -203 q 436 -157 436 -179 l 436 -157 q 402 -106 436 -126 q 318 -86 368 -86 l 318 -86 l 376 0 l 501 0 l 461 -43 q 534 -87 511 -54 q 557 -157 557 -119 l 557 -157 q 513 -253 557 -215 q 410 -290 469 -290 z "},"Ḝ":{"ha":800,"x_min":40,"x_max":760,"o":"m 760 0 l 42 0 l 42 188 q 42 217 42 211 q 42 226 42 224 q 42 238 42 229 l 42 238 l 42 239 q 42 251 42 249 q 42 260 42 253 q 42 290 42 268 l 42 290 l 42 361 q 42 391 42 385 q 42 400 42 397 q 42 411 42 403 l 42 411 l 42 413 q 42 425 42 422 q 42 435 42 428 q 42 464 42 442 l 42 464 l 42 603 q 115 628 94 603 q 135 694 135 653 l 135 694 l 135 783 q 114 854 135 825 q 40 883 93 883 l 40 883 l 40 994 l 751 994 l 751 790 l 626 790 q 606 858 626 832 q 533 883 586 883 l 533 883 l 365 883 l 365 799 l 528 799 l 528 701 l 365 701 l 365 610 l 542 610 q 615 631 594 610 q 635 694 635 653 l 635 694 l 760 694 l 760 464 q 760 434 760 442 q 760 424 760 426 q 760 413 760 422 l 760 413 l 760 411 q 760 400 760 403 q 760 391 760 397 q 760 361 760 385 l 760 361 l 760 290 q 760 260 760 268 q 760 251 760 253 q 760 239 760 249 l 760 239 l 760 238 q 760 226 760 229 q 760 217 760 224 q 760 188 760 211 l 760 188 l 760 0 z m 410 -290 l 410 -290 q 344 -278 378 -290 q 292 -247 311 -265 l 292 -247 l 292 -149 q 333 -188 308 -174 q 379 -203 357 -203 l 379 -203 q 419 -191 403 -203 q 436 -157 436 -179 l 436 -157 q 402 -106 436 -126 q 318 -86 368 -86 l 318 -86 l 376 0 l 501 0 l 461 -43 q 534 -87 511 -54 q 557 -157 557 -119 l 557 -157 q 513 -253 557 -215 q 410 -290 469 -290 z m 436 1035 l 436 1035 q 317 1081 361 1035 q 271 1210 274 1128 l 271 1210 l 361 1210 q 436 1136 383 1136 l 436 1136 q 514 1210 492 1136 l 514 1210 l 607 1210 q 560 1083 607 1131 q 436 1035 514 1035 z "},"Ê":{"ha":800,"x_min":40,"x_max":760,"o":"m 760 0 l 42 0 l 42 188 q 42 217 42 211 q 42 226 42 224 q 42 238 42 229 l 42 238 l 42 239 q 42 251 42 249 q 42 260 42 253 q 42 290 42 268 l 42 290 l 42 361 q 42 391 42 385 q 42 400 42 397 q 42 411 42 403 l 42 411 l 42 413 q 42 425 42 422 q 42 435 42 428 q 42 464 42 442 l 42 464 l 42 603 q 115 628 94 603 q 135 694 135 653 l 135 694 l 135 783 q 114 854 135 825 q 40 883 93 883 l 40 883 l 40 994 l 751 994 l 751 790 l 626 790 q 606 858 626 832 q 533 883 586 883 l 533 883 l 365 883 l 365 799 l 528 799 l 528 701 l 365 701 l 365 610 l 542 610 q 615 631 594 610 q 635 694 635 653 l 635 694 l 760 694 l 760 464 q 760 434 760 442 q 760 424 760 426 q 760 413 760 422 l 760 413 l 760 411 q 760 400 760 403 q 760 391 760 397 q 760 361 760 385 l 760 361 l 760 290 q 760 260 760 268 q 760 251 760 253 q 760 239 760 249 l 760 239 l 760 238 q 760 226 760 229 q 760 217 760 224 q 760 188 760 211 l 760 188 l 760 0 z m 336 1051 l 222 1051 l 325 1228 l 506 1228 l 614 1051 l 503 1051 l 414 1139 l 336 1051 z "},"Ế":{"ha":800,"x_min":40,"x_max":760,"o":"m 760 0 l 42 0 l 42 188 q 42 217 42 211 q 42 226 42 224 q 42 238 42 229 l 42 238 l 42 239 q 42 251 42 249 q 42 260 42 253 q 42 290 42 268 l 42 290 l 42 361 q 42 391 42 385 q 42 400 42 397 q 42 411 42 403 l 42 411 l 42 413 q 42 425 42 422 q 42 435 42 428 q 42 464 42 442 l 42 464 l 42 603 q 115 628 94 603 q 135 694 135 653 l 135 694 l 135 783 q 114 854 135 825 q 40 883 93 883 l 40 883 l 40 994 l 751 994 l 751 790 l 626 790 q 606 858 626 832 q 533 883 586 883 l 533 883 l 365 883 l 365 799 l 528 799 l 528 701 l 365 701 l 365 610 l 542 610 q 615 631 594 610 q 635 694 635 653 l 635 694 l 760 694 l 760 464 q 760 434 760 442 q 760 424 760 426 q 760 413 760 422 l 760 413 l 760 411 q 760 400 760 403 q 760 391 760 397 q 760 361 760 385 l 760 361 l 760 290 q 760 260 760 268 q 760 251 760 253 q 760 239 760 249 l 760 239 l 760 238 q 760 226 760 229 q 760 217 760 224 q 760 188 760 211 l 760 188 l 760 0 z m 336 1051 l 222 1051 l 325 1228 l 506 1228 l 614 1051 l 503 1051 l 414 1139 l 336 1051 z m 231 1196 l 119 1196 l 208 1331 l 354 1331 l 231 1196 z "},"Ḙ":{"ha":800,"x_min":40,"x_max":760,"o":"m 760 0 l 42 0 l 42 188 q 42 217 42 211 q 42 226 42 224 q 42 238 42 229 l 42 238 l 42 239 q 42 251 42 249 q 42 260 42 253 q 42 290 42 268 l 42 290 l 42 361 q 42 391 42 385 q 42 400 42 397 q 42 411 42 403 l 42 411 l 42 413 q 42 425 42 422 q 42 435 42 428 q 42 464 42 442 l 42 464 l 42 603 q 115 628 94 603 q 135 694 135 653 l 135 694 l 135 783 q 114 854 135 825 q 40 883 93 883 l 40 883 l 40 994 l 751 994 l 751 790 l 626 790 q 606 858 626 832 q 533 883 586 883 l 533 883 l 365 883 l 365 799 l 528 799 l 528 701 l 365 701 l 365 610 l 542 610 q 615 631 594 610 q 635 694 635 653 l 635 694 l 760 694 l 760 464 q 760 434 760 442 q 760 424 760 426 q 760 413 760 422 l 760 413 l 760 411 q 760 400 760 403 q 760 391 760 397 q 760 361 760 385 l 760 361 l 760 290 q 760 260 760 268 q 760 251 760 253 q 760 239 760 249 l 760 239 l 760 238 q 760 226 760 229 q 760 217 760 224 q 760 188 760 211 l 760 188 l 760 0 z m 617 -237 l 506 -239 l 418 -135 l 344 -237 l 232 -235 l 332 -56 l 510 -56 l 617 -237 z "},"Ệ":{"ha":800,"x_min":40,"x_max":760,"o":"m 760 0 l 42 0 l 42 188 q 42 217 42 211 q 42 226 42 224 q 42 238 42 229 l 42 238 l 42 239 q 42 251 42 249 q 42 260 42 253 q 42 290 42 268 l 42 290 l 42 361 q 42 391 42 385 q 42 400 42 397 q 42 411 42 403 l 42 411 l 42 413 q 42 425 42 422 q 42 435 42 428 q 42 464 42 442 l 42 464 l 42 603 q 115 628 94 603 q 135 694 135 653 l 135 694 l 135 783 q 114 854 135 825 q 40 883 93 883 l 40 883 l 40 994 l 751 994 l 751 790 l 626 790 q 606 858 626 832 q 533 883 586 883 l 533 883 l 365 883 l 365 799 l 528 799 l 528 701 l 365 701 l 365 610 l 542 610 q 615 631 594 610 q 635 694 635 653 l 635 694 l 760 694 l 760 464 q 760 434 760 442 q 760 424 760 426 q 760 413 760 422 l 760 413 l 760 411 q 760 400 760 403 q 760 391 760 397 q 760 361 760 385 l 760 361 l 760 290 q 760 260 760 268 q 760 251 760 253 q 760 239 760 249 l 760 239 l 760 238 q 760 226 760 229 q 760 217 760 224 q 760 188 760 211 l 760 188 l 760 0 z m 425 -211 l 425 -211 q 364 -186 386 -211 q 342 -126 342 -161 l 342 -126 q 366 -68 342 -93 q 426 -43 390 -43 l 426 -43 q 485 -69 460 -43 q 510 -126 510 -94 l 510 -126 q 495 -173 510 -154 q 460 -201 481 -192 q 425 -211 440 -211 z m 336 1051 l 222 1051 l 325 1228 l 506 1228 l 614 1051 l 503 1051 l 414 1139 l 336 1051 z "},"Ề":{"ha":800,"x_min":40,"x_max":760,"o":"m 760 0 l 42 0 l 42 188 q 42 217 42 211 q 42 226 42 224 q 42 238 42 229 l 42 238 l 42 239 q 42 251 42 249 q 42 260 42 253 q 42 290 42 268 l 42 290 l 42 361 q 42 391 42 385 q 42 400 42 397 q 42 411 42 403 l 42 411 l 42 413 q 42 425 42 422 q 42 435 42 428 q 42 464 42 442 l 42 464 l 42 603 q 115 628 94 603 q 135 694 135 653 l 135 694 l 135 783 q 114 854 135 825 q 40 883 93 883 l 40 883 l 40 994 l 751 994 l 751 790 l 626 790 q 606 858 626 832 q 533 883 586 883 l 533 883 l 365 883 l 365 799 l 528 799 l 528 701 l 365 701 l 365 610 l 542 610 q 615 631 594 610 q 635 694 635 653 l 635 694 l 760 694 l 760 464 q 760 434 760 442 q 760 424 760 426 q 760 413 760 422 l 760 413 l 760 411 q 760 400 760 403 q 760 391 760 397 q 760 361 760 385 l 760 361 l 760 290 q 760 260 760 268 q 760 251 760 253 q 760 239 760 249 l 760 239 l 760 238 q 760 226 760 229 q 760 217 760 224 q 760 188 760 211 l 760 188 l 760 0 z m 336 1051 l 222 1051 l 325 1228 l 506 1228 l 614 1051 l 503 1051 l 414 1139 l 336 1051 z m 714 1197 l 606 1197 l 483 1331 l 628 1331 l 714 1197 z "},"Ể":{"ha":800,"x_min":40,"x_max":760,"o":"m 760 0 l 42 0 l 42 188 q 42 217 42 211 q 42 226 42 224 q 42 238 42 229 l 42 238 l 42 239 q 42 251 42 249 q 42 260 42 253 q 42 290 42 268 l 42 290 l 42 361 q 42 391 42 385 q 42 400 42 397 q 42 411 42 403 l 42 411 l 42 413 q 42 425 42 422 q 42 435 42 428 q 42 464 42 442 l 42 464 l 42 603 q 115 628 94 603 q 135 694 135 653 l 135 694 l 135 783 q 114 854 135 825 q 40 883 93 883 l 40 883 l 40 994 l 751 994 l 751 790 l 626 790 q 606 858 626 832 q 533 883 586 883 l 533 883 l 365 883 l 365 799 l 528 799 l 528 701 l 365 701 l 365 610 l 542 610 q 615 631 594 610 q 635 694 635 653 l 635 694 l 760 694 l 760 464 q 760 434 760 442 q 760 424 760 426 q 760 413 760 422 l 760 413 l 760 411 q 760 400 760 403 q 760 391 760 397 q 760 361 760 385 l 760 361 l 760 290 q 760 260 760 268 q 760 251 760 253 q 760 239 760 249 l 760 239 l 760 238 q 760 226 760 229 q 760 217 760 224 q 760 188 760 211 l 760 188 l 760 0 z m 324 1051 l 210 1051 l 313 1228 l 493 1228 l 601 1051 l 490 1051 l 401 1139 l 324 1051 z m 650 1196 l 557 1196 q 600 1238 579 1213 q 621 1286 621 1264 l 621 1286 q 601 1322 621 1314 q 567 1329 581 1329 l 567 1329 q 482 1283 521 1329 l 482 1283 l 482 1381 q 534 1409 504 1397 q 606 1421 564 1421 l 606 1421 q 693 1392 658 1421 q 728 1313 728 1364 l 728 1313 q 706 1243 728 1274 q 650 1196 683 1213 l 650 1196 z "},"Ễ":{"ha":800,"x_min":40,"x_max":760,"o":"m 760 0 l 42 0 l 42 188 q 42 217 42 211 q 42 226 42 224 q 42 238 42 229 l 42 238 l 42 239 q 42 251 42 249 q 42 260 42 253 q 42 290 42 268 l 42 290 l 42 361 q 42 391 42 385 q 42 400 42 397 q 42 411 42 403 l 42 411 l 42 413 q 42 425 42 422 q 42 435 42 428 q 42 464 42 442 l 42 464 l 42 603 q 115 628 94 603 q 135 694 135 653 l 135 694 l 135 783 q 114 854 135 825 q 40 883 93 883 l 40 883 l 40 994 l 751 994 l 751 790 l 626 790 q 606 858 626 832 q 533 883 586 883 l 533 883 l 365 883 l 365 799 l 528 799 l 528 701 l 365 701 l 365 610 l 542 610 q 615 631 594 610 q 635 694 635 653 l 635 694 l 760 694 l 760 464 q 760 434 760 442 q 760 424 760 426 q 760 413 760 422 l 760 413 l 760 411 q 760 400 760 403 q 760 391 760 397 q 760 361 760 385 l 760 361 l 760 290 q 760 260 760 268 q 760 251 760 253 q 760 239 760 249 l 760 239 l 760 238 q 760 226 760 229 q 760 217 760 224 q 760 188 760 211 l 760 188 l 760 0 z m 336 1051 l 222 1051 l 325 1228 l 506 1228 l 614 1051 l 503 1051 l 414 1139 l 336 1051 z m 478 1268 l 478 1268 q 418 1283 442 1268 l 418 1283 q 377 1310 394 1299 q 350 1321 360 1321 l 350 1321 q 334 1309 339 1321 q 326 1279 329 1297 l 326 1279 l 247 1279 q 269 1390 247 1354 l 269 1390 q 299 1417 281 1408 q 336 1425 317 1425 l 336 1425 q 380 1415 363 1425 q 411 1396 397 1406 l 411 1396 q 437 1377 422 1386 q 463 1368 451 1368 l 463 1368 q 494 1387 486 1368 q 506 1422 503 1406 l 506 1422 l 585 1422 q 576 1349 585 1379 q 553 1300 567 1319 l 553 1300 q 520 1276 542 1283 q 478 1268 499 1268 z "},"Ȅ":{"ha":800,"x_min":40,"x_max":760,"o":"m 760 0 l 42 0 l 42 188 q 42 217 42 211 q 42 226 42 224 q 42 238 42 229 l 42 238 l 42 239 q 42 251 42 249 q 42 260 42 253 q 42 290 42 268 l 42 290 l 42 361 q 42 391 42 385 q 42 400 42 397 q 42 411 42 403 l 42 411 l 42 413 q 42 425 42 422 q 42 435 42 428 q 42 464 42 442 l 42 464 l 42 603 q 115 628 94 603 q 135 694 135 653 l 135 694 l 135 783 q 114 854 135 825 q 40 883 93 883 l 40 883 l 40 994 l 751 994 l 751 790 l 626 790 q 606 858 626 832 q 533 883 586 883 l 533 883 l 365 883 l 365 799 l 528 799 l 528 701 l 365 701 l 365 610 l 542 610 q 615 631 594 610 q 635 694 635 653 l 635 694 l 760 694 l 760 464 q 760 434 760 442 q 760 424 760 426 q 760 413 760 422 l 760 413 l 760 411 q 760 400 760 403 q 760 391 760 397 q 760 361 760 385 l 760 361 l 760 290 q 760 260 760 268 q 760 251 760 253 q 760 239 760 249 l 760 239 l 760 238 q 760 226 760 229 q 760 217 760 224 q 760 188 760 211 l 760 188 l 760 0 z m 375 1051 l 274 1051 l 144 1215 l 300 1213 l 375 1051 z m 560 1051 l 460 1051 l 331 1213 l 486 1210 l 560 1051 z "},"Ë":{"ha":800,"x_min":40,"x_max":760,"o":"m 760 0 l 42 0 l 42 188 q 42 217 42 211 q 42 226 42 224 q 42 238 42 229 l 42 238 l 42 239 q 42 251 42 249 q 42 260 42 253 q 42 290 42 268 l 42 290 l 42 361 q 42 391 42 385 q 42 400 42 397 q 42 411 42 403 l 42 411 l 42 413 q 42 425 42 422 q 42 435 42 428 q 42 464 42 442 l 42 464 l 42 603 q 115 628 94 603 q 135 694 135 653 l 135 694 l 135 783 q 114 854 135 825 q 40 883 93 883 l 40 883 l 40 994 l 751 994 l 751 790 l 626 790 q 606 858 626 832 q 533 883 586 883 l 533 883 l 365 883 l 365 799 l 528 799 l 528 701 l 365 701 l 365 610 l 542 610 q 615 631 594 610 q 635 694 635 653 l 635 694 l 760 694 l 760 464 q 760 434 760 442 q 760 424 760 426 q 760 413 760 422 l 760 413 l 760 411 q 760 400 760 403 q 760 391 760 397 q 760 361 760 385 l 760 361 l 760 290 q 760 260 760 268 q 760 251 760 253 q 760 239 760 249 l 760 239 l 760 238 q 760 226 760 229 q 760 217 760 224 q 760 188 760 211 l 760 188 l 760 0 z m 513 1043 l 513 1043 q 454 1069 479 1043 q 429 1126 429 1096 l 429 1126 q 444 1173 429 1154 q 478 1201 458 1192 q 514 1211 499 1211 l 514 1211 q 576 1186 554 1211 q 597 1126 597 1161 l 597 1126 q 573 1068 597 1093 q 513 1043 549 1043 z m 314 1043 l 314 1043 q 253 1068 275 1043 q 231 1128 231 1093 l 231 1128 q 255 1186 231 1161 q 315 1211 279 1211 l 315 1211 q 374 1185 349 1211 q 399 1128 399 1160 l 399 1128 q 384 1081 399 1100 q 349 1053 369 1063 q 314 1043 329 1043 z "},"Ė":{"ha":800,"x_min":40,"x_max":760,"o":"m 760 0 l 42 0 l 42 188 q 42 217 42 211 q 42 226 42 224 q 42 238 42 229 l 42 238 l 42 239 q 42 251 42 249 q 42 260 42 253 q 42 290 42 268 l 42 290 l 42 361 q 42 391 42 385 q 42 400 42 397 q 42 411 42 403 l 42 411 l 42 413 q 42 425 42 422 q 42 435 42 428 q 42 464 42 442 l 42 464 l 42 603 q 115 628 94 603 q 135 694 135 653 l 135 694 l 135 783 q 114 854 135 825 q 40 883 93 883 l 40 883 l 40 994 l 751 994 l 751 790 l 626 790 q 606 858 626 832 q 533 883 586 883 l 533 883 l 365 883 l 365 799 l 528 799 l 528 701 l 365 701 l 365 610 l 542 610 q 615 631 594 610 q 635 694 635 653 l 635 694 l 760 694 l 760 464 q 760 434 760 442 q 760 424 760 426 q 760 413 760 422 l 760 413 l 760 411 q 760 400 760 403 q 760 391 760 397 q 760 361 760 385 l 760 361 l 760 290 q 760 260 760 268 q 760 251 760 253 q 760 239 760 249 l 760 239 l 760 238 q 760 226 760 229 q 760 217 760 224 q 760 188 760 211 l 760 188 l 760 0 z m 414 1043 l 414 1043 q 353 1068 375 1043 q 331 1128 331 1093 l 331 1128 q 355 1186 331 1161 q 415 1211 379 1211 l 415 1211 q 474 1185 449 1211 q 499 1128 499 1160 l 499 1128 q 484 1081 499 1100 q 449 1053 469 1063 q 414 1043 429 1043 z "},"Ẹ":{"ha":800,"x_min":40,"x_max":760,"o":"m 760 0 l 42 0 l 42 188 q 42 217 42 211 q 42 226 42 224 q 42 238 42 229 l 42 238 l 42 239 q 42 251 42 249 q 42 260 42 253 q 42 290 42 268 l 42 290 l 42 361 q 42 391 42 385 q 42 400 42 397 q 42 411 42 403 l 42 411 l 42 413 q 42 425 42 422 q 42 435 42 428 q 42 464 42 442 l 42 464 l 42 603 q 115 628 94 603 q 135 694 135 653 l 135 694 l 135 783 q 114 854 135 825 q 40 883 93 883 l 40 883 l 40 994 l 751 994 l 751 790 l 626 790 q 606 858 626 832 q 533 883 586 883 l 533 883 l 365 883 l 365 799 l 528 799 l 528 701 l 365 701 l 365 610 l 542 610 q 615 631 594 610 q 635 694 635 653 l 635 694 l 760 694 l 760 464 q 760 434 760 442 q 760 424 760 426 q 760 413 760 422 l 760 413 l 760 411 q 760 400 760 403 q 760 391 760 397 q 760 361 760 385 l 760 361 l 760 290 q 760 260 760 268 q 760 251 760 253 q 760 239 760 249 l 760 239 l 760 238 q 760 226 760 229 q 760 217 760 224 q 760 188 760 211 l 760 188 l 760 0 z m 425 -211 l 425 -211 q 364 -186 386 -211 q 342 -126 342 -161 l 342 -126 q 366 -68 342 -93 q 426 -43 390 -43 l 426 -43 q 485 -69 460 -43 q 510 -126 510 -94 l 510 -126 q 495 -173 510 -154 q 460 -201 481 -192 q 425 -211 440 -211 z "},"È":{"ha":800,"x_min":40,"x_max":760,"o":"m 760 0 l 42 0 l 42 188 q 42 217 42 211 q 42 226 42 224 q 42 238 42 229 l 42 238 l 42 239 q 42 251 42 249 q 42 260 42 253 q 42 290 42 268 l 42 290 l 42 361 q 42 391 42 385 q 42 400 42 397 q 42 411 42 403 l 42 411 l 42 413 q 42 425 42 422 q 42 435 42 428 q 42 464 42 442 l 42 464 l 42 603 q 115 628 94 603 q 135 694 135 653 l 135 694 l 135 783 q 114 854 135 825 q 40 883 93 883 l 40 883 l 40 994 l 751 994 l 751 790 l 626 790 q 606 858 626 832 q 533 883 586 883 l 533 883 l 365 883 l 365 799 l 528 799 l 528 701 l 365 701 l 365 610 l 542 610 q 615 631 594 610 q 635 694 635 653 l 635 694 l 760 694 l 760 464 q 760 434 760 442 q 760 424 760 426 q 760 413 760 422 l 760 413 l 760 411 q 760 400 760 403 q 760 391 760 397 q 760 361 760 385 l 760 361 l 760 290 q 760 260 760 268 q 760 251 760 253 q 760 239 760 249 l 760 239 l 760 238 q 760 226 760 229 q 760 217 760 224 q 760 188 760 211 l 760 188 l 760 0 z m 488 1051 l 350 1051 l 206 1213 l 386 1210 l 488 1051 z "},"Ẻ":{"ha":800,"x_min":40,"x_max":760,"o":"m 760 0 l 42 0 l 42 188 q 42 217 42 211 q 42 226 42 224 q 42 238 42 229 l 42 238 l 42 239 q 42 251 42 249 q 42 260 42 253 q 42 290 42 268 l 42 290 l 42 361 q 42 391 42 385 q 42 400 42 397 q 42 411 42 403 l 42 411 l 42 413 q 42 425 42 422 q 42 435 42 428 q 42 464 42 442 l 42 464 l 42 603 q 115 628 94 603 q 135 694 135 653 l 135 694 l 135 783 q 114 854 135 825 q 40 883 93 883 l 40 883 l 40 994 l 751 994 l 751 790 l 626 790 q 606 858 626 832 q 533 883 586 883 l 533 883 l 365 883 l 365 799 l 528 799 l 528 701 l 365 701 l 365 610 l 542 610 q 615 631 594 610 q 635 694 635 653 l 635 694 l 760 694 l 760 464 q 760 434 760 442 q 760 424 760 426 q 760 413 760 422 l 760 413 l 760 411 q 760 400 760 403 q 760 391 760 397 q 760 361 760 385 l 760 361 l 760 290 q 760 260 760 268 q 760 251 760 253 q 760 239 760 249 l 760 239 l 760 238 q 760 226 760 229 q 760 217 760 224 q 760 188 760 211 l 760 188 l 760 0 z m 457 1051 l 360 1051 q 405 1097 383 1069 q 426 1146 426 1124 l 426 1146 q 406 1183 426 1175 q 369 1190 385 1190 l 369 1190 q 281 1143 321 1190 l 281 1143 l 281 1244 q 336 1274 304 1263 q 411 1286 368 1286 l 411 1286 q 502 1256 465 1286 q 539 1174 539 1226 l 539 1174 q 516 1101 539 1133 q 457 1051 493 1068 l 457 1051 z "},"Ȇ":{"ha":800,"x_min":40,"x_max":760,"o":"m 760 0 l 42 0 l 42 188 q 42 217 42 211 q 42 226 42 224 q 42 238 42 229 l 42 238 l 42 239 q 42 251 42 249 q 42 260 42 253 q 42 290 42 268 l 42 290 l 42 361 q 42 391 42 385 q 42 400 42 397 q 42 411 42 403 l 42 411 l 42 413 q 42 425 42 422 q 42 435 42 428 q 42 464 42 442 l 42 464 l 42 603 q 115 628 94 603 q 135 694 135 653 l 135 694 l 135 783 q 114 854 135 825 q 40 883 93 883 l 40 883 l 40 994 l 751 994 l 751 790 l 626 790 q 606 858 626 832 q 533 883 586 883 l 533 883 l 365 883 l 365 799 l 528 799 l 528 701 l 365 701 l 365 610 l 542 610 q 615 631 594 610 q 635 694 635 653 l 635 694 l 760 694 l 760 464 q 760 434 760 442 q 760 424 760 426 q 760 413 760 422 l 760 413 l 760 411 q 760 400 760 403 q 760 391 760 397 q 760 361 760 385 l 760 361 l 760 290 q 760 260 760 268 q 760 251 760 253 q 760 239 760 249 l 760 239 l 760 238 q 760 226 760 229 q 760 217 760 224 q 760 188 760 211 l 760 188 l 760 0 z m 411 1226 l 411 1226 q 535 1178 489 1226 q 582 1051 582 1131 l 582 1051 l 489 1051 q 411 1125 467 1125 l 411 1125 q 336 1051 358 1125 l 336 1051 l 246 1051 q 292 1180 249 1133 q 411 1226 336 1226 z "},"Ē":{"ha":800,"x_min":40,"x_max":760,"o":"m 760 0 l 42 0 l 42 188 q 42 217 42 211 q 42 226 42 224 q 42 238 42 229 l 42 238 l 42 239 q 42 251 42 249 q 42 260 42 253 q 42 290 42 268 l 42 290 l 42 361 q 42 391 42 385 q 42 400 42 397 q 42 411 42 403 l 42 411 l 42 413 q 42 425 42 422 q 42 435 42 428 q 42 464 42 442 l 42 464 l 42 603 q 115 628 94 603 q 135 694 135 653 l 135 694 l 135 783 q 114 854 135 825 q 40 883 93 883 l 40 883 l 40 994 l 751 994 l 751 790 l 626 790 q 606 858 626 832 q 533 883 586 883 l 533 883 l 365 883 l 365 799 l 528 799 l 528 701 l 365 701 l 365 610 l 542 610 q 615 631 594 610 q 635 694 635 653 l 635 694 l 760 694 l 760 464 q 760 434 760 442 q 760 424 760 426 q 760 413 760 422 l 760 413 l 760 411 q 760 400 760 403 q 760 391 760 397 q 760 361 760 385 l 760 361 l 760 290 q 760 260 760 268 q 760 251 760 253 q 760 239 760 249 l 760 239 l 760 238 q 760 226 760 229 q 760 217 760 224 q 760 188 760 211 l 760 188 l 760 0 z m 615 1058 l 213 1058 l 213 1163 l 615 1163 l 615 1058 z "},"Ḗ":{"ha":800,"x_min":40,"x_max":760,"o":"m 760 0 l 42 0 l 42 188 q 42 217 42 211 q 42 226 42 224 q 42 238 42 229 l 42 238 l 42 239 q 42 251 42 249 q 42 260 42 253 q 42 290 42 268 l 42 290 l 42 361 q 42 391 42 385 q 42 400 42 397 q 42 411 42 403 l 42 411 l 42 413 q 42 425 42 422 q 42 435 42 428 q 42 464 42 442 l 42 464 l 42 603 q 115 628 94 603 q 135 694 135 653 l 135 694 l 135 783 q 114 854 135 825 q 40 883 93 883 l 40 883 l 40 994 l 751 994 l 751 790 l 626 790 q 606 858 626 832 q 533 883 586 883 l 533 883 l 365 883 l 365 799 l 528 799 l 528 701 l 365 701 l 365 610 l 542 610 q 615 631 594 610 q 635 694 635 653 l 635 694 l 760 694 l 760 464 q 760 434 760 442 q 760 424 760 426 q 760 413 760 422 l 760 413 l 760 411 q 760 400 760 403 q 760 391 760 397 q 760 361 760 385 l 760 361 l 760 290 q 760 260 760 268 q 760 251 760 253 q 760 239 760 249 l 760 239 l 760 238 q 760 226 760 229 q 760 217 760 224 q 760 188 760 211 l 760 188 l 760 0 z m 615 1058 l 213 1058 l 213 1163 l 615 1163 l 615 1058 z m 475 1221 l 343 1221 l 449 1382 l 624 1382 l 475 1221 z "},"Ḕ":{"ha":800,"x_min":40,"x_max":760,"o":"m 760 0 l 42 0 l 42 188 q 42 217 42 211 q 42 226 42 224 q 42 238 42 229 l 42 238 l 42 239 q 42 251 42 249 q 42 260 42 253 q 42 290 42 268 l 42 290 l 42 361 q 42 391 42 385 q 42 400 42 397 q 42 411 42 403 l 42 411 l 42 413 q 42 425 42 422 q 42 435 42 428 q 42 464 42 442 l 42 464 l 42 603 q 115 628 94 603 q 135 694 135 653 l 135 694 l 135 783 q 114 854 135 825 q 40 883 93 883 l 40 883 l 40 994 l 751 994 l 751 790 l 626 790 q 606 858 626 832 q 533 883 586 883 l 533 883 l 365 883 l 365 799 l 528 799 l 528 701 l 365 701 l 365 610 l 542 610 q 615 631 594 610 q 635 694 635 653 l 635 694 l 760 694 l 760 464 q 760 434 760 442 q 760 424 760 426 q 760 413 760 422 l 760 413 l 760 411 q 760 400 760 403 q 760 391 760 397 q 760 361 760 385 l 760 361 l 760 290 q 760 260 760 268 q 760 251 760 253 q 760 239 760 249 l 760 239 l 760 238 q 760 226 760 229 q 760 217 760 224 q 760 188 760 211 l 760 188 l 760 0 z m 615 1058 l 213 1058 l 213 1163 l 615 1163 l 615 1058 z m 486 1221 l 349 1221 l 204 1382 l 385 1379 l 486 1221 z "},"Ę":{"ha":800,"x_min":40,"x_max":792,"o":"m 760 0 l 42 0 l 42 188 q 42 217 42 211 q 42 226 42 224 q 42 238 42 229 l 42 238 l 42 239 q 42 251 42 249 q 42 260 42 253 q 42 290 42 268 l 42 290 l 42 361 q 42 391 42 385 q 42 400 42 397 q 42 411 42 403 l 42 411 l 42 413 q 42 425 42 422 q 42 435 42 428 q 42 464 42 442 l 42 464 l 42 603 q 115 628 94 603 q 135 694 135 653 l 135 694 l 135 783 q 114 854 135 825 q 40 883 93 883 l 40 883 l 40 994 l 751 994 l 751 790 l 626 790 q 606 858 626 832 q 533 883 586 883 l 533 883 l 365 883 l 365 799 l 528 799 l 528 701 l 365 701 l 365 610 l 542 610 q 615 631 594 610 q 635 694 635 653 l 635 694 l 760 694 l 760 464 q 760 434 760 442 q 760 424 760 426 q 760 413 760 422 l 760 413 l 760 411 q 760 400 760 403 q 760 391 760 397 q 760 361 760 385 l 760 361 l 760 290 q 760 260 760 268 q 760 251 760 253 q 760 239 760 249 l 760 239 l 760 238 q 760 226 760 229 q 760 217 760 224 q 760 188 760 211 l 760 188 l 760 0 z m 674 -233 l 674 -233 q 570 -200 614 -233 q 526 -107 526 -167 l 526 -107 q 544 -44 526 -71 q 583 0 561 -17 l 583 0 l 760 0 q 690 -16 715 0 q 656 -52 665 -32 q 646 -87 646 -72 l 646 -87 q 667 -130 646 -117 q 717 -143 689 -143 l 717 -143 q 756 -134 738 -143 q 792 -111 775 -125 l 792 -111 l 792 -192 q 739 -222 772 -210 q 674 -233 706 -233 z "},"Ɛ":{"ha":838,"x_min":28,"x_max":797,"o":"m 535 -8 l 290 -8 q 123 47 193 -8 q 33 188 53 101 l 33 188 q 31 204 32 194 q 28 223 29 214 q 28 236 28 232 l 28 236 l 28 238 q 28 249 28 247 q 28 259 28 251 q 28 290 28 267 l 28 290 l 28 361 q 28 391 28 385 q 28 400 28 397 q 28 411 28 403 l 28 411 l 28 413 q 28 424 28 422 q 28 434 28 426 q 28 464 28 442 l 28 464 l 28 521 q 84 692 28 633 q 247 750 140 750 l 247 750 l 247 764 l 194 764 q 105 792 139 764 q 71 876 71 821 l 71 876 q 125 974 71 946 q 285 1003 179 1003 l 285 1003 l 569 1003 q 677 975 629 1003 q 753 901 725 947 q 781 796 781 854 l 781 796 l 567 796 q 548 864 567 844 q 490 883 529 883 l 490 883 l 414 883 q 340 842 340 883 l 340 842 q 358 810 340 822 q 406 799 375 799 l 406 799 l 481 799 l 481 701 l 369 701 q 304 656 304 701 l 304 656 q 322 621 304 632 q 369 610 339 610 l 369 610 l 494 610 q 544 622 528 610 q 560 653 560 635 l 560 653 l 560 683 l 797 683 l 797 464 q 797 434 797 442 q 797 424 797 426 q 797 413 797 422 l 797 413 l 797 411 q 797 400 797 403 q 797 391 797 397 q 797 361 797 385 l 797 361 l 797 290 q 797 260 797 268 q 797 251 797 253 q 797 239 797 249 l 797 239 l 797 238 q 797 219 797 229 q 794 202 796 210 q 792 188 793 194 l 792 188 q 702 47 772 101 q 535 -8 632 -8 l 535 -8 z "},"Ʃ":{"ha":796,"x_min":38,"x_max":756,"o":"m 756 0 l 38 0 l 38 188 q 38 217 38 211 q 38 226 38 224 q 38 238 38 229 l 38 238 l 38 239 q 38 251 38 249 q 38 260 38 253 q 38 290 38 268 l 38 290 l 38 361 q 38 391 38 385 q 38 400 38 397 q 38 411 38 403 l 38 411 l 38 413 q 38 425 38 422 q 38 435 38 428 q 38 464 38 442 l 38 464 l 38 603 l 224 735 l 38 872 l 38 994 l 750 994 l 750 788 l 619 788 q 599 855 619 829 q 524 881 578 881 l 524 881 l 331 881 l 533 732 l 358 607 l 539 607 q 622 690 622 607 l 622 690 l 756 690 l 756 464 q 756 434 756 442 q 756 424 756 426 q 756 413 756 422 l 756 413 l 756 411 q 756 400 756 403 q 756 391 756 397 q 756 361 756 385 l 756 361 l 756 290 q 756 260 756 268 q 756 251 756 253 q 756 239 756 249 l 756 239 l 756 238 q 756 226 756 229 q 756 217 756 224 q 756 188 756 211 l 756 188 l 756 0 z "},"Ɇ":{"ha":800,"x_min":-26,"x_max":851,"o":"m 760 0 l 42 0 l 42 188 q 42 217 42 211 q 42 226 42 224 q 42 238 42 229 l 42 238 l 42 239 q 42 251 42 249 q 42 260 42 253 q 42 290 42 268 l 42 290 l 42 361 q 42 391 42 385 q 42 400 42 397 q 42 411 42 403 l 42 411 l 42 413 q 42 425 42 422 q 42 435 42 428 q 42 464 42 442 l 42 464 l 42 603 q 115 628 94 603 q 135 694 135 653 l 135 694 l 135 783 q 114 854 135 825 q 40 883 93 883 l 40 883 l 40 994 l 751 994 l 751 790 l 626 790 q 606 858 626 832 q 533 883 586 883 l 533 883 l 365 883 l 365 799 l 528 799 l 528 701 l 365 701 l 365 610 l 542 610 q 615 631 594 610 q 635 694 635 653 l 635 694 l 760 694 l 760 464 q 760 434 760 442 q 760 424 760 426 q 760 413 760 422 l 760 413 l 760 411 q 760 400 760 403 q 760 391 760 397 q 760 361 760 385 l 760 361 l 760 290 q 760 260 760 268 q 760 251 760 253 q 760 239 760 249 l 760 239 l 760 238 q 760 226 760 229 q 760 217 760 224 q 760 188 760 211 l 760 188 l 760 0 z m 99 -82 l -26 -82 l 96 190 l 179 79 l 99 -82 z m 851 1100 l 715 871 l 619 933 l 726 1100 l 851 1100 z "},"Ẽ":{"ha":800,"x_min":40,"x_max":760,"o":"m 760 0 l 42 0 l 42 188 q 42 217 42 211 q 42 226 42 224 q 42 238 42 229 l 42 238 l 42 239 q 42 251 42 249 q 42 260 42 253 q 42 290 42 268 l 42 290 l 42 361 q 42 391 42 385 q 42 400 42 397 q 42 411 42 403 l 42 411 l 42 413 q 42 425 42 422 q 42 435 42 428 q 42 464 42 442 l 42 464 l 42 603 q 115 628 94 603 q 135 694 135 653 l 135 694 l 135 783 q 114 854 135 825 q 40 883 93 883 l 40 883 l 40 994 l 751 994 l 751 790 l 626 790 q 606 858 626 832 q 533 883 586 883 l 533 883 l 365 883 l 365 799 l 528 799 l 528 701 l 365 701 l 365 610 l 542 610 q 615 631 594 610 q 635 694 635 653 l 635 694 l 760 694 l 760 464 q 760 434 760 442 q 760 424 760 426 q 760 413 760 422 l 760 413 l 760 411 q 760 400 760 403 q 760 391 760 397 q 760 361 760 385 l 760 361 l 760 290 q 760 260 760 268 q 760 251 760 253 q 760 239 760 249 l 760 239 l 760 238 q 760 226 760 229 q 760 217 760 224 q 760 188 760 211 l 760 188 l 760 0 z m 489 1039 l 489 1039 q 422 1057 449 1039 l 422 1057 q 376 1087 396 1075 q 346 1099 357 1099 l 346 1099 q 327 1085 332 1099 q 319 1051 322 1072 l 319 1051 l 229 1051 q 254 1178 229 1136 l 254 1178 q 288 1207 267 1197 q 329 1217 308 1217 l 329 1217 q 380 1206 360 1217 q 414 1183 400 1194 l 414 1183 q 444 1163 428 1174 q 472 1153 460 1153 l 472 1153 q 509 1174 500 1153 q 521 1214 518 1194 l 521 1214 l 611 1214 q 601 1132 611 1165 q 575 1075 590 1099 l 575 1075 q 538 1048 563 1057 q 489 1039 514 1039 z "},"Ḛ":{"ha":800,"x_min":40,"x_max":760,"o":"m 760 0 l 42 0 l 42 188 q 42 217 42 211 q 42 226 42 224 q 42 238 42 229 l 42 238 l 42 239 q 42 251 42 249 q 42 260 42 253 q 42 290 42 268 l 42 290 l 42 361 q 42 391 42 385 q 42 400 42 397 q 42 411 42 403 l 42 411 l 42 413 q 42 425 42 422 q 42 435 42 428 q 42 464 42 442 l 42 464 l 42 603 q 115 628 94 603 q 135 694 135 653 l 135 694 l 135 783 q 114 854 135 825 q 40 883 93 883 l 40 883 l 40 994 l 751 994 l 751 790 l 626 790 q 606 858 626 832 q 533 883 586 883 l 533 883 l 365 883 l 365 799 l 528 799 l 528 701 l 365 701 l 365 610 l 542 610 q 615 631 594 610 q 635 694 635 653 l 635 694 l 760 694 l 760 464 q 760 434 760 442 q 760 424 760 426 q 760 413 760 422 l 760 413 l 760 411 q 760 400 760 403 q 760 391 760 397 q 760 361 760 385 l 760 361 l 760 290 q 760 260 760 268 q 760 251 760 253 q 760 239 760 249 l 760 239 l 760 238 q 760 226 760 229 q 760 217 760 224 q 760 188 760 211 l 760 188 l 760 0 z m 493 -231 l 493 -231 q 426 -212 453 -231 l 426 -212 q 381 -183 400 -194 q 350 -171 361 -171 l 350 -171 q 331 -184 336 -171 q 324 -218 326 -197 l 324 -218 l 233 -218 q 258 -92 233 -133 l 258 -92 q 292 -62 271 -72 q 333 -53 313 -53 l 333 -53 q 384 -64 364 -53 q 418 -86 404 -75 l 418 -86 q 448 -106 432 -96 q 476 -117 464 -117 l 476 -117 q 513 -96 504 -117 q 525 -56 522 -75 l 525 -56 l 615 -56 q 605 -137 615 -104 q 579 -194 594 -171 l 579 -194 q 542 -222 567 -212 q 493 -231 518 -231 z "},"Ǝ":{"ha":800,"x_min":40,"x_max":760,"o":"m 758 188 l 758 0 l 40 0 l 40 188 q 40 217 40 211 q 40 226 40 224 q 40 238 40 229 l 40 238 l 40 239 q 40 251 40 249 q 40 260 40 253 q 40 290 40 268 l 40 290 l 40 361 q 40 391 40 385 q 40 400 40 397 q 40 411 40 403 l 40 411 l 40 413 q 40 424 40 422 q 40 434 40 426 q 40 464 40 442 l 40 464 l 40 694 l 165 694 q 186 631 165 653 q 258 610 207 610 l 258 610 l 435 610 l 435 701 l 272 701 l 272 799 l 435 799 l 435 883 l 267 883 q 194 858 215 883 q 174 790 174 832 l 174 790 l 49 790 l 49 994 l 760 994 l 760 883 q 687 854 708 883 q 665 783 665 825 l 665 783 l 665 694 q 686 628 665 653 q 758 603 707 603 l 758 603 l 758 464 q 758 435 758 442 q 758 425 758 428 q 758 413 758 422 l 758 413 l 758 411 q 758 400 758 403 q 758 391 758 397 q 758 361 758 385 l 758 361 l 758 290 q 758 260 758 268 q 758 251 758 253 q 758 239 758 249 l 758 239 l 758 238 q 758 226 758 229 q 758 217 758 224 q 758 188 758 211 l 758 188 z "},"Ə":{"ha":800,"x_min":40,"x_max":760,"o":"m 40 994 l 758 994 l 758 807 q 758 778 758 785 q 758 769 758 771 q 758 757 758 767 l 758 757 l 758 756 q 758 744 758 747 q 758 735 758 742 q 758 704 758 728 l 758 704 l 758 633 q 758 604 758 611 q 758 595 758 597 q 758 583 758 593 l 758 583 l 758 582 q 758 570 758 574 q 758 560 758 567 q 758 531 758 553 l 758 531 l 758 392 q 686 367 707 392 q 665 300 665 342 l 665 300 l 665 211 q 687 140 665 169 q 760 111 708 111 l 760 111 l 760 0 l 49 0 l 49 204 l 174 204 q 194 137 174 163 q 267 111 215 111 l 267 111 l 435 111 l 435 196 l 272 196 l 272 293 l 435 293 l 435 385 l 258 385 q 186 363 207 385 q 165 300 165 342 l 165 300 l 40 300 l 40 531 q 40 561 40 554 q 40 571 40 568 q 40 582 40 574 l 40 582 l 40 583 q 40 595 40 593 q 40 604 40 597 q 40 633 40 611 l 40 633 l 40 704 q 40 735 40 728 q 40 744 40 742 q 40 756 40 747 l 40 756 l 40 757 q 40 769 40 767 q 40 778 40 771 q 40 807 40 785 l 40 807 l 40 994 z "},"Ʒ":{"ha":847,"x_min":35,"x_max":819,"o":"m 557 -8 l 297 -8 q 130 47 200 -8 q 40 188 60 101 l 40 188 q 38 202 39 194 q 35 219 36 210 q 35 236 35 228 l 35 236 l 35 238 q 35 249 35 247 q 35 259 35 251 q 35 290 35 267 l 35 290 l 35 361 q 35 391 35 385 q 35 400 35 397 q 35 411 35 403 l 35 411 l 35 413 q 35 424 35 422 q 35 434 35 426 q 35 464 35 442 l 35 464 l 35 690 l 263 690 q 278 632 263 654 q 319 610 294 610 l 319 610 l 476 610 q 527 624 511 610 q 543 658 543 638 l 543 658 q 534 691 543 681 q 490 701 525 701 l 490 701 l 386 701 l 386 799 l 519 879 l 307 879 q 235 855 256 879 q 214 789 214 831 l 214 789 l 61 789 l 61 994 l 774 994 l 774 892 l 621 790 q 684 782 650 790 q 749 750 718 774 q 799 681 779 726 q 819 561 819 636 l 819 561 l 819 464 q 819 434 819 442 q 819 424 819 426 q 819 413 819 422 l 819 413 l 819 411 q 819 400 819 403 q 819 391 819 397 q 819 361 819 385 l 819 361 l 819 290 q 819 260 819 268 q 819 251 819 253 q 819 239 819 249 l 819 239 l 819 238 q 819 219 819 229 q 817 202 818 210 q 814 188 815 194 l 814 188 q 724 47 794 101 q 557 -8 654 -8 l 557 -8 z "},"Ǯ":{"ha":847,"x_min":35,"x_max":819,"o":"m 557 -8 l 297 -8 q 130 47 200 -8 q 40 188 60 101 l 40 188 q 38 202 39 194 q 35 219 36 210 q 35 236 35 228 l 35 236 l 35 238 q 35 249 35 247 q 35 259 35 251 q 35 290 35 267 l 35 290 l 35 361 q 35 391 35 385 q 35 400 35 397 q 35 411 35 403 l 35 411 l 35 413 q 35 424 35 422 q 35 434 35 426 q 35 464 35 442 l 35 464 l 35 690 l 263 690 q 278 632 263 654 q 319 610 294 610 l 319 610 l 476 610 q 527 624 511 610 q 543 658 543 638 l 543 658 q 534 691 543 681 q 490 701 525 701 l 490 701 l 386 701 l 386 799 l 519 879 l 307 879 q 235 855 256 879 q 214 789 214 831 l 214 789 l 61 789 l 61 994 l 774 994 l 774 892 l 621 790 q 684 782 650 790 q 749 750 718 774 q 799 681 779 726 q 819 561 819 636 l 819 561 l 819 464 q 819 434 819 442 q 819 424 819 426 q 819 413 819 422 l 819 413 l 819 411 q 819 400 819 403 q 819 391 819 397 q 819 361 819 385 l 819 361 l 819 290 q 819 260 819 268 q 819 251 819 253 q 819 239 819 249 l 819 239 l 819 238 q 819 219 819 229 q 817 202 818 210 q 814 188 815 194 l 814 188 q 724 47 794 101 q 557 -8 654 -8 l 557 -8 z m 514 1051 l 329 1051 l 236 1225 l 347 1225 l 424 1132 l 504 1231 l 613 1231 l 514 1051 z "},"Ƹ":{"ha":847,"x_min":28,"x_max":813,"o":"m 550 -8 l 550 -8 l 290 -8 q 123 47 193 -8 q 33 188 53 101 l 33 188 q 31 202 32 194 q 28 219 29 210 q 28 238 28 229 l 28 238 l 28 239 q 28 251 28 249 q 28 260 28 253 q 28 290 28 268 l 28 290 l 28 361 q 28 391 28 385 q 28 400 28 397 q 28 411 28 403 l 28 411 l 28 413 q 28 424 28 422 q 28 434 28 426 q 28 464 28 442 l 28 464 l 28 561 q 48 681 28 636 q 99 750 68 726 q 163 782 129 774 q 226 790 197 790 l 226 790 l 74 892 l 74 994 l 786 994 l 786 789 l 633 789 q 613 855 633 831 q 540 879 593 879 l 540 879 l 328 879 l 461 799 l 461 701 l 357 701 q 313 691 322 701 q 304 658 304 681 l 304 658 q 320 624 304 638 q 371 610 336 610 l 371 610 l 528 610 q 569 632 553 610 q 585 690 585 654 l 585 690 l 813 690 l 813 464 q 813 434 813 442 q 813 424 813 426 q 813 413 813 422 l 813 413 l 813 411 q 813 400 813 403 q 813 391 813 397 q 813 361 813 385 l 813 361 l 813 290 q 813 259 813 267 q 813 249 813 251 q 813 238 813 247 l 813 238 l 813 236 q 812 219 813 228 q 810 202 811 210 q 807 188 808 194 l 807 188 q 717 47 788 101 q 550 -8 647 -8 z "},"F":{"ha":774,"x_min":40,"x_max":746,"o":"m 615 0 l 40 0 l 40 188 q 40 217 40 211 q 40 226 40 224 q 40 238 40 229 l 40 238 l 40 239 q 40 251 40 249 q 40 260 40 253 q 40 290 40 268 l 40 290 l 40 361 q 40 391 40 385 q 40 400 40 397 q 40 411 40 403 l 40 411 l 40 413 q 40 425 40 422 q 40 435 40 428 q 40 464 40 442 l 40 464 l 40 603 q 113 628 93 603 q 133 694 133 653 l 133 694 l 133 783 q 113 854 133 825 q 40 883 92 883 l 40 883 l 40 994 l 746 994 l 746 790 l 621 790 q 601 858 621 832 q 528 883 581 883 l 528 883 l 364 883 l 364 794 l 528 794 l 528 697 l 364 697 q 385 633 364 656 q 457 610 406 610 l 457 610 l 615 610 l 615 0 z "},"Ḟ":{"ha":774,"x_min":40,"x_max":746,"o":"m 615 0 l 40 0 l 40 188 q 40 217 40 211 q 40 226 40 224 q 40 238 40 229 l 40 238 l 40 239 q 40 251 40 249 q 40 260 40 253 q 40 290 40 268 l 40 290 l 40 361 q 40 391 40 385 q 40 400 40 397 q 40 411 40 403 l 40 411 l 40 413 q 40 425 40 422 q 40 435 40 428 q 40 464 40 442 l 40 464 l 40 603 q 113 628 93 603 q 133 694 133 653 l 133 694 l 133 783 q 113 854 133 825 q 40 883 92 883 l 40 883 l 40 994 l 746 994 l 746 790 l 621 790 q 601 858 621 832 q 528 883 581 883 l 528 883 l 364 883 l 364 794 l 528 794 l 528 697 l 364 697 q 385 633 364 656 q 457 610 406 610 l 457 610 l 615 610 l 615 0 z m 397 1043 l 397 1043 q 336 1068 358 1043 q 314 1128 314 1093 l 314 1128 q 338 1186 314 1161 q 399 1211 363 1211 l 399 1211 q 457 1185 432 1211 q 482 1128 482 1160 l 482 1128 q 467 1081 482 1100 q 433 1053 453 1063 q 397 1043 413 1043 z "},"Ƒ":{"ha":774,"x_min":40,"x_max":746,"o":"m 615 0 l 40 0 l 40 188 q 40 217 40 211 q 40 226 40 224 q 40 238 40 229 l 40 238 l 40 239 q 40 251 40 249 q 40 260 40 253 q 40 290 40 268 l 40 290 l 40 361 q 40 391 40 385 q 40 400 40 397 q 40 411 40 403 l 40 411 l 40 413 q 40 425 40 422 q 40 435 40 428 q 40 464 40 442 l 40 464 l 40 603 q 113 628 93 603 q 133 694 133 653 l 133 694 l 133 783 q 113 854 133 825 q 40 883 92 883 l 40 883 l 40 994 l 746 994 l 746 790 l 621 790 q 601 858 621 832 q 528 883 581 883 l 528 883 l 364 883 l 364 794 l 528 794 l 528 697 l 364 697 q 385 633 364 656 q 457 610 406 610 l 457 610 l 615 610 l 615 0 z m 440 1051 l 343 1051 q 388 1097 367 1069 q 410 1146 410 1124 l 410 1146 q 389 1183 410 1175 q 353 1190 368 1190 l 353 1190 q 264 1143 304 1190 l 264 1143 l 264 1244 q 319 1274 288 1263 q 394 1286 351 1286 l 394 1286 q 485 1256 449 1286 q 522 1174 522 1226 l 522 1174 q 499 1101 522 1133 q 440 1051 476 1068 l 440 1051 z "},"G":{"ha":856,"x_min":40,"x_max":815,"o":"m 419 -8 l 303 -8 q 135 47 206 -8 q 46 188 65 101 l 46 188 q 43 203 44 194 q 41 222 42 213 q 40 236 40 231 l 40 236 l 40 238 q 40 249 40 247 q 40 259 40 251 q 40 290 40 267 l 40 290 l 40 361 q 40 391 40 385 q 40 400 40 397 q 40 411 40 403 l 40 411 l 40 413 q 40 424 40 422 q 40 434 40 426 q 40 464 40 442 l 40 464 l 40 744 q 74 878 40 819 q 168 969 108 936 q 303 1003 228 1003 l 303 1003 l 592 1003 q 755 950 694 1003 q 815 821 815 897 l 815 821 l 588 821 q 494 883 588 883 l 494 883 l 415 883 q 346 863 371 883 q 321 790 321 843 l 321 790 l 321 703 q 346 631 321 651 q 415 610 371 610 l 415 610 l 542 610 q 576 624 564 610 q 588 661 588 639 l 588 661 l 463 661 l 463 756 l 815 756 l 815 464 q 815 434 815 442 q 815 424 815 426 q 815 413 815 422 l 815 413 l 815 411 q 815 400 815 403 q 815 391 815 397 q 815 361 815 385 l 815 361 l 815 0 l 690 0 l 690 157 q 672 216 690 193 q 610 239 654 239 l 610 239 l 610 156 q 592 75 610 113 q 533 15 574 38 q 419 -8 492 -8 l 419 -8 z "},"Ǵ":{"ha":856,"x_min":40,"x_max":815,"o":"m 419 -8 l 303 -8 q 135 47 206 -8 q 46 188 65 101 l 46 188 q 43 203 44 194 q 41 222 42 213 q 40 236 40 231 l 40 236 l 40 238 q 40 249 40 247 q 40 259 40 251 q 40 290 40 267 l 40 290 l 40 361 q 40 391 40 385 q 40 400 40 397 q 40 411 40 403 l 40 411 l 40 413 q 40 424 40 422 q 40 434 40 426 q 40 464 40 442 l 40 464 l 40 744 q 74 878 40 819 q 168 969 108 936 q 303 1003 228 1003 l 303 1003 l 592 1003 q 755 950 694 1003 q 815 821 815 897 l 815 821 l 588 821 q 494 883 588 883 l 494 883 l 415 883 q 346 863 371 883 q 321 790 321 843 l 321 790 l 321 703 q 346 631 321 651 q 415 610 371 610 l 415 610 l 542 610 q 576 624 564 610 q 588 661 588 639 l 588 661 l 463 661 l 463 756 l 815 756 l 815 464 q 815 434 815 442 q 815 424 815 426 q 815 413 815 422 l 815 413 l 815 411 q 815 400 815 403 q 815 391 815 397 q 815 361 815 385 l 815 361 l 815 0 l 690 0 l 690 157 q 672 216 690 193 q 610 239 654 239 l 610 239 l 610 156 q 592 75 610 113 q 533 15 574 38 q 419 -8 492 -8 l 419 -8 z m 503 1051 l 371 1051 l 476 1213 l 651 1213 l 503 1051 z "},"Ğ":{"ha":856,"x_min":40,"x_max":815,"o":"m 419 -8 l 303 -8 q 135 47 206 -8 q 46 188 65 101 l 46 188 q 43 203 44 194 q 41 222 42 213 q 40 236 40 231 l 40 236 l 40 238 q 40 249 40 247 q 40 259 40 251 q 40 290 40 267 l 40 290 l 40 361 q 40 391 40 385 q 40 400 40 397 q 40 411 40 403 l 40 411 l 40 413 q 40 424 40 422 q 40 434 40 426 q 40 464 40 442 l 40 464 l 40 744 q 74 878 40 819 q 168 969 108 936 q 303 1003 228 1003 l 303 1003 l 592 1003 q 755 950 694 1003 q 815 821 815 897 l 815 821 l 588 821 q 494 883 588 883 l 494 883 l 415 883 q 346 863 371 883 q 321 790 321 843 l 321 790 l 321 703 q 346 631 321 651 q 415 610 371 610 l 415 610 l 542 610 q 576 624 564 610 q 588 661 588 639 l 588 661 l 463 661 l 463 756 l 815 756 l 815 464 q 815 434 815 442 q 815 424 815 426 q 815 413 815 422 l 815 413 l 815 411 q 815 400 815 403 q 815 391 815 397 q 815 361 815 385 l 815 361 l 815 0 l 690 0 l 690 157 q 672 216 690 193 q 610 239 654 239 l 610 239 l 610 156 q 592 75 610 113 q 533 15 574 38 q 419 -8 492 -8 l 419 -8 z m 440 1035 l 440 1035 q 322 1081 365 1035 q 275 1210 278 1128 l 275 1210 l 365 1210 q 440 1136 388 1136 l 440 1136 q 518 1210 496 1136 l 518 1210 l 611 1210 q 565 1083 611 1131 q 440 1035 518 1035 z "},"Ǧ":{"ha":856,"x_min":40,"x_max":815,"o":"m 419 -8 l 303 -8 q 135 47 206 -8 q 46 188 65 101 l 46 188 q 43 203 44 194 q 41 222 42 213 q 40 236 40 231 l 40 236 l 40 238 q 40 249 40 247 q 40 259 40 251 q 40 290 40 267 l 40 290 l 40 361 q 40 391 40 385 q 40 400 40 397 q 40 411 40 403 l 40 411 l 40 413 q 40 424 40 422 q 40 434 40 426 q 40 464 40 442 l 40 464 l 40 744 q 74 878 40 819 q 168 969 108 936 q 303 1003 228 1003 l 303 1003 l 592 1003 q 755 950 694 1003 q 815 821 815 897 l 815 821 l 588 821 q 494 883 588 883 l 494 883 l 415 883 q 346 863 371 883 q 321 790 321 843 l 321 790 l 321 703 q 346 631 321 651 q 415 610 371 610 l 415 610 l 542 610 q 576 624 564 610 q 588 661 588 639 l 588 661 l 463 661 l 463 756 l 815 756 l 815 464 q 815 434 815 442 q 815 424 815 426 q 815 413 815 422 l 815 413 l 815 411 q 815 400 815 403 q 815 391 815 397 q 815 361 815 385 l 815 361 l 815 0 l 690 0 l 690 157 q 672 216 690 193 q 610 239 654 239 l 610 239 l 610 156 q 592 75 610 113 q 533 15 574 38 q 419 -8 492 -8 l 419 -8 z m 531 1051 l 346 1051 l 253 1225 l 364 1225 l 440 1132 l 521 1231 l 629 1231 l 531 1051 z "},"Ĝ":{"ha":856,"x_min":40,"x_max":815,"o":"m 419 -8 l 303 -8 q 135 47 206 -8 q 46 188 65 101 l 46 188 q 43 203 44 194 q 41 222 42 213 q 40 236 40 231 l 40 236 l 40 238 q 40 249 40 247 q 40 259 40 251 q 40 290 40 267 l 40 290 l 40 361 q 40 391 40 385 q 40 400 40 397 q 40 411 40 403 l 40 411 l 40 413 q 40 424 40 422 q 40 434 40 426 q 40 464 40 442 l 40 464 l 40 744 q 74 878 40 819 q 168 969 108 936 q 303 1003 228 1003 l 303 1003 l 592 1003 q 755 950 694 1003 q 815 821 815 897 l 815 821 l 588 821 q 494 883 588 883 l 494 883 l 415 883 q 346 863 371 883 q 321 790 321 843 l 321 790 l 321 703 q 346 631 321 651 q 415 610 371 610 l 415 610 l 542 610 q 576 624 564 610 q 588 661 588 639 l 588 661 l 463 661 l 463 756 l 815 756 l 815 464 q 815 434 815 442 q 815 424 815 426 q 815 413 815 422 l 815 413 l 815 411 q 815 400 815 403 q 815 391 815 397 q 815 361 815 385 l 815 361 l 815 0 l 690 0 l 690 157 q 672 216 690 193 q 610 239 654 239 l 610 239 l 610 156 q 592 75 610 113 q 533 15 574 38 q 419 -8 492 -8 l 419 -8 z m 363 1051 l 249 1051 l 351 1228 l 532 1228 l 640 1051 l 529 1051 l 440 1139 l 363 1051 z "},"Ģ":{"ha":856,"x_min":40,"x_max":815,"o":"m 419 -8 l 303 -8 q 135 47 206 -8 q 46 188 65 101 l 46 188 q 43 203 44 194 q 41 222 42 213 q 40 236 40 231 l 40 236 l 40 238 q 40 249 40 247 q 40 259 40 251 q 40 290 40 267 l 40 290 l 40 361 q 40 391 40 385 q 40 400 40 397 q 40 411 40 403 l 40 411 l 40 413 q 40 424 40 422 q 40 434 40 426 q 40 464 40 442 l 40 464 l 40 744 q 74 878 40 819 q 168 969 108 936 q 303 1003 228 1003 l 303 1003 l 592 1003 q 755 950 694 1003 q 815 821 815 897 l 815 821 l 588 821 q 494 883 588 883 l 494 883 l 415 883 q 346 863 371 883 q 321 790 321 843 l 321 790 l 321 703 q 346 631 321 651 q 415 610 371 610 l 415 610 l 542 610 q 576 624 564 610 q 588 661 588 639 l 588 661 l 463 661 l 463 756 l 815 756 l 815 464 q 815 434 815 442 q 815 424 815 426 q 815 413 815 422 l 815 413 l 815 411 q 815 400 815 403 q 815 391 815 397 q 815 361 815 385 l 815 361 l 815 0 l 690 0 l 690 157 q 672 216 690 193 q 610 239 654 239 l 610 239 l 610 156 q 592 75 610 113 q 533 15 574 38 q 419 -8 492 -8 l 419 -8 z m 332 -304 l 332 -304 l 324 -292 q 365 -249 356 -274 q 375 -212 375 -224 l 375 -212 q 319 -191 343 -212 q 296 -132 296 -169 l 296 -132 q 322 -67 296 -92 q 381 -43 347 -43 l 381 -43 q 421 -51 399 -43 q 460 -81 443 -58 q 476 -144 476 -103 l 476 -144 q 463 -205 476 -169 q 419 -269 450 -240 q 332 -304 388 -297 z "},"Ġ":{"ha":856,"x_min":40,"x_max":815,"o":"m 419 -8 l 303 -8 q 135 47 206 -8 q 46 188 65 101 l 46 188 q 43 203 44 194 q 41 222 42 213 q 40 236 40 231 l 40 236 l 40 238 q 40 249 40 247 q 40 259 40 251 q 40 290 40 267 l 40 290 l 40 361 q 40 391 40 385 q 40 400 40 397 q 40 411 40 403 l 40 411 l 40 413 q 40 424 40 422 q 40 434 40 426 q 40 464 40 442 l 40 464 l 40 744 q 74 878 40 819 q 168 969 108 936 q 303 1003 228 1003 l 303 1003 l 592 1003 q 755 950 694 1003 q 815 821 815 897 l 815 821 l 588 821 q 494 883 588 883 l 494 883 l 415 883 q 346 863 371 883 q 321 790 321 843 l 321 790 l 321 703 q 346 631 321 651 q 415 610 371 610 l 415 610 l 542 610 q 576 624 564 610 q 588 661 588 639 l 588 661 l 463 661 l 463 756 l 815 756 l 815 464 q 815 434 815 442 q 815 424 815 426 q 815 413 815 422 l 815 413 l 815 411 q 815 400 815 403 q 815 391 815 397 q 815 361 815 385 l 815 361 l 815 0 l 690 0 l 690 157 q 672 216 690 193 q 610 239 654 239 l 610 239 l 610 156 q 592 75 610 113 q 533 15 574 38 q 419 -8 492 -8 l 419 -8 z m 440 1043 l 440 1043 q 379 1068 401 1043 q 357 1128 357 1093 l 357 1128 q 381 1186 357 1161 q 442 1211 406 1211 l 442 1211 q 500 1185 475 1211 q 525 1128 525 1160 l 525 1128 q 510 1081 525 1100 q 476 1053 496 1063 q 440 1043 456 1043 z "},"Ɠ":{"ha":856,"x_min":40,"x_max":989,"o":"m 419 -8 l 303 -8 q 135 47 206 -8 q 46 188 65 101 l 46 188 q 43 203 44 194 q 41 222 42 213 q 40 236 40 231 l 40 236 l 40 238 q 40 249 40 247 q 40 259 40 251 q 40 290 40 267 l 40 290 l 40 361 q 40 391 40 385 q 40 400 40 397 q 40 411 40 403 l 40 411 l 40 413 q 40 424 40 422 q 40 434 40 426 q 40 464 40 442 l 40 464 l 40 744 q 74 878 40 819 q 168 970 108 936 q 303 1004 228 1004 l 303 1004 l 592 1004 q 711 991 661 1004 q 788 938 761 978 q 815 821 815 899 l 815 821 l 588 821 q 494 883 588 883 l 494 883 l 415 883 q 342 863 364 883 q 321 790 321 843 l 321 790 l 321 703 q 342 631 321 651 q 415 610 364 610 l 415 610 l 542 610 q 576 624 564 610 q 588 661 588 639 l 588 661 l 463 661 l 463 756 l 815 756 l 815 464 q 815 434 815 442 q 815 424 815 426 q 815 413 815 422 l 815 413 l 815 411 q 815 400 815 403 q 815 391 815 397 q 815 361 815 385 l 815 361 l 815 0 l 690 0 l 690 157 q 672 216 690 193 q 610 239 654 239 l 610 239 l 610 156 q 592 75 610 113 q 533 15 574 38 q 419 -8 492 -8 l 419 -8 z m 815 821 l 700 821 l 700 972 q 756 1160 700 1100 q 906 1221 811 1221 l 906 1221 q 989 1203 950 1221 l 989 1203 l 989 1040 q 944 1061 969 1053 q 896 1069 919 1069 l 896 1069 q 838 1047 860 1069 q 815 972 815 1024 l 815 972 l 815 821 z "},"Ɂ":{"ha":785,"x_min":46,"x_max":785,"o":"m 588 -1 l 154 -1 l 154 186 q 154 216 154 210 q 154 225 154 222 q 154 236 154 228 l 154 236 l 154 238 q 154 249 154 247 q 154 259 154 251 q 154 289 154 267 l 154 289 l 154 426 q 227 448 207 426 q 247 511 247 469 l 247 511 l 247 713 l 354 713 q 420 718 382 713 q 487 743 458 724 q 515 806 515 763 l 515 806 q 489 865 515 847 q 421 883 463 883 l 421 883 l 390 883 q 274 783 274 883 l 274 783 l 46 783 q 138 950 46 897 q 410 1003 229 1003 l 410 1003 q 687 951 589 1003 q 785 767 785 899 l 785 767 q 744 647 785 693 q 637 579 703 600 q 494 558 571 558 l 494 558 l 494 515 q 515 451 494 475 q 588 426 536 426 l 588 426 l 588 -1 z "},"Ḡ":{"ha":856,"x_min":40,"x_max":815,"o":"m 419 -8 l 303 -8 q 135 47 206 -8 q 46 188 65 101 l 46 188 q 43 203 44 194 q 41 222 42 213 q 40 236 40 231 l 40 236 l 40 238 q 40 249 40 247 q 40 259 40 251 q 40 290 40 267 l 40 290 l 40 361 q 40 391 40 385 q 40 400 40 397 q 40 411 40 403 l 40 411 l 40 413 q 40 424 40 422 q 40 434 40 426 q 40 464 40 442 l 40 464 l 40 744 q 74 878 40 819 q 168 969 108 936 q 303 1003 228 1003 l 303 1003 l 592 1003 q 755 950 694 1003 q 815 821 815 897 l 815 821 l 588 821 q 494 883 588 883 l 494 883 l 415 883 q 346 863 371 883 q 321 790 321 843 l 321 790 l 321 703 q 346 631 321 651 q 415 610 371 610 l 415 610 l 542 610 q 576 624 564 610 q 588 661 588 639 l 588 661 l 463 661 l 463 756 l 815 756 l 815 464 q 815 434 815 442 q 815 424 815 426 q 815 413 815 422 l 815 413 l 815 411 q 815 400 815 403 q 815 391 815 397 q 815 361 815 385 l 815 361 l 815 0 l 690 0 l 690 157 q 672 216 690 193 q 610 239 654 239 l 610 239 l 610 156 q 592 75 610 113 q 533 15 574 38 q 419 -8 492 -8 l 419 -8 z m 642 1058 l 239 1058 l 239 1163 l 642 1163 l 642 1058 z "},"Ǥ":{"ha":928,"x_min":40,"x_max":914,"o":"m 419 -8 l 303 -8 q 135 47 206 -8 q 46 188 65 101 l 46 188 q 43 203 44 194 q 41 222 42 213 q 40 236 40 231 l 40 236 l 40 238 q 40 249 40 247 q 40 259 40 251 q 40 290 40 267 l 40 290 l 40 361 q 40 391 40 385 q 40 400 40 397 q 40 411 40 403 l 40 411 l 40 413 q 40 424 40 422 q 40 434 40 426 q 40 464 40 442 l 40 464 l 40 744 q 74 878 40 819 q 168 969 108 936 q 303 1003 228 1003 l 303 1003 l 592 1003 q 755 950 694 1003 q 815 821 815 897 l 815 821 l 588 821 q 494 883 588 883 l 494 883 l 415 883 q 342 863 364 883 q 321 790 321 843 l 321 790 l 321 703 q 342 631 321 651 q 415 610 364 610 l 415 610 l 542 610 q 576 624 564 610 q 588 661 588 639 l 588 661 l 463 661 l 463 756 l 815 756 l 815 464 q 815 434 815 442 q 815 424 815 426 q 815 413 815 422 l 815 413 l 815 411 q 815 400 815 403 q 815 391 815 397 q 815 361 815 385 l 815 361 l 815 0 l 690 0 l 690 157 q 672 216 690 193 q 610 239 654 239 l 610 239 l 610 156 q 592 75 610 113 q 533 15 574 38 q 419 -8 492 -8 l 419 -8 z m 914 272 l 793 272 l 793 361 l 914 361 l 914 272 z "},"H":{"ha":972,"x_min":40,"x_max":932,"o":"m 446 0 l 40 0 l 40 188 q 40 217 40 211 q 40 226 40 224 q 40 238 40 229 l 40 238 l 40 239 q 40 251 40 249 q 40 260 40 253 q 40 290 40 268 l 40 290 l 40 361 q 40 391 40 385 q 40 400 40 397 q 40 411 40 403 l 40 411 l 40 413 q 40 424 40 422 q 40 434 40 426 q 40 464 40 442 l 40 464 l 40 603 q 113 628 93 603 q 133 694 133 653 l 133 694 l 133 783 q 113 854 133 825 q 40 883 93 883 l 40 883 l 40 994 l 446 994 l 446 876 q 376 856 399 876 q 353 799 353 835 l 353 799 l 619 799 q 597 856 619 835 q 526 876 574 876 l 526 876 l 526 994 l 932 994 l 932 883 q 860 854 881 883 q 839 783 839 825 l 839 783 l 839 694 q 860 628 839 653 q 932 603 881 603 l 932 603 l 932 0 l 526 0 l 526 188 q 526 217 526 211 q 526 226 526 224 q 526 238 526 229 l 526 238 l 526 239 q 526 251 526 249 q 526 260 526 253 q 526 290 526 268 l 526 290 l 526 361 q 526 391 526 385 q 526 400 526 397 q 526 411 526 403 l 526 411 l 526 413 q 526 424 526 422 q 526 434 526 426 q 526 464 526 442 l 526 464 l 526 610 q 599 635 579 610 q 619 701 619 660 l 619 701 l 353 701 q 374 635 353 660 q 446 610 394 610 l 446 610 l 446 0 z "},"Ħ":{"ha":972,"x_min":40,"x_max":932,"o":"m 932 0 l 526 0 l 526 188 q 526 217 526 211 q 526 226 526 224 q 526 238 526 229 l 526 238 l 526 239 q 526 251 526 249 q 526 260 526 253 q 526 290 526 268 l 526 290 l 526 361 q 526 391 526 385 q 526 400 526 397 q 526 411 526 403 l 526 411 l 526 413 q 526 424 526 422 q 526 434 526 426 q 526 464 526 442 l 526 464 l 526 610 q 599 635 579 610 q 619 701 619 660 l 619 701 l 619 799 q 597 856 619 835 q 526 876 574 876 l 526 876 l 526 994 l 932 994 l 932 883 q 860 854 881 883 q 839 783 839 825 l 839 783 l 839 694 q 860 628 839 653 q 932 603 881 603 l 932 603 l 932 0 z m 446 0 l 40 0 l 40 188 q 40 217 40 211 q 40 226 40 224 q 40 238 40 229 l 40 238 l 40 239 q 40 251 40 249 q 40 260 40 253 q 40 290 40 268 l 40 290 l 40 361 q 40 391 40 385 q 40 400 40 397 q 40 411 40 403 l 40 411 l 40 413 q 40 424 40 422 q 40 434 40 426 q 40 464 40 442 l 40 464 l 40 603 q 113 628 93 603 q 133 694 133 653 l 133 694 l 133 783 q 113 854 133 825 q 40 883 93 883 l 40 883 l 40 994 l 446 994 l 446 876 q 376 856 399 876 q 353 799 353 835 l 353 799 l 353 701 q 374 635 353 660 q 446 610 394 610 l 446 610 l 446 0 z m 653 672 l 318 672 l 318 735 l 653 735 l 653 672 z m 926 765 l 40 765 l 40 828 l 926 828 l 926 765 z "},"Ḫ":{"ha":972,"x_min":40,"x_max":932,"o":"m 446 0 l 40 0 l 40 188 q 40 217 40 211 q 40 226 40 224 q 40 238 40 229 l 40 238 l 40 239 q 40 251 40 249 q 40 260 40 253 q 40 290 40 268 l 40 290 l 40 361 q 40 391 40 385 q 40 400 40 397 q 40 411 40 403 l 40 411 l 40 413 q 40 424 40 422 q 40 434 40 426 q 40 464 40 442 l 40 464 l 40 603 q 113 628 93 603 q 133 694 133 653 l 133 694 l 133 783 q 113 854 133 825 q 40 883 93 883 l 40 883 l 40 994 l 446 994 l 446 876 q 376 856 399 876 q 353 799 353 835 l 353 799 l 619 799 q 597 856 619 835 q 526 876 574 876 l 526 876 l 526 994 l 932 994 l 932 883 q 860 854 881 883 q 839 783 839 825 l 839 783 l 839 694 q 860 628 839 653 q 932 603 881 603 l 932 603 l 932 0 l 526 0 l 526 188 q 526 217 526 211 q 526 226 526 224 q 526 238 526 229 l 526 238 l 526 239 q 526 251 526 249 q 526 260 526 253 q 526 290 526 268 l 526 290 l 526 361 q 526 391 526 385 q 526 400 526 397 q 526 411 526 403 l 526 411 l 526 413 q 526 424 526 422 q 526 434 526 426 q 526 464 526 442 l 526 464 l 526 610 q 599 635 579 610 q 619 701 619 660 l 619 701 l 353 701 q 374 635 353 660 q 446 610 394 610 l 446 610 l 446 0 z m 483 -236 l 483 -236 q 365 -190 408 -236 q 318 -61 321 -143 l 318 -61 l 408 -61 q 483 -135 431 -135 l 483 -135 q 561 -61 539 -135 l 561 -61 l 654 -61 q 608 -188 654 -140 q 483 -236 561 -236 z "},"Ȟ":{"ha":972,"x_min":40,"x_max":932,"o":"m 446 0 l 40 0 l 40 188 q 40 217 40 211 q 40 226 40 224 q 40 238 40 229 l 40 238 l 40 239 q 40 251 40 249 q 40 260 40 253 q 40 290 40 268 l 40 290 l 40 361 q 40 391 40 385 q 40 400 40 397 q 40 411 40 403 l 40 411 l 40 413 q 40 424 40 422 q 40 434 40 426 q 40 464 40 442 l 40 464 l 40 603 q 113 628 93 603 q 133 694 133 653 l 133 694 l 133 783 q 113 854 133 825 q 40 883 93 883 l 40 883 l 40 994 l 446 994 l 446 876 q 376 856 399 876 q 353 799 353 835 l 353 799 l 619 799 q 597 856 619 835 q 526 876 574 876 l 526 876 l 526 994 l 932 994 l 932 883 q 860 854 881 883 q 839 783 839 825 l 839 783 l 839 694 q 860 628 839 653 q 932 603 881 603 l 932 603 l 932 0 l 526 0 l 526 188 q 526 217 526 211 q 526 226 526 224 q 526 238 526 229 l 526 238 l 526 239 q 526 251 526 249 q 526 260 526 253 q 526 290 526 268 l 526 290 l 526 361 q 526 391 526 385 q 526 400 526 397 q 526 411 526 403 l 526 411 l 526 413 q 526 424 526 422 q 526 434 526 426 q 526 464 526 442 l 526 464 l 526 610 q 599 635 579 610 q 619 701 619 660 l 619 701 l 353 701 q 374 635 353 660 q 446 610 394 610 l 446 610 l 446 0 z m 575 1051 l 390 1051 l 297 1225 l 408 1225 l 485 1132 l 565 1231 l 674 1231 l 575 1051 z "},"Ḩ":{"ha":972,"x_min":40,"x_max":932,"o":"m 446 0 l 40 0 l 40 188 q 40 217 40 211 q 40 226 40 224 q 40 238 40 229 l 40 238 l 40 239 q 40 251 40 249 q 40 260 40 253 q 40 290 40 268 l 40 290 l 40 361 q 40 391 40 385 q 40 400 40 397 q 40 411 40 403 l 40 411 l 40 413 q 40 424 40 422 q 40 434 40 426 q 40 464 40 442 l 40 464 l 40 603 q 113 628 93 603 q 133 694 133 653 l 133 694 l 133 783 q 113 854 133 825 q 40 883 93 883 l 40 883 l 40 994 l 446 994 l 446 876 q 376 856 399 876 q 353 799 353 835 l 353 799 l 619 799 q 597 856 619 835 q 526 876 574 876 l 526 876 l 526 994 l 932 994 l 932 883 q 860 854 881 883 q 839 783 839 825 l 839 783 l 839 694 q 860 628 839 653 q 932 603 881 603 l 932 603 l 932 0 l 526 0 l 526 188 q 526 217 526 211 q 526 226 526 224 q 526 238 526 229 l 526 238 l 526 239 q 526 251 526 249 q 526 260 526 253 q 526 290 526 268 l 526 290 l 526 361 q 526 391 526 385 q 526 400 526 397 q 526 411 526 403 l 526 411 l 526 413 q 526 424 526 422 q 526 434 526 426 q 526 464 526 442 l 526 464 l 526 610 q 599 635 579 610 q 619 701 619 660 l 619 701 l 353 701 q 374 635 353 660 q 446 610 394 610 l 446 610 l 446 0 z m 354 -290 l 354 -290 q 289 -278 322 -290 q 236 -247 256 -265 l 236 -247 l 236 -149 q 277 -188 253 -174 q 324 -203 301 -203 l 324 -203 q 364 -191 347 -203 q 381 -157 381 -179 l 381 -157 q 347 -106 381 -126 q 263 -86 313 -86 l 263 -86 l 321 0 l 446 0 l 406 -43 q 478 -87 456 -54 q 501 -157 501 -119 l 501 -157 q 458 -253 501 -215 q 354 -290 414 -290 z "},"Ĥ":{"ha":972,"x_min":40,"x_max":932,"o":"m 446 0 l 40 0 l 40 188 q 40 217 40 211 q 40 226 40 224 q 40 238 40 229 l 40 238 l 40 239 q 40 251 40 249 q 40 260 40 253 q 40 290 40 268 l 40 290 l 40 361 q 40 391 40 385 q 40 400 40 397 q 40 411 40 403 l 40 411 l 40 413 q 40 424 40 422 q 40 434 40 426 q 40 464 40 442 l 40 464 l 40 603 q 113 628 93 603 q 133 694 133 653 l 133 694 l 133 783 q 113 854 133 825 q 40 883 93 883 l 40 883 l 40 994 l 446 994 l 446 876 q 376 856 399 876 q 353 799 353 835 l 353 799 l 619 799 q 597 856 619 835 q 526 876 574 876 l 526 876 l 526 994 l 932 994 l 932 883 q 860 854 881 883 q 839 783 839 825 l 839 783 l 839 694 q 860 628 839 653 q 932 603 881 603 l 932 603 l 932 0 l 526 0 l 526 188 q 526 217 526 211 q 526 226 526 224 q 526 238 526 229 l 526 238 l 526 239 q 526 251 526 249 q 526 260 526 253 q 526 290 526 268 l 526 290 l 526 361 q 526 391 526 385 q 526 400 526 397 q 526 411 526 403 l 526 411 l 526 413 q 526 424 526 422 q 526 434 526 426 q 526 464 526 442 l 526 464 l 526 610 q 599 635 579 610 q 619 701 619 660 l 619 701 l 353 701 q 374 635 353 660 q 446 610 394 610 l 446 610 l 446 0 z m 407 1051 l 293 1051 l 396 1228 l 576 1228 l 685 1051 l 574 1051 l 485 1139 l 407 1051 z "},"Ḧ":{"ha":972,"x_min":40,"x_max":932,"o":"m 446 0 l 40 0 l 40 188 q 40 217 40 211 q 40 226 40 224 q 40 238 40 229 l 40 238 l 40 239 q 40 251 40 249 q 40 260 40 253 q 40 290 40 268 l 40 290 l 40 361 q 40 391 40 385 q 40 400 40 397 q 40 411 40 403 l 40 411 l 40 413 q 40 424 40 422 q 40 434 40 426 q 40 464 40 442 l 40 464 l 40 603 q 113 628 93 603 q 133 694 133 653 l 133 694 l 133 783 q 113 854 133 825 q 40 883 93 883 l 40 883 l 40 994 l 446 994 l 446 876 q 376 856 399 876 q 353 799 353 835 l 353 799 l 619 799 q 597 856 619 835 q 526 876 574 876 l 526 876 l 526 994 l 932 994 l 932 883 q 860 854 881 883 q 839 783 839 825 l 839 783 l 839 694 q 860 628 839 653 q 932 603 881 603 l 932 603 l 932 0 l 526 0 l 526 188 q 526 217 526 211 q 526 226 526 224 q 526 238 526 229 l 526 238 l 526 239 q 526 251 526 249 q 526 260 526 253 q 526 290 526 268 l 526 290 l 526 361 q 526 391 526 385 q 526 400 526 397 q 526 411 526 403 l 526 411 l 526 413 q 526 424 526 422 q 526 434 526 426 q 526 464 526 442 l 526 464 l 526 610 q 599 635 579 610 q 619 701 619 660 l 619 701 l 353 701 q 374 635 353 660 q 446 610 394 610 l 446 610 l 446 0 z m 583 1043 l 583 1043 q 525 1069 550 1043 q 500 1126 500 1096 l 500 1126 q 515 1173 500 1154 q 549 1201 529 1192 q 585 1211 569 1211 l 585 1211 q 647 1186 625 1211 q 668 1126 668 1161 l 668 1126 q 644 1068 668 1093 q 583 1043 619 1043 z m 385 1043 l 385 1043 q 324 1068 346 1043 q 301 1128 301 1093 l 301 1128 q 326 1186 301 1161 q 386 1211 350 1211 l 386 1211 q 444 1185 419 1211 q 469 1128 469 1160 l 469 1128 q 455 1081 469 1100 q 420 1053 440 1063 q 385 1043 400 1043 z "},"Ḣ":{"ha":972,"x_min":40,"x_max":932,"o":"m 446 0 l 40 0 l 40 188 q 40 217 40 211 q 40 226 40 224 q 40 238 40 229 l 40 238 l 40 239 q 40 251 40 249 q 40 260 40 253 q 40 290 40 268 l 40 290 l 40 361 q 40 391 40 385 q 40 400 40 397 q 40 411 40 403 l 40 411 l 40 413 q 40 424 40 422 q 40 434 40 426 q 40 464 40 442 l 40 464 l 40 603 q 113 628 93 603 q 133 694 133 653 l 133 694 l 133 783 q 113 854 133 825 q 40 883 93 883 l 40 883 l 40 994 l 446 994 l 446 876 q 376 856 399 876 q 353 799 353 835 l 353 799 l 619 799 q 597 856 619 835 q 526 876 574 876 l 526 876 l 526 994 l 932 994 l 932 883 q 860 854 881 883 q 839 783 839 825 l 839 783 l 839 694 q 860 628 839 653 q 932 603 881 603 l 932 603 l 932 0 l 526 0 l 526 188 q 526 217 526 211 q 526 226 526 224 q 526 238 526 229 l 526 238 l 526 239 q 526 251 526 249 q 526 260 526 253 q 526 290 526 268 l 526 290 l 526 361 q 526 391 526 385 q 526 400 526 397 q 526 411 526 403 l 526 411 l 526 413 q 526 424 526 422 q 526 434 526 426 q 526 464 526 442 l 526 464 l 526 610 q 599 635 579 610 q 619 701 619 660 l 619 701 l 353 701 q 374 635 353 660 q 446 610 394 610 l 446 610 l 446 0 z m 485 1043 l 485 1043 q 424 1068 446 1043 q 401 1128 401 1093 l 401 1128 q 426 1186 401 1161 q 486 1211 450 1211 l 486 1211 q 544 1185 519 1211 q 569 1128 569 1160 l 569 1128 q 555 1081 569 1100 q 520 1053 540 1063 q 485 1043 500 1043 z "},"Ḥ":{"ha":972,"x_min":40,"x_max":932,"o":"m 446 0 l 40 0 l 40 188 q 40 217 40 211 q 40 226 40 224 q 40 238 40 229 l 40 238 l 40 239 q 40 251 40 249 q 40 260 40 253 q 40 290 40 268 l 40 290 l 40 361 q 40 391 40 385 q 40 400 40 397 q 40 411 40 403 l 40 411 l 40 413 q 40 424 40 422 q 40 434 40 426 q 40 464 40 442 l 40 464 l 40 603 q 113 628 93 603 q 133 694 133 653 l 133 694 l 133 783 q 113 854 133 825 q 40 883 93 883 l 40 883 l 40 994 l 446 994 l 446 876 q 376 856 399 876 q 353 799 353 835 l 353 799 l 619 799 q 597 856 619 835 q 526 876 574 876 l 526 876 l 526 994 l 932 994 l 932 883 q 860 854 881 883 q 839 783 839 825 l 839 783 l 839 694 q 860 628 839 653 q 932 603 881 603 l 932 603 l 932 0 l 526 0 l 526 188 q 526 217 526 211 q 526 226 526 224 q 526 238 526 229 l 526 238 l 526 239 q 526 251 526 249 q 526 260 526 253 q 526 290 526 268 l 526 290 l 526 361 q 526 391 526 385 q 526 400 526 397 q 526 411 526 403 l 526 411 l 526 413 q 526 424 526 422 q 526 434 526 426 q 526 464 526 442 l 526 464 l 526 610 q 599 635 579 610 q 619 701 619 660 l 619 701 l 353 701 q 374 635 353 660 q 446 610 394 610 l 446 610 l 446 0 z m 486 -211 l 486 -211 q 425 -186 447 -211 q 403 -126 403 -161 l 403 -126 q 427 -68 403 -93 q 488 -43 451 -43 l 488 -43 q 546 -69 521 -43 q 571 -126 571 -94 l 571 -126 q 556 -173 571 -154 q 522 -201 542 -192 q 486 -211 501 -211 z "},"Ꜧ":{"ha":972,"x_min":40,"x_max":932,"o":"m 482 -194 l 482 -194 l 453 -137 q 506 -83 490 -114 q 524 -21 521 -53 q 526 36 526 11 l 526 36 l 526 188 q 526 217 526 211 q 526 226 526 224 q 526 238 526 229 l 526 238 l 526 239 q 526 251 526 249 q 526 260 526 253 q 526 290 526 268 l 526 290 l 526 361 q 526 391 526 385 q 526 400 526 397 q 526 411 526 403 l 526 411 l 526 413 q 526 424 526 422 q 526 434 526 426 q 526 464 526 442 l 526 464 l 526 610 q 599 631 579 610 q 619 694 619 653 l 619 694 l 619 701 l 353 701 l 353 694 q 374 631 353 653 q 446 610 394 610 l 446 610 l 446 0 l 40 0 l 40 188 q 40 217 40 211 q 40 226 40 224 q 40 238 40 229 l 40 238 l 40 239 q 40 251 40 249 q 40 260 40 253 q 40 290 40 268 l 40 290 l 40 361 q 40 391 40 385 q 40 400 40 397 q 40 411 40 403 l 40 411 l 40 413 q 40 424 40 422 q 40 434 40 426 q 40 464 40 442 l 40 464 l 40 603 q 113 628 93 603 q 133 694 133 653 l 133 694 l 133 783 q 113 854 133 825 q 40 883 93 883 l 40 883 l 40 994 l 446 994 l 446 876 q 378 856 399 876 q 353 799 357 835 l 353 799 l 619 799 q 594 856 615 835 q 526 876 574 876 l 526 876 l 526 994 l 932 994 l 932 883 q 860 854 881 883 q 839 783 839 825 l 839 783 l 839 694 q 860 628 839 653 q 932 603 881 603 l 932 603 l 932 103 q 896 -58 932 1 q 797 -147 860 -118 q 653 -185 733 -176 q 482 -194 572 -194 z "},"Ɦ":{"ha":1093,"x_min":0,"x_max":1053,"o":"m 567 0 l 161 0 l 161 188 q 161 217 161 211 q 161 226 161 224 q 161 238 161 229 l 161 238 l 161 239 q 161 251 161 249 q 161 260 161 253 q 161 290 161 268 l 161 290 l 161 361 q 161 391 161 385 q 161 400 161 397 q 161 411 161 403 l 161 411 l 161 413 q 161 424 161 422 q 161 434 161 426 q 161 464 161 442 l 161 464 l 161 603 q 234 628 214 603 q 254 694 254 653 l 254 694 l 254 994 l 567 994 l 567 876 q 497 856 519 876 q 474 799 474 835 l 474 799 l 740 799 q 717 856 740 835 q 647 876 694 876 l 647 876 l 647 994 l 1053 994 l 1053 883 q 981 854 1001 883 q 960 783 960 825 l 960 783 l 960 694 q 981 628 960 653 q 1053 603 1001 603 l 1053 603 l 1053 0 l 647 0 l 647 188 q 647 217 647 211 q 647 226 647 224 q 647 238 647 229 l 647 238 l 647 239 q 647 251 647 249 q 647 260 647 253 q 647 290 647 268 l 647 290 l 647 361 q 647 391 647 385 q 647 400 647 397 q 647 411 647 403 l 647 411 l 647 413 q 647 424 647 422 q 647 434 647 426 q 647 464 647 442 l 647 464 l 647 610 q 720 635 700 610 q 740 701 740 660 l 740 701 l 474 701 q 494 635 474 660 q 567 610 515 610 l 567 610 l 567 0 z m 194 661 l 18 661 q 5 713 10 679 q 0 782 0 747 l 0 782 q 11 852 0 815 q 50 922 22 889 q 127 974 78 954 q 254 994 176 994 l 254 994 l 254 890 q 171 865 194 890 q 147 800 147 839 l 147 800 q 162 727 147 765 q 194 661 176 689 l 194 661 z "},"Ɥ":{"ha":932,"x_min":0,"x_max":892,"o":"m 892 0 l 347 0 l 347 188 q 347 217 347 211 q 347 226 347 224 q 347 238 347 229 l 347 238 l 347 239 q 347 251 347 249 q 347 260 347 253 q 347 290 347 268 l 347 290 l 347 361 q 347 391 347 385 q 347 400 347 397 q 347 411 347 403 l 347 411 l 347 413 q 347 424 347 422 q 347 434 347 426 q 347 464 347 442 l 347 464 l 347 610 l 486 610 q 558 629 536 610 q 579 688 579 649 l 579 688 l 235 688 q 148 706 179 688 q 105 756 117 724 q 93 832 93 789 l 93 832 q 73 872 93 861 q 0 883 53 883 l 0 883 l 0 994 l 406 994 l 406 876 l 369 876 q 313 831 313 876 l 313 831 q 371 785 313 785 l 371 785 l 579 785 q 559 851 579 825 q 486 876 539 876 l 486 876 l 486 994 l 892 994 l 892 883 q 819 854 840 883 q 799 783 799 825 l 799 783 l 799 694 q 819 628 799 653 q 892 603 840 603 l 892 603 l 892 0 z "},"I":{"ha":486,"x_min":40,"x_max":446,"o":"m 446 0 l 40 0 l 40 188 q 40 217 40 211 q 40 226 40 224 q 40 238 40 229 l 40 238 l 40 239 q 40 251 40 249 q 40 260 40 253 q 40 290 40 268 l 40 290 l 40 361 q 40 391 40 385 q 40 400 40 397 q 40 411 40 403 l 40 411 l 40 413 q 40 424 40 422 q 40 434 40 426 q 40 464 40 442 l 40 464 l 40 603 q 113 625 93 603 q 133 692 133 647 l 133 692 l 133 788 q 113 858 133 832 q 40 883 93 883 l 40 883 l 40 994 l 446 994 l 446 883 q 374 855 394 883 q 353 788 353 826 l 353 788 l 353 692 q 374 628 353 653 q 446 603 394 603 l 446 603 l 446 0 z "},"Ĳ":{"ha":1347,"x_min":40,"x_max":1297,"o":"m 446 0 l 40 0 l 40 188 q 40 217 40 211 q 40 226 40 224 q 40 238 40 229 l 40 238 l 40 239 q 40 251 40 249 q 40 260 40 253 q 40 290 40 268 l 40 290 l 40 361 q 40 391 40 385 q 40 400 40 397 q 40 411 40 403 l 40 411 l 40 413 q 40 424 40 422 q 40 434 40 426 q 40 464 40 442 l 40 464 l 40 603 q 113 625 93 603 q 133 692 133 647 l 133 692 l 133 788 q 113 858 133 832 q 40 883 93 883 l 40 883 l 40 994 l 446 994 l 446 883 q 374 855 394 883 q 353 788 353 826 l 353 788 l 353 692 q 374 628 353 653 q 446 603 394 603 l 446 603 l 446 0 z m 1035 -8 l 792 -8 q 624 47 694 -8 q 535 188 554 101 l 535 188 q 532 202 533 194 q 530 219 531 210 q 529 236 529 228 l 529 236 l 529 238 q 529 249 529 247 q 529 259 529 251 q 529 290 529 267 l 529 290 l 529 361 q 529 391 529 385 q 529 400 529 397 q 529 411 529 403 l 529 411 l 529 413 q 529 424 529 422 q 529 434 529 426 q 529 464 529 442 l 529 464 l 529 756 l 661 756 l 661 694 q 682 631 661 653 q 754 610 703 610 l 754 610 l 892 610 q 965 631 944 610 q 985 694 985 653 l 985 694 l 985 790 q 965 858 985 832 q 892 883 944 883 l 892 883 l 892 994 l 1297 994 l 1297 883 q 1225 854 1246 883 q 1204 783 1204 825 l 1204 783 l 1204 694 q 1225 628 1204 653 q 1297 603 1246 603 l 1297 603 l 1297 464 q 1297 434 1297 442 q 1297 424 1297 426 q 1297 413 1297 422 l 1297 413 l 1297 411 q 1297 400 1297 403 q 1297 391 1297 397 q 1297 361 1297 385 l 1297 361 l 1297 290 q 1297 260 1297 268 q 1297 251 1297 253 q 1297 239 1297 249 l 1297 239 l 1297 238 q 1297 219 1297 229 q 1294 202 1296 210 q 1292 188 1293 194 l 1292 188 q 1202 47 1272 101 q 1035 -8 1132 -8 l 1035 -8 z "},"Í":{"ha":486,"x_min":40,"x_max":454,"o":"m 446 0 l 40 0 l 40 188 q 40 217 40 211 q 40 226 40 224 q 40 238 40 229 l 40 238 l 40 239 q 40 251 40 249 q 40 260 40 253 q 40 290 40 268 l 40 290 l 40 361 q 40 391 40 385 q 40 400 40 397 q 40 411 40 403 l 40 411 l 40 413 q 40 424 40 422 q 40 434 40 426 q 40 464 40 442 l 40 464 l 40 603 q 113 625 93 603 q 133 692 133 647 l 133 692 l 133 788 q 113 858 133 832 q 40 883 93 883 l 40 883 l 40 994 l 446 994 l 446 883 q 374 855 394 883 q 353 788 353 826 l 353 788 l 353 692 q 374 628 353 653 q 446 603 394 603 l 446 603 l 446 0 z m 306 1051 l 174 1051 l 279 1213 l 454 1213 l 306 1051 z "},"Ǐ":{"ha":486,"x_min":40,"x_max":446,"o":"m 446 0 l 40 0 l 40 188 q 40 217 40 211 q 40 226 40 224 q 40 238 40 229 l 40 238 l 40 239 q 40 251 40 249 q 40 260 40 253 q 40 290 40 268 l 40 290 l 40 361 q 40 391 40 385 q 40 400 40 397 q 40 411 40 403 l 40 411 l 40 413 q 40 424 40 422 q 40 434 40 426 q 40 464 40 442 l 40 464 l 40 603 q 113 625 93 603 q 133 692 133 647 l 133 692 l 133 788 q 113 858 133 832 q 40 883 93 883 l 40 883 l 40 994 l 446 994 l 446 883 q 374 855 394 883 q 353 788 353 826 l 353 788 l 353 692 q 374 628 353 653 q 446 603 394 603 l 446 603 l 446 0 z m 333 1051 l 149 1051 l 56 1225 l 167 1225 l 243 1132 l 324 1231 l 432 1231 l 333 1051 z "},"Î":{"ha":486,"x_min":40,"x_max":446,"o":"m 446 0 l 40 0 l 40 188 q 40 217 40 211 q 40 226 40 224 q 40 238 40 229 l 40 238 l 40 239 q 40 251 40 249 q 40 260 40 253 q 40 290 40 268 l 40 290 l 40 361 q 40 391 40 385 q 40 400 40 397 q 40 411 40 403 l 40 411 l 40 413 q 40 424 40 422 q 40 434 40 426 q 40 464 40 442 l 40 464 l 40 603 q 113 625 93 603 q 133 692 133 647 l 133 692 l 133 788 q 113 858 133 832 q 40 883 93 883 l 40 883 l 40 994 l 446 994 l 446 883 q 374 855 394 883 q 353 788 353 826 l 353 788 l 353 692 q 374 628 353 653 q 446 603 394 603 l 446 603 l 446 0 z m 165 1051 l 51 1051 l 154 1228 l 335 1228 l 443 1051 l 332 1051 l 243 1139 l 165 1051 z "},"Ȉ":{"ha":486,"x_min":-26,"x_max":446,"o":"m 446 0 l 40 0 l 40 188 q 40 217 40 211 q 40 226 40 224 q 40 238 40 229 l 40 238 l 40 239 q 40 251 40 249 q 40 260 40 253 q 40 290 40 268 l 40 290 l 40 361 q 40 391 40 385 q 40 400 40 397 q 40 411 40 403 l 40 411 l 40 413 q 40 424 40 422 q 40 434 40 426 q 40 464 40 442 l 40 464 l 40 603 q 113 625 93 603 q 133 692 133 647 l 133 692 l 133 788 q 113 858 133 832 q 40 883 93 883 l 40 883 l 40 994 l 446 994 l 446 883 q 374 855 394 883 q 353 788 353 826 l 353 788 l 353 692 q 374 628 353 653 q 446 603 394 603 l 446 603 l 446 0 z m 204 1051 l 103 1051 l -26 1215 l 129 1213 l 204 1051 z m 389 1051 l 289 1051 l 160 1213 l 315 1210 l 389 1051 z "},"Ï":{"ha":486,"x_min":40,"x_max":446,"o":"m 446 0 l 40 0 l 40 188 q 40 217 40 211 q 40 226 40 224 q 40 238 40 229 l 40 238 l 40 239 q 40 251 40 249 q 40 260 40 253 q 40 290 40 268 l 40 290 l 40 361 q 40 391 40 385 q 40 400 40 397 q 40 411 40 403 l 40 411 l 40 413 q 40 424 40 422 q 40 434 40 426 q 40 464 40 442 l 40 464 l 40 603 q 113 625 93 603 q 133 692 133 647 l 133 692 l 133 788 q 113 858 133 832 q 40 883 93 883 l 40 883 l 40 994 l 446 994 l 446 883 q 374 855 394 883 q 353 788 353 826 l 353 788 l 353 692 q 374 628 353 653 q 446 603 394 603 l 446 603 l 446 0 z m 342 1043 l 342 1043 q 283 1069 308 1043 q 258 1126 258 1096 l 258 1126 q 273 1173 258 1154 q 308 1201 288 1192 q 343 1211 328 1211 l 343 1211 q 405 1186 383 1211 q 426 1126 426 1161 l 426 1126 q 402 1068 426 1093 q 342 1043 378 1043 z m 143 1043 l 143 1043 q 82 1068 104 1043 q 60 1128 60 1093 l 60 1128 q 84 1186 60 1161 q 144 1211 108 1211 l 144 1211 q 203 1185 178 1211 q 228 1128 228 1160 l 228 1128 q 213 1081 228 1100 q 178 1053 199 1063 q 143 1043 158 1043 z "},"Ḯ":{"ha":486,"x_min":40,"x_max":451,"o":"m 446 0 l 40 0 l 40 188 q 40 217 40 211 q 40 226 40 224 q 40 238 40 229 l 40 238 l 40 239 q 40 251 40 249 q 40 260 40 253 q 40 290 40 268 l 40 290 l 40 361 q 40 391 40 385 q 40 400 40 397 q 40 411 40 403 l 40 411 l 40 413 q 40 424 40 422 q 40 434 40 426 q 40 464 40 442 l 40 464 l 40 603 q 113 625 93 603 q 133 692 133 647 l 133 692 l 133 788 q 113 858 133 832 q 40 883 93 883 l 40 883 l 40 994 l 446 994 l 446 883 q 374 855 394 883 q 353 788 353 826 l 353 788 l 353 692 q 374 628 353 653 q 446 603 394 603 l 446 603 l 446 0 z m 342 1043 l 342 1043 q 283 1069 308 1043 q 258 1126 258 1096 l 258 1126 q 273 1173 258 1154 q 308 1201 288 1192 q 343 1211 328 1211 l 343 1211 q 405 1186 383 1211 q 426 1126 426 1161 l 426 1126 q 402 1068 426 1093 q 342 1043 378 1043 z m 143 1043 l 143 1043 q 82 1068 104 1043 q 60 1128 60 1093 l 60 1128 q 84 1186 60 1161 q 144 1211 108 1211 l 144 1211 q 203 1185 178 1211 q 228 1128 228 1160 l 228 1128 q 213 1081 228 1100 q 178 1053 199 1063 q 143 1043 158 1043 z m 303 1250 l 171 1250 l 276 1411 l 451 1411 l 303 1250 z "},"İ":{"ha":486,"x_min":40,"x_max":446,"o":"m 446 0 l 40 0 l 40 188 q 40 217 40 211 q 40 226 40 224 q 40 238 40 229 l 40 238 l 40 239 q 40 251 40 249 q 40 260 40 253 q 40 290 40 268 l 40 290 l 40 361 q 40 391 40 385 q 40 400 40 397 q 40 411 40 403 l 40 411 l 40 413 q 40 424 40 422 q 40 434 40 426 q 40 464 40 442 l 40 464 l 40 603 q 113 625 93 603 q 133 692 133 647 l 133 692 l 133 788 q 113 858 133 832 q 40 883 93 883 l 40 883 l 40 994 l 446 994 l 446 883 q 374 855 394 883 q 353 788 353 826 l 353 788 l 353 692 q 374 628 353 653 q 446 603 394 603 l 446 603 l 446 0 z m 243 1043 l 243 1043 q 182 1068 204 1043 q 160 1128 160 1093 l 160 1128 q 184 1186 160 1161 q 244 1211 208 1211 l 244 1211 q 303 1185 278 1211 q 328 1128 328 1160 l 328 1128 q 313 1081 328 1100 q 278 1053 299 1063 q 243 1043 258 1043 z "},"Ị":{"ha":486,"x_min":40,"x_max":446,"o":"m 446 0 l 40 0 l 40 188 q 40 217 40 211 q 40 226 40 224 q 40 238 40 229 l 40 238 l 40 239 q 40 251 40 249 q 40 260 40 253 q 40 290 40 268 l 40 290 l 40 361 q 40 391 40 385 q 40 400 40 397 q 40 411 40 403 l 40 411 l 40 413 q 40 424 40 422 q 40 434 40 426 q 40 464 40 442 l 40 464 l 40 603 q 113 625 93 603 q 133 692 133 647 l 133 692 l 133 788 q 113 858 133 832 q 40 883 93 883 l 40 883 l 40 994 l 446 994 l 446 883 q 374 855 394 883 q 353 788 353 826 l 353 788 l 353 692 q 374 628 353 653 q 446 603 394 603 l 446 603 l 446 0 z m 243 -211 l 243 -211 q 182 -186 204 -211 q 160 -126 160 -161 l 160 -126 q 184 -68 160 -93 q 244 -43 208 -43 l 244 -43 q 303 -69 278 -43 q 328 -126 328 -94 l 328 -126 q 313 -173 328 -154 q 278 -201 299 -192 q 243 -211 258 -211 z "},"Ì":{"ha":486,"x_min":35,"x_max":446,"o":"m 446 0 l 40 0 l 40 188 q 40 217 40 211 q 40 226 40 224 q 40 238 40 229 l 40 238 l 40 239 q 40 251 40 249 q 40 260 40 253 q 40 290 40 268 l 40 290 l 40 361 q 40 391 40 385 q 40 400 40 397 q 40 411 40 403 l 40 411 l 40 413 q 40 424 40 422 q 40 434 40 426 q 40 464 40 442 l 40 464 l 40 603 q 113 625 93 603 q 133 692 133 647 l 133 692 l 133 788 q 113 858 133 832 q 40 883 93 883 l 40 883 l 40 994 l 446 994 l 446 883 q 374 855 394 883 q 353 788 353 826 l 353 788 l 353 692 q 374 628 353 653 q 446 603 394 603 l 446 603 l 446 0 z m 317 1051 l 179 1051 l 35 1213 l 215 1210 l 317 1051 z "},"Ỉ":{"ha":486,"x_min":40,"x_max":446,"o":"m 446 0 l 40 0 l 40 188 q 40 217 40 211 q 40 226 40 224 q 40 238 40 229 l 40 238 l 40 239 q 40 251 40 249 q 40 260 40 253 q 40 290 40 268 l 40 290 l 40 361 q 40 391 40 385 q 40 400 40 397 q 40 411 40 403 l 40 411 l 40 413 q 40 424 40 422 q 40 434 40 426 q 40 464 40 442 l 40 464 l 40 603 q 113 625 93 603 q 133 692 133 647 l 133 692 l 133 788 q 113 858 133 832 q 40 883 93 883 l 40 883 l 40 994 l 446 994 l 446 883 q 374 855 394 883 q 353 788 353 826 l 353 788 l 353 692 q 374 628 353 653 q 446 603 394 603 l 446 603 l 446 0 z m 286 1051 l 189 1051 q 234 1097 213 1069 q 256 1146 256 1124 l 256 1146 q 235 1183 256 1175 q 199 1190 214 1190 l 199 1190 q 110 1143 150 1190 l 110 1143 l 110 1244 q 165 1274 133 1263 q 240 1286 197 1286 l 240 1286 q 331 1256 294 1286 q 368 1174 368 1226 l 368 1174 q 345 1101 368 1133 q 286 1051 322 1068 l 286 1051 z "},"Ȋ":{"ha":486,"x_min":40,"x_max":446,"o":"m 446 0 l 40 0 l 40 188 q 40 217 40 211 q 40 226 40 224 q 40 238 40 229 l 40 238 l 40 239 q 40 251 40 249 q 40 260 40 253 q 40 290 40 268 l 40 290 l 40 361 q 40 391 40 385 q 40 400 40 397 q 40 411 40 403 l 40 411 l 40 413 q 40 424 40 422 q 40 434 40 426 q 40 464 40 442 l 40 464 l 40 603 q 113 625 93 603 q 133 692 133 647 l 133 692 l 133 788 q 113 858 133 832 q 40 883 93 883 l 40 883 l 40 994 l 446 994 l 446 883 q 374 855 394 883 q 353 788 353 826 l 353 788 l 353 692 q 374 628 353 653 q 446 603 394 603 l 446 603 l 446 0 z m 240 1226 l 240 1226 q 365 1178 318 1226 q 411 1051 411 1131 l 411 1051 l 318 1051 q 240 1125 296 1125 l 240 1125 q 165 1051 188 1125 l 165 1051 l 75 1051 q 122 1180 78 1133 q 240 1226 165 1226 z "},"Ī":{"ha":486,"x_min":40,"x_max":446,"o":"m 446 0 l 40 0 l 40 188 q 40 217 40 211 q 40 226 40 224 q 40 238 40 229 l 40 238 l 40 239 q 40 251 40 249 q 40 260 40 253 q 40 290 40 268 l 40 290 l 40 361 q 40 391 40 385 q 40 400 40 397 q 40 411 40 403 l 40 411 l 40 413 q 40 424 40 422 q 40 434 40 426 q 40 464 40 442 l 40 464 l 40 603 q 113 625 93 603 q 133 692 133 647 l 133 692 l 133 788 q 113 858 133 832 q 40 883 93 883 l 40 883 l 40 994 l 446 994 l 446 883 q 374 855 394 883 q 353 788 353 826 l 353 788 l 353 692 q 374 628 353 653 q 446 603 394 603 l 446 603 l 446 0 z m 444 1058 l 42 1058 l 42 1163 l 444 1163 l 444 1058 z "},"Į":{"ha":486,"x_min":40,"x_max":478,"o":"m 446 0 l 40 0 l 40 188 q 40 217 40 211 q 40 226 40 224 q 40 238 40 229 l 40 238 l 40 239 q 40 251 40 249 q 40 260 40 253 q 40 290 40 268 l 40 290 l 40 361 q 40 391 40 385 q 40 400 40 397 q 40 411 40 403 l 40 411 l 40 413 q 40 424 40 422 q 40 434 40 426 q 40 464 40 442 l 40 464 l 40 603 q 113 625 93 603 q 133 692 133 647 l 133 692 l 133 788 q 113 858 133 832 q 40 883 93 883 l 40 883 l 40 994 l 446 994 l 446 883 q 374 855 394 883 q 353 788 353 826 l 353 788 l 353 692 q 374 628 353 653 q 446 603 394 603 l 446 603 l 446 0 z m 360 -233 l 360 -233 q 256 -200 300 -233 q 213 -107 213 -167 l 213 -107 q 230 -44 213 -71 q 269 0 247 -17 l 269 0 l 446 0 q 376 -16 401 0 q 342 -52 351 -32 q 332 -87 332 -72 l 332 -87 q 353 -130 332 -117 q 403 -143 375 -143 l 403 -143 q 442 -134 424 -143 q 478 -111 461 -125 l 478 -111 l 478 -192 q 425 -222 458 -210 q 360 -233 392 -233 z "},"Ɩ":{"ha":486,"x_min":40,"x_max":446,"o":"m 446 0 l 40 0 l 40 188 q 40 217 40 211 q 40 226 40 224 q 40 238 40 229 l 40 238 l 40 239 q 40 251 40 249 q 40 260 40 253 q 40 290 40 268 l 40 290 l 40 361 q 40 391 40 385 q 40 400 40 397 q 40 411 40 403 l 40 411 l 40 413 q 40 424 40 422 q 40 434 40 426 q 40 464 40 442 l 40 464 l 40 603 q 113 625 93 603 q 133 692 133 647 l 133 692 l 133 788 q 113 858 133 832 q 40 883 93 883 l 40 883 l 40 994 l 446 994 l 446 883 q 374 855 394 883 q 353 788 353 826 l 353 788 l 353 692 q 374 628 353 653 q 446 603 394 603 l 446 603 l 446 0 z "},"Ɨ":{"ha":486,"x_min":38,"x_max":446,"o":"m 446 0 l 40 0 l 40 188 q 40 217 40 211 q 40 226 40 224 q 40 238 40 229 l 40 238 l 40 239 q 40 251 40 249 q 40 260 40 253 q 40 290 40 268 l 40 290 l 40 361 q 40 391 40 385 q 40 400 40 397 q 40 411 40 403 l 40 411 l 40 413 q 40 424 40 422 q 40 434 40 426 q 40 464 40 442 l 40 464 l 40 603 q 113 625 93 603 q 133 692 133 647 l 133 692 l 133 788 q 113 858 133 832 q 40 883 93 883 l 40 883 l 40 994 l 446 994 l 446 883 q 374 855 394 883 q 353 788 353 826 l 353 788 l 353 692 q 374 628 353 653 q 446 603 394 603 l 446 603 l 446 0 z m 443 694 l 38 694 l 38 792 l 443 792 l 443 694 z "},"Ĩ":{"ha":486,"x_min":40,"x_max":446,"o":"m 446 0 l 40 0 l 40 188 q 40 217 40 211 q 40 226 40 224 q 40 238 40 229 l 40 238 l 40 239 q 40 251 40 249 q 40 260 40 253 q 40 290 40 268 l 40 290 l 40 361 q 40 391 40 385 q 40 400 40 397 q 40 411 40 403 l 40 411 l 40 413 q 40 424 40 422 q 40 434 40 426 q 40 464 40 442 l 40 464 l 40 603 q 113 625 93 603 q 133 692 133 647 l 133 692 l 133 788 q 113 858 133 832 q 40 883 93 883 l 40 883 l 40 994 l 446 994 l 446 883 q 374 855 394 883 q 353 788 353 826 l 353 788 l 353 692 q 374 628 353 653 q 446 603 394 603 l 446 603 l 446 0 z m 318 1039 l 318 1039 q 251 1057 278 1039 l 251 1057 q 206 1087 225 1075 q 175 1099 186 1099 l 175 1099 q 156 1085 161 1099 q 149 1051 151 1072 l 149 1051 l 58 1051 q 83 1178 58 1136 l 83 1178 q 117 1207 96 1197 q 158 1217 138 1217 l 158 1217 q 209 1206 189 1217 q 243 1183 229 1194 l 243 1183 q 273 1163 257 1174 q 301 1153 289 1153 l 301 1153 q 338 1174 329 1153 q 350 1214 347 1194 l 350 1214 l 440 1214 q 430 1132 440 1165 q 404 1075 419 1099 l 404 1075 q 367 1048 392 1057 q 318 1039 343 1039 z "},"Ḭ":{"ha":486,"x_min":40,"x_max":446,"o":"m 446 0 l 40 0 l 40 188 q 40 217 40 211 q 40 226 40 224 q 40 238 40 229 l 40 238 l 40 239 q 40 251 40 249 q 40 260 40 253 q 40 290 40 268 l 40 290 l 40 361 q 40 391 40 385 q 40 400 40 397 q 40 411 40 403 l 40 411 l 40 413 q 40 424 40 422 q 40 434 40 426 q 40 464 40 442 l 40 464 l 40 603 q 113 625 93 603 q 133 692 133 647 l 133 692 l 133 788 q 113 858 133 832 q 40 883 93 883 l 40 883 l 40 994 l 446 994 l 446 883 q 374 855 394 883 q 353 788 353 826 l 353 788 l 353 692 q 374 628 353 653 q 446 603 394 603 l 446 603 l 446 0 z m 311 -231 l 311 -231 q 244 -212 271 -231 l 244 -212 q 199 -183 218 -194 q 168 -171 179 -171 l 168 -171 q 149 -184 154 -171 q 142 -218 144 -197 l 142 -218 l 51 -218 q 76 -92 51 -133 l 76 -92 q 110 -62 89 -72 q 151 -53 131 -53 l 151 -53 q 202 -64 182 -53 q 236 -86 222 -75 l 236 -86 q 266 -106 250 -96 q 294 -117 282 -117 l 294 -117 q 331 -96 322 -117 q 343 -56 340 -75 l 343 -56 l 433 -56 q 423 -137 433 -104 q 397 -194 413 -171 l 397 -194 q 360 -222 385 -212 q 311 -231 336 -231 z "},"J":{"ha":861,"x_min":43,"x_max":811,"o":"m 549 -8 l 306 -8 q 138 47 208 -8 q 49 188 68 101 l 49 188 q 46 202 47 194 q 44 219 44 210 q 43 236 43 228 l 43 236 l 43 238 q 43 249 43 247 q 43 259 43 251 q 43 290 43 267 l 43 290 l 43 361 q 43 391 43 385 q 43 400 43 397 q 43 411 43 403 l 43 411 l 43 413 q 43 424 43 422 q 43 434 43 426 q 43 464 43 442 l 43 464 l 43 756 l 175 756 l 175 694 q 196 631 175 653 q 268 610 217 610 l 268 610 l 406 610 q 478 631 458 610 q 499 694 499 653 l 499 694 l 499 790 q 478 858 499 832 q 406 883 458 883 l 406 883 l 406 994 l 811 994 l 811 883 q 739 854 760 883 q 718 783 718 825 l 718 783 l 718 694 q 739 628 718 653 q 811 603 760 603 l 811 603 l 811 464 q 811 434 811 442 q 811 424 811 426 q 811 413 811 422 l 811 413 l 811 411 q 811 400 811 403 q 811 391 811 397 q 811 361 811 385 l 811 361 l 811 290 q 811 260 811 268 q 811 251 811 253 q 811 239 811 249 l 811 239 l 811 238 q 810 219 811 229 q 808 202 810 210 q 806 188 807 194 l 806 188 q 716 47 786 101 q 549 -8 646 -8 l 549 -8 z "},"Ĵ":{"ha":861,"x_min":43,"x_max":811,"o":"m 549 -8 l 306 -8 q 138 47 208 -8 q 49 188 68 101 l 49 188 q 46 202 47 194 q 44 219 44 210 q 43 236 43 228 l 43 236 l 43 238 q 43 249 43 247 q 43 259 43 251 q 43 290 43 267 l 43 290 l 43 361 q 43 391 43 385 q 43 400 43 397 q 43 411 43 403 l 43 411 l 43 413 q 43 424 43 422 q 43 434 43 426 q 43 464 43 442 l 43 464 l 43 756 l 175 756 l 175 694 q 196 631 175 653 q 268 610 217 610 l 268 610 l 406 610 q 478 631 458 610 q 499 694 499 653 l 499 694 l 499 790 q 478 858 499 832 q 406 883 458 883 l 406 883 l 406 994 l 811 994 l 811 883 q 739 854 760 883 q 718 783 718 825 l 718 783 l 718 694 q 739 628 718 653 q 811 603 760 603 l 811 603 l 811 464 q 811 434 811 442 q 811 424 811 426 q 811 413 811 422 l 811 413 l 811 411 q 811 400 811 403 q 811 391 811 397 q 811 361 811 385 l 811 361 l 811 290 q 811 260 811 268 q 811 251 811 253 q 811 239 811 249 l 811 239 l 811 238 q 810 219 811 229 q 808 202 810 210 q 806 188 807 194 l 806 188 q 716 47 786 101 q 549 -8 646 -8 l 549 -8 z m 531 1051 l 417 1051 l 519 1228 l 700 1228 l 808 1051 l 697 1051 l 608 1139 l 531 1051 z "},"Ʝ":{"ha":863,"x_min":43,"x_max":813,"o":"m 549 -8 l 306 -8 q 138 47 208 -8 q 49 188 68 101 l 49 188 q 46 202 47 194 q 44 219 44 210 q 43 236 43 228 l 43 236 l 43 238 q 43 249 43 247 q 43 259 43 251 q 43 290 43 267 l 43 290 l 43 361 q 43 391 43 385 q 43 400 43 397 q 43 411 43 403 l 43 411 l 43 413 q 43 424 43 422 q 43 434 43 426 q 43 464 43 442 l 43 464 l 43 594 q 71 709 43 665 q 143 776 99 753 q 240 809 188 800 q 344 818 293 818 l 344 818 q 462 815 410 818 q 564 803 514 811 q 673 781 614 796 q 813 744 732 767 l 813 744 l 813 653 q 542 715 644 700 q 378 731 439 731 l 378 731 q 245 719 286 731 q 193 695 204 708 q 182 674 182 682 l 182 674 q 215 627 182 644 q 311 610 249 610 l 311 610 q 397 622 353 610 q 469 668 440 635 q 499 764 499 701 l 499 764 l 499 790 q 478 858 499 832 q 406 883 458 883 l 406 883 l 406 994 l 811 994 l 811 883 q 739 854 760 883 q 718 783 718 825 l 718 783 l 718 694 q 739 628 718 653 q 811 603 760 603 l 811 603 l 811 464 q 811 434 811 442 q 811 424 811 426 q 811 413 811 422 l 811 413 l 811 411 q 811 400 811 403 q 811 391 811 397 q 811 361 811 385 l 811 361 l 811 290 q 811 260 811 268 q 811 251 811 253 q 811 239 811 249 l 811 239 l 811 238 q 810 219 811 229 q 808 202 810 210 q 806 188 807 194 l 806 188 q 716 47 786 101 q 549 -8 646 -8 l 549 -8 z "},"Ɉ":{"ha":861,"x_min":43,"x_max":811,"o":"m 549 -8 l 306 -8 q 138 47 208 -8 q 49 188 68 101 l 49 188 q 46 202 47 194 q 44 219 44 210 q 43 236 43 228 l 43 236 l 43 238 q 43 249 43 247 q 43 259 43 251 q 43 290 43 267 l 43 290 l 43 361 q 43 391 43 385 q 43 400 43 397 q 43 411 43 403 l 43 411 l 43 413 q 43 424 43 422 q 43 434 43 426 q 43 464 43 442 l 43 464 l 43 756 l 175 756 l 175 694 q 196 631 175 653 q 268 610 217 610 l 268 610 l 406 610 q 478 631 458 610 q 499 694 499 653 l 499 694 l 499 790 q 478 858 499 832 q 406 883 458 883 l 406 883 l 406 994 l 811 994 l 811 883 q 739 854 760 883 q 718 783 718 825 l 718 783 l 718 694 q 739 628 718 653 q 811 603 760 603 l 811 603 l 811 464 q 811 434 811 442 q 811 424 811 426 q 811 413 811 422 l 811 413 l 811 411 q 811 400 811 403 q 811 391 811 397 q 811 361 811 385 l 811 361 l 811 290 q 811 260 811 268 q 811 251 811 253 q 811 239 811 249 l 811 239 l 811 238 q 810 219 811 229 q 808 202 810 210 q 806 188 807 194 l 806 188 q 716 47 786 101 q 549 -8 646 -8 l 549 -8 z m 810 692 l 404 692 l 404 789 l 810 789 l 810 692 z "},"K":{"ha":968,"x_min":40,"x_max":928,"o":"m 433 0 l 40 0 l 40 188 q 40 217 40 211 q 40 226 40 224 q 40 238 40 229 l 40 238 l 40 239 q 40 251 40 249 q 40 260 40 253 q 40 290 40 268 l 40 290 l 40 361 q 40 391 40 385 q 40 400 40 397 q 40 411 40 403 l 40 411 l 40 413 q 40 424 40 422 q 40 434 40 426 q 40 464 40 442 l 40 464 l 40 603 q 133 694 133 603 l 133 694 l 133 783 q 40 883 133 883 l 40 883 l 40 994 l 433 994 l 433 876 q 346 783 346 876 l 346 783 l 346 756 l 536 843 q 549 861 549 850 l 549 861 q 528 876 549 876 l 528 876 l 501 876 l 501 994 l 893 994 l 893 883 l 879 883 q 858 882 868 883 q 832 874 849 881 q 782 851 815 867 l 782 851 l 679 806 l 765 711 q 831 641 808 664 q 869 611 854 618 q 901 604 885 604 l 901 604 l 928 604 l 928 0 l 514 0 l 514 188 q 514 217 514 211 q 514 226 514 224 q 514 238 514 229 l 514 238 l 514 239 q 514 251 514 249 q 514 260 514 253 q 514 290 514 268 l 514 290 l 514 361 q 514 391 514 385 q 514 400 514 397 q 514 411 514 403 l 514 411 l 514 413 q 514 424 514 422 q 514 434 514 426 q 514 464 514 442 l 514 464 l 514 610 l 531 610 q 561 628 561 610 l 561 628 q 557 644 561 636 q 533 674 553 651 l 533 674 l 493 722 l 351 654 q 376 621 351 632 q 433 610 400 610 l 433 610 l 433 0 z "},"Ḱ":{"ha":968,"x_min":40,"x_max":928,"o":"m 433 0 l 40 0 l 40 188 q 40 217 40 211 q 40 226 40 224 q 40 238 40 229 l 40 238 l 40 239 q 40 251 40 249 q 40 260 40 253 q 40 290 40 268 l 40 290 l 40 361 q 40 391 40 385 q 40 400 40 397 q 40 411 40 403 l 40 411 l 40 413 q 40 424 40 422 q 40 434 40 426 q 40 464 40 442 l 40 464 l 40 603 q 133 694 133 603 l 133 694 l 133 783 q 40 883 133 883 l 40 883 l 40 994 l 433 994 l 433 876 q 346 783 346 876 l 346 783 l 346 756 l 536 843 q 549 861 549 850 l 549 861 q 528 876 549 876 l 528 876 l 501 876 l 501 994 l 893 994 l 893 883 l 879 883 q 858 882 868 883 q 832 874 849 881 q 782 851 815 867 l 782 851 l 679 806 l 765 711 q 831 641 808 664 q 869 611 854 618 q 901 604 885 604 l 901 604 l 928 604 l 928 0 l 514 0 l 514 188 q 514 217 514 211 q 514 226 514 224 q 514 238 514 229 l 514 238 l 514 239 q 514 251 514 249 q 514 260 514 253 q 514 290 514 268 l 514 290 l 514 361 q 514 391 514 385 q 514 400 514 397 q 514 411 514 403 l 514 411 l 514 413 q 514 424 514 422 q 514 434 514 426 q 514 464 514 442 l 514 464 l 514 610 l 531 610 q 561 628 561 610 l 561 628 q 557 644 561 636 q 533 674 553 651 l 533 674 l 493 722 l 351 654 q 376 621 351 632 q 433 610 400 610 l 433 610 l 433 0 z m 542 1051 l 410 1051 l 515 1213 l 690 1213 l 542 1051 z "},"Ǩ":{"ha":968,"x_min":40,"x_max":928,"o":"m 433 0 l 40 0 l 40 188 q 40 217 40 211 q 40 226 40 224 q 40 238 40 229 l 40 238 l 40 239 q 40 251 40 249 q 40 260 40 253 q 40 290 40 268 l 40 290 l 40 361 q 40 391 40 385 q 40 400 40 397 q 40 411 40 403 l 40 411 l 40 413 q 40 424 40 422 q 40 434 40 426 q 40 464 40 442 l 40 464 l 40 603 q 133 694 133 603 l 133 694 l 133 783 q 40 883 133 883 l 40 883 l 40 994 l 433 994 l 433 876 q 346 783 346 876 l 346 783 l 346 756 l 536 843 q 549 861 549 850 l 549 861 q 528 876 549 876 l 528 876 l 501 876 l 501 994 l 893 994 l 893 883 l 879 883 q 858 882 868 883 q 832 874 849 881 q 782 851 815 867 l 782 851 l 679 806 l 765 711 q 831 641 808 664 q 869 611 854 618 q 901 604 885 604 l 901 604 l 928 604 l 928 0 l 514 0 l 514 188 q 514 217 514 211 q 514 226 514 224 q 514 238 514 229 l 514 238 l 514 239 q 514 251 514 249 q 514 260 514 253 q 514 290 514 268 l 514 290 l 514 361 q 514 391 514 385 q 514 400 514 397 q 514 411 514 403 l 514 411 l 514 413 q 514 424 514 422 q 514 434 514 426 q 514 464 514 442 l 514 464 l 514 610 l 531 610 q 561 628 561 610 l 561 628 q 557 644 561 636 q 533 674 553 651 l 533 674 l 493 722 l 351 654 q 376 621 351 632 q 433 610 400 610 l 433 610 l 433 0 z m 569 1051 l 385 1051 l 292 1225 l 403 1225 l 479 1132 l 560 1231 l 668 1231 l 569 1051 z "},"Ķ":{"ha":968,"x_min":40,"x_max":928,"o":"m 433 0 l 40 0 l 40 188 q 40 217 40 211 q 40 226 40 224 q 40 238 40 229 l 40 238 l 40 239 q 40 251 40 249 q 40 260 40 253 q 40 290 40 268 l 40 290 l 40 361 q 40 391 40 385 q 40 400 40 397 q 40 411 40 403 l 40 411 l 40 413 q 40 424 40 422 q 40 434 40 426 q 40 464 40 442 l 40 464 l 40 603 q 133 694 133 603 l 133 694 l 133 783 q 40 883 133 883 l 40 883 l 40 994 l 433 994 l 433 876 q 346 783 346 876 l 346 783 l 346 756 l 536 843 q 549 861 549 850 l 549 861 q 528 876 549 876 l 528 876 l 501 876 l 501 994 l 893 994 l 893 883 l 879 883 q 858 882 868 883 q 832 874 849 881 q 782 851 815 867 l 782 851 l 679 806 l 765 711 q 831 641 808 664 q 869 611 854 618 q 901 604 885 604 l 901 604 l 928 604 l 928 0 l 514 0 l 514 188 q 514 217 514 211 q 514 226 514 224 q 514 238 514 229 l 514 238 l 514 239 q 514 251 514 249 q 514 260 514 253 q 514 290 514 268 l 514 290 l 514 361 q 514 391 514 385 q 514 400 514 397 q 514 411 514 403 l 514 411 l 514 413 q 514 424 514 422 q 514 434 514 426 q 514 464 514 442 l 514 464 l 514 610 l 531 610 q 561 628 561 610 l 561 628 q 557 644 561 636 q 533 674 553 651 l 533 674 l 493 722 l 351 654 q 376 621 351 632 q 433 610 400 610 l 433 610 l 433 0 z m 411 -304 l 411 -304 l 403 -292 q 444 -249 435 -274 q 454 -212 454 -224 l 454 -212 q 399 -191 422 -212 q 375 -132 375 -169 l 375 -132 q 401 -67 375 -92 q 460 -43 426 -43 l 460 -43 q 500 -51 478 -43 q 539 -81 522 -58 q 556 -144 556 -103 l 556 -144 q 542 -205 556 -169 q 498 -269 529 -240 q 411 -304 467 -297 z "},"Ḳ":{"ha":968,"x_min":40,"x_max":928,"o":"m 433 0 l 40 0 l 40 188 q 40 217 40 211 q 40 226 40 224 q 40 238 40 229 l 40 238 l 40 239 q 40 251 40 249 q 40 260 40 253 q 40 290 40 268 l 40 290 l 40 361 q 40 391 40 385 q 40 400 40 397 q 40 411 40 403 l 40 411 l 40 413 q 40 424 40 422 q 40 434 40 426 q 40 464 40 442 l 40 464 l 40 603 q 133 694 133 603 l 133 694 l 133 783 q 40 883 133 883 l 40 883 l 40 994 l 433 994 l 433 876 q 346 783 346 876 l 346 783 l 346 756 l 536 843 q 549 861 549 850 l 549 861 q 528 876 549 876 l 528 876 l 501 876 l 501 994 l 893 994 l 893 883 l 879 883 q 858 882 868 883 q 832 874 849 881 q 782 851 815 867 l 782 851 l 679 806 l 765 711 q 831 641 808 664 q 869 611 854 618 q 901 604 885 604 l 901 604 l 928 604 l 928 0 l 514 0 l 514 188 q 514 217 514 211 q 514 226 514 224 q 514 238 514 229 l 514 238 l 514 239 q 514 251 514 249 q 514 260 514 253 q 514 290 514 268 l 514 290 l 514 361 q 514 391 514 385 q 514 400 514 397 q 514 411 514 403 l 514 411 l 514 413 q 514 424 514 422 q 514 434 514 426 q 514 464 514 442 l 514 464 l 514 610 l 531 610 q 561 628 561 610 l 561 628 q 557 644 561 636 q 533 674 553 651 l 533 674 l 493 722 l 351 654 q 376 621 351 632 q 433 610 400 610 l 433 610 l 433 0 z m 460 -211 l 460 -211 q 399 -186 421 -211 q 376 -126 376 -161 l 376 -126 q 401 -68 376 -93 q 461 -43 425 -43 l 461 -43 q 519 -69 494 -43 q 544 -126 544 -94 l 544 -126 q 530 -173 544 -154 q 495 -201 515 -192 q 460 -211 475 -211 z "},"Ƙ":{"ha":1050,"x_min":40,"x_max":1057,"o":"m 433 0 l 40 0 l 40 188 q 40 217 40 211 q 40 226 40 224 q 40 238 40 229 l 40 238 l 40 239 q 40 251 40 249 q 40 260 40 253 q 40 290 40 268 l 40 290 l 40 361 q 40 391 40 385 q 40 400 40 397 q 40 411 40 403 l 40 411 l 40 413 q 40 424 40 422 q 40 434 40 426 q 40 464 40 442 l 40 464 l 40 603 q 133 694 133 603 l 133 694 l 133 783 q 40 883 133 883 l 40 883 l 40 994 l 433 994 l 433 876 q 346 783 346 876 l 346 783 l 346 756 l 536 843 q 549 861 549 850 l 549 861 q 528 876 549 876 l 528 876 l 501 876 l 501 994 l 803 994 l 893 883 l 879 883 q 858 882 868 883 q 832 874 849 881 q 782 851 815 867 l 782 851 l 679 806 l 765 711 q 831 641 808 664 q 869 611 854 618 q 901 604 885 604 l 901 604 l 928 604 l 928 0 l 514 0 l 514 188 q 514 217 514 211 q 514 226 514 224 q 514 238 514 229 l 514 238 l 514 239 q 514 251 514 249 q 514 260 514 253 q 514 290 514 268 l 514 290 l 514 361 q 514 391 514 385 q 514 400 514 397 q 514 411 514 403 l 514 411 l 514 413 q 514 424 514 422 q 514 434 514 426 q 514 464 514 442 l 514 464 l 514 610 l 531 610 q 561 628 561 610 l 561 628 q 557 644 561 636 q 533 674 553 651 l 533 674 l 493 722 l 351 654 q 376 621 351 632 q 433 610 400 610 l 433 610 l 433 0 z m 1039 661 l 863 661 q 896 727 882 689 q 910 800 910 765 l 910 800 q 886 865 910 839 q 803 890 863 890 l 803 890 l 803 994 q 930 974 881 994 q 1007 922 979 954 q 1046 852 1035 889 q 1057 782 1057 815 l 1057 782 q 1052 713 1057 747 q 1039 661 1047 679 l 1039 661 z "},"Ḵ":{"ha":968,"x_min":40,"x_max":928,"o":"m 433 0 l 40 0 l 40 188 q 40 217 40 211 q 40 226 40 224 q 40 238 40 229 l 40 238 l 40 239 q 40 251 40 249 q 40 260 40 253 q 40 290 40 268 l 40 290 l 40 361 q 40 391 40 385 q 40 400 40 397 q 40 411 40 403 l 40 411 l 40 413 q 40 424 40 422 q 40 434 40 426 q 40 464 40 442 l 40 464 l 40 603 q 133 694 133 603 l 133 694 l 133 783 q 40 883 133 883 l 40 883 l 40 994 l 433 994 l 433 876 q 346 783 346 876 l 346 783 l 346 756 l 536 843 q 549 861 549 850 l 549 861 q 528 876 549 876 l 528 876 l 501 876 l 501 994 l 893 994 l 893 883 l 879 883 q 858 882 868 883 q 832 874 849 881 q 782 851 815 867 l 782 851 l 679 806 l 765 711 q 831 641 808 664 q 869 611 854 618 q 901 604 885 604 l 901 604 l 928 604 l 928 0 l 514 0 l 514 188 q 514 217 514 211 q 514 226 514 224 q 514 238 514 229 l 514 238 l 514 239 q 514 251 514 249 q 514 260 514 253 q 514 290 514 268 l 514 290 l 514 361 q 514 391 514 385 q 514 400 514 397 q 514 411 514 403 l 514 411 l 514 413 q 514 424 514 422 q 514 434 514 426 q 514 464 514 442 l 514 464 l 514 610 l 531 610 q 561 628 561 610 l 561 628 q 557 644 561 636 q 533 674 553 651 l 533 674 l 493 722 l 351 654 q 376 621 351 632 q 433 610 400 610 l 433 610 l 433 0 z m 665 -167 l 263 -167 l 263 -62 l 665 -62 l 665 -167 z "},"Ꝁ":{"ha":968,"x_min":40,"x_max":928,"o":"m 433 0 l 40 0 l 40 188 q 40 217 40 211 q 40 226 40 224 q 40 238 40 229 l 40 238 l 40 239 q 40 251 40 249 q 40 260 40 253 q 40 290 40 268 l 40 290 l 40 361 q 40 391 40 385 q 40 400 40 397 q 40 411 40 403 l 40 411 l 40 413 q 40 424 40 422 q 40 434 40 426 q 40 464 40 442 l 40 464 l 40 603 q 133 694 133 603 l 133 694 l 133 783 q 40 883 133 883 l 40 883 l 40 994 l 433 994 l 433 876 q 346 783 346 876 l 346 783 l 346 756 l 536 843 q 549 861 549 850 l 549 861 q 528 876 549 876 l 528 876 l 501 876 l 501 994 l 893 994 l 893 883 l 879 883 q 858 882 868 883 q 832 874 849 881 q 782 851 815 867 l 782 851 l 679 806 l 765 711 q 831 641 808 664 q 869 611 854 618 q 901 604 885 604 l 901 604 l 928 604 l 928 0 l 514 0 l 514 188 q 514 217 514 211 q 514 226 514 224 q 514 238 514 229 l 514 238 l 514 239 q 514 251 514 249 q 514 260 514 253 q 514 290 514 268 l 514 290 l 514 361 q 514 391 514 385 q 514 400 514 397 q 514 411 514 403 l 514 411 l 514 413 q 514 424 514 422 q 514 434 514 426 q 514 464 514 442 l 514 464 l 514 610 l 531 610 q 561 628 561 610 l 561 628 q 557 644 561 636 q 533 674 553 651 l 533 674 l 493 722 l 351 654 q 376 621 351 632 q 433 610 400 610 l 433 610 l 433 0 z m 156 701 l 40 701 l 40 799 l 156 799 l 156 701 z "},"L":{"ha":811,"x_min":40,"x_max":768,"o":"m 768 0 l 40 0 l 40 188 q 40 217 40 211 q 40 226 40 224 q 40 238 40 229 l 40 238 l 40 239 q 40 251 40 249 q 40 260 40 253 q 40 290 40 268 l 40 290 l 40 361 q 40 391 40 385 q 40 400 40 397 q 40 411 40 403 l 40 411 l 40 413 q 40 424 40 422 q 40 434 40 426 q 40 464 40 442 l 40 464 l 40 603 q 114 628 93 603 q 135 694 135 653 l 135 694 l 135 783 q 114 854 135 825 q 40 883 93 883 l 40 883 l 40 994 l 447 994 l 447 883 q 375 854 396 883 q 354 783 354 825 l 354 783 l 354 610 l 543 610 q 616 631 596 610 q 636 694 636 653 l 636 694 l 636 756 l 768 756 l 768 464 q 768 434 768 442 q 768 424 768 426 q 768 413 768 422 l 768 413 l 768 411 q 768 400 768 403 q 768 391 768 397 q 768 361 768 385 l 768 361 l 768 290 q 768 260 768 268 q 768 251 768 253 q 768 239 768 249 l 768 239 l 768 238 q 768 226 768 229 q 768 217 768 224 q 768 188 768 211 l 768 188 l 768 0 z "},"Ĺ":{"ha":811,"x_min":40,"x_max":768,"o":"m 768 0 l 40 0 l 40 188 q 40 217 40 211 q 40 226 40 224 q 40 238 40 229 l 40 238 l 40 239 q 40 251 40 249 q 40 260 40 253 q 40 290 40 268 l 40 290 l 40 361 q 40 391 40 385 q 40 400 40 397 q 40 411 40 403 l 40 411 l 40 413 q 40 424 40 422 q 40 434 40 426 q 40 464 40 442 l 40 464 l 40 603 q 114 628 93 603 q 135 694 135 653 l 135 694 l 135 783 q 114 854 135 825 q 40 883 93 883 l 40 883 l 40 994 l 447 994 l 447 883 q 375 854 396 883 q 354 783 354 825 l 354 783 l 354 610 l 543 610 q 616 631 596 610 q 636 694 636 653 l 636 694 l 636 756 l 768 756 l 768 464 q 768 434 768 442 q 768 424 768 426 q 768 413 768 422 l 768 413 l 768 411 q 768 400 768 403 q 768 391 768 397 q 768 361 768 385 l 768 361 l 768 290 q 768 260 768 268 q 768 251 768 253 q 768 239 768 249 l 768 239 l 768 238 q 768 226 768 229 q 768 217 768 224 q 768 188 768 211 l 768 188 l 768 0 z m 307 1051 l 175 1051 l 281 1213 l 456 1213 l 307 1051 z "},"Ƚ":{"ha":811,"x_min":40,"x_max":768,"o":"m 768 0 l 40 0 l 40 188 q 40 217 40 211 q 40 226 40 224 q 40 238 40 229 l 40 238 l 40 239 q 40 251 40 249 q 40 260 40 253 q 40 290 40 268 l 40 290 l 40 361 q 40 391 40 385 q 40 400 40 397 q 40 411 40 403 l 40 411 l 40 413 q 40 424 40 422 q 40 434 40 426 q 40 464 40 442 l 40 464 l 40 603 q 114 628 93 603 q 135 694 135 653 l 135 694 l 135 783 q 114 854 135 825 q 40 883 93 883 l 40 883 l 40 994 l 447 994 l 447 883 q 375 854 396 883 q 354 783 354 825 l 354 783 l 354 610 l 543 610 q 616 631 596 610 q 636 694 636 653 l 636 694 l 636 756 l 768 756 l 768 464 q 768 434 768 442 q 768 424 768 426 q 768 413 768 422 l 768 413 l 768 411 q 768 400 768 403 q 768 391 768 397 q 768 361 768 385 l 768 361 l 768 290 q 768 260 768 268 q 768 251 768 253 q 768 239 768 249 l 768 239 l 768 238 q 768 226 768 229 q 768 217 768 224 q 768 188 768 211 l 768 188 l 768 0 z m 446 697 l 40 697 l 40 794 l 446 794 l 446 697 z "},"Ɬ":{"ha":811,"x_min":-35,"x_max":768,"o":"m 768 0 l 40 0 l 40 188 q 40 217 40 211 q 40 226 40 224 q 40 238 40 229 l 40 238 l 40 239 q 40 251 40 249 q 40 260 40 253 q 40 290 40 268 l 40 290 l 40 361 q 40 391 40 385 q 40 400 40 397 q 40 411 40 403 l 40 411 l 40 413 q 40 424 40 422 q 40 434 40 426 q 40 464 40 442 l 40 464 l 40 603 q 114 628 93 603 q 135 694 135 653 l 135 694 l 135 783 q 114 854 135 825 q 40 883 93 883 l 40 883 l 40 994 l 447 994 l 447 883 q 375 854 396 883 q 354 783 354 825 l 354 783 l 354 610 l 543 610 q 616 631 596 610 q 636 694 636 653 l 636 694 l 636 756 l 768 756 l 768 464 q 768 434 768 442 q 768 424 768 426 q 768 413 768 422 l 768 413 l 768 411 q 768 400 768 403 q 768 391 768 397 q 768 361 768 385 l 768 361 l 768 290 q 768 260 768 268 q 768 251 768 253 q 768 239 768 249 l 768 239 l 768 238 q 768 226 768 229 q 768 217 768 224 q 768 188 768 211 l 768 188 l 768 0 z m 440 649 l 78 649 q -2 675 31 649 q -35 756 -35 701 l -35 756 q 0 822 -35 797 q 82 846 35 846 l 82 846 q 171 817 135 846 q 207 747 207 789 l 207 747 l 135 721 q 83 768 135 768 l 83 768 q 65 765 74 768 q 57 751 57 761 l 57 751 q 89 738 57 738 l 89 738 l 440 738 l 440 649 z "},"Ľ":{"ha":811,"x_min":40,"x_max":768,"o":"m 768 0 l 40 0 l 40 188 q 40 217 40 211 q 40 226 40 224 q 40 238 40 229 l 40 238 l 40 239 q 40 251 40 249 q 40 260 40 253 q 40 290 40 268 l 40 290 l 40 361 q 40 391 40 385 q 40 400 40 397 q 40 411 40 403 l 40 411 l 40 413 q 40 424 40 422 q 40 434 40 426 q 40 464 40 442 l 40 464 l 40 603 q 114 628 93 603 q 135 694 135 653 l 135 694 l 135 783 q 114 854 135 825 q 40 883 93 883 l 40 883 l 40 994 l 447 994 l 447 883 q 375 854 396 883 q 354 783 354 825 l 354 783 l 354 610 l 543 610 q 616 631 596 610 q 636 694 636 653 l 636 694 l 636 756 l 768 756 l 768 464 q 768 434 768 442 q 768 424 768 426 q 768 413 768 422 l 768 413 l 768 411 q 768 400 768 403 q 768 391 768 397 q 768 361 768 385 l 768 361 l 768 290 q 768 260 768 268 q 768 251 768 253 q 768 239 768 249 l 768 239 l 768 238 q 768 226 768 229 q 768 217 768 224 q 768 188 768 211 l 768 188 l 768 0 z m 607 818 l 543 818 l 476 1081 l 685 1081 l 607 818 z "},"Ḽ":{"ha":811,"x_min":40,"x_max":768,"o":"m 768 0 l 40 0 l 40 188 q 40 217 40 211 q 40 226 40 224 q 40 238 40 229 l 40 238 l 40 239 q 40 251 40 249 q 40 260 40 253 q 40 290 40 268 l 40 290 l 40 361 q 40 391 40 385 q 40 400 40 397 q 40 411 40 403 l 40 411 l 40 413 q 40 424 40 422 q 40 434 40 426 q 40 464 40 442 l 40 464 l 40 603 q 114 628 93 603 q 135 694 135 653 l 135 694 l 135 783 q 114 854 135 825 q 40 883 93 883 l 40 883 l 40 994 l 447 994 l 447 883 q 375 854 396 883 q 354 783 354 825 l 354 783 l 354 610 l 543 610 q 616 631 596 610 q 636 694 636 653 l 636 694 l 636 756 l 768 756 l 768 464 q 768 434 768 442 q 768 424 768 426 q 768 413 768 422 l 768 413 l 768 411 q 768 400 768 403 q 768 391 768 397 q 768 361 768 385 l 768 361 l 768 290 q 768 260 768 268 q 768 251 768 253 q 768 239 768 249 l 768 239 l 768 238 q 768 226 768 229 q 768 217 768 224 q 768 188 768 211 l 768 188 l 768 0 z m 606 -237 l 494 -239 l 407 -135 l 333 -237 l 221 -235 l 321 -56 l 499 -56 l 606 -237 z "},"Ļ":{"ha":811,"x_min":40,"x_max":768,"o":"m 768 0 l 40 0 l 40 188 q 40 217 40 211 q 40 226 40 224 q 40 238 40 229 l 40 238 l 40 239 q 40 251 40 249 q 40 260 40 253 q 40 290 40 268 l 40 290 l 40 361 q 40 391 40 385 q 40 400 40 397 q 40 411 40 403 l 40 411 l 40 413 q 40 424 40 422 q 40 434 40 426 q 40 464 40 442 l 40 464 l 40 603 q 114 628 93 603 q 135 694 135 653 l 135 694 l 135 783 q 114 854 135 825 q 40 883 93 883 l 40 883 l 40 994 l 447 994 l 447 883 q 375 854 396 883 q 354 783 354 825 l 354 783 l 354 610 l 543 610 q 616 631 596 610 q 636 694 636 653 l 636 694 l 636 756 l 768 756 l 768 464 q 768 434 768 442 q 768 424 768 426 q 768 413 768 422 l 768 413 l 768 411 q 768 400 768 403 q 768 391 768 397 q 768 361 768 385 l 768 361 l 768 290 q 768 260 768 268 q 768 251 768 253 q 768 239 768 249 l 768 239 l 768 238 q 768 226 768 229 q 768 217 768 224 q 768 188 768 211 l 768 188 l 768 0 z m 365 -304 l 365 -304 l 357 -292 q 399 -249 389 -274 q 408 -212 408 -224 l 408 -212 q 353 -191 376 -212 q 329 -132 329 -169 l 329 -132 q 355 -67 329 -92 q 414 -43 381 -43 l 414 -43 q 454 -51 432 -43 q 493 -81 476 -58 q 510 -144 510 -103 l 510 -144 q 497 -205 510 -169 q 452 -269 483 -240 q 365 -304 421 -297 z "},"Ḷ":{"ha":811,"x_min":40,"x_max":768,"o":"m 768 0 l 40 0 l 40 188 q 40 217 40 211 q 40 226 40 224 q 40 238 40 229 l 40 238 l 40 239 q 40 251 40 249 q 40 260 40 253 q 40 290 40 268 l 40 290 l 40 361 q 40 391 40 385 q 40 400 40 397 q 40 411 40 403 l 40 411 l 40 413 q 40 424 40 422 q 40 434 40 426 q 40 464 40 442 l 40 464 l 40 603 q 114 628 93 603 q 135 694 135 653 l 135 694 l 135 783 q 114 854 135 825 q 40 883 93 883 l 40 883 l 40 994 l 447 994 l 447 883 q 375 854 396 883 q 354 783 354 825 l 354 783 l 354 610 l 543 610 q 616 631 596 610 q 636 694 636 653 l 636 694 l 636 756 l 768 756 l 768 464 q 768 434 768 442 q 768 424 768 426 q 768 413 768 422 l 768 413 l 768 411 q 768 400 768 403 q 768 391 768 397 q 768 361 768 385 l 768 361 l 768 290 q 768 260 768 268 q 768 251 768 253 q 768 239 768 249 l 768 239 l 768 238 q 768 226 768 229 q 768 217 768 224 q 768 188 768 211 l 768 188 l 768 0 z m 414 -211 l 414 -211 q 353 -186 375 -211 q 331 -126 331 -161 l 331 -126 q 355 -68 331 -93 q 415 -43 379 -43 l 415 -43 q 474 -69 449 -43 q 499 -126 499 -94 l 499 -126 q 484 -173 499 -154 q 449 -201 469 -192 q 414 -211 429 -211 z "},"Ḹ":{"ha":811,"x_min":40,"x_max":768,"o":"m 768 0 l 40 0 l 40 188 q 40 217 40 211 q 40 226 40 224 q 40 238 40 229 l 40 238 l 40 239 q 40 251 40 249 q 40 260 40 253 q 40 290 40 268 l 40 290 l 40 361 q 40 391 40 385 q 40 400 40 397 q 40 411 40 403 l 40 411 l 40 413 q 40 424 40 422 q 40 434 40 426 q 40 464 40 442 l 40 464 l 40 603 q 114 628 93 603 q 135 694 135 653 l 135 694 l 135 783 q 114 854 135 825 q 40 883 93 883 l 40 883 l 40 994 l 447 994 l 447 883 q 375 854 396 883 q 354 783 354 825 l 354 783 l 354 610 l 543 610 q 616 631 596 610 q 636 694 636 653 l 636 694 l 636 756 l 768 756 l 768 464 q 768 434 768 442 q 768 424 768 426 q 768 413 768 422 l 768 413 l 768 411 q 768 400 768 403 q 768 391 768 397 q 768 361 768 385 l 768 361 l 768 290 q 768 260 768 268 q 768 251 768 253 q 768 239 768 249 l 768 239 l 768 238 q 768 226 768 229 q 768 217 768 224 q 768 188 768 211 l 768 188 l 768 0 z m 414 -211 l 414 -211 q 353 -186 375 -211 q 331 -126 331 -161 l 331 -126 q 355 -68 331 -93 q 415 -43 379 -43 l 415 -43 q 474 -69 449 -43 q 499 -126 499 -94 l 499 -126 q 484 -173 499 -154 q 449 -201 469 -192 q 414 -211 429 -211 z m 446 1058 l 43 1058 l 43 1163 l 446 1163 l 446 1058 z "}}}
